G04 #@! TF.GenerationSoftware,KiCad,Pcbnew,(5.1.5-0-10_14)*
G04 #@! TF.CreationDate,2020-10-08T09:40:03+02:00*
G04 #@! TF.ProjectId,s1-popout-board,73312d70-6f70-46f7-9574-2d626f617264,2*
G04 #@! TF.SameCoordinates,Original*
G04 #@! TF.FileFunction,Copper,L2,Bot*
G04 #@! TF.FilePolarity,Positive*
%FSLAX46Y46*%
G04 Gerber Fmt 4.6, Leading zero omitted, Abs format (unit mm)*
G04 Created by KiCad (PCBNEW (5.1.5-0-10_14)) date 2020-10-08 09:40:03*
%MOMM*%
%LPD*%
G04 APERTURE LIST*
%ADD10C,0.100000*%
%ADD11O,2.158000X1.158000*%
%ADD12O,2.458000X1.158000*%
%ADD13C,4.000000*%
%ADD14C,0.500000*%
%ADD15C,0.300000*%
%ADD16C,0.450000*%
%ADD17C,0.200000*%
G04 APERTURE END LIST*
D10*
G36*
X99560000Y-53810000D02*
G01*
X99560000Y-54310000D01*
X98960000Y-54310000D01*
X98960000Y-53810000D01*
X99560000Y-53810000D01*
G37*
G36*
X102130000Y-53810000D02*
G01*
X102130000Y-54310000D01*
X101530000Y-54310000D01*
X101530000Y-53810000D01*
X102130000Y-53810000D01*
G37*
G04 #@! TA.AperFunction,SMDPad,CuDef*
G36*
X100010000Y-54210000D02*
G01*
X100010000Y-54710000D01*
X100009398Y-54710000D01*
X100009398Y-54734534D01*
X100004588Y-54783365D01*
X99995016Y-54831490D01*
X99980772Y-54878445D01*
X99961995Y-54923778D01*
X99938864Y-54967051D01*
X99911604Y-55007850D01*
X99880476Y-55045779D01*
X99845779Y-55080476D01*
X99807850Y-55111604D01*
X99767051Y-55138864D01*
X99723778Y-55161995D01*
X99678445Y-55180772D01*
X99631490Y-55195016D01*
X99583365Y-55204588D01*
X99534534Y-55209398D01*
X99510000Y-55209398D01*
X99510000Y-55210000D01*
X99010000Y-55210000D01*
X99010000Y-55209398D01*
X98985466Y-55209398D01*
X98936635Y-55204588D01*
X98888510Y-55195016D01*
X98841555Y-55180772D01*
X98796222Y-55161995D01*
X98752949Y-55138864D01*
X98712150Y-55111604D01*
X98674221Y-55080476D01*
X98639524Y-55045779D01*
X98608396Y-55007850D01*
X98581136Y-54967051D01*
X98558005Y-54923778D01*
X98539228Y-54878445D01*
X98524984Y-54831490D01*
X98515412Y-54783365D01*
X98510602Y-54734534D01*
X98510602Y-54710000D01*
X98510000Y-54710000D01*
X98510000Y-54210000D01*
X100010000Y-54210000D01*
G37*
G04 #@! TD.AperFunction*
G04 #@! TA.AperFunction,SMDPad,CuDef*
G36*
X98510602Y-53410000D02*
G01*
X98510602Y-53385466D01*
X98515412Y-53336635D01*
X98524984Y-53288510D01*
X98539228Y-53241555D01*
X98558005Y-53196222D01*
X98581136Y-53152949D01*
X98608396Y-53112150D01*
X98639524Y-53074221D01*
X98674221Y-53039524D01*
X98712150Y-53008396D01*
X98752949Y-52981136D01*
X98796222Y-52958005D01*
X98841555Y-52939228D01*
X98888510Y-52924984D01*
X98936635Y-52915412D01*
X98985466Y-52910602D01*
X99010000Y-52910602D01*
X99010000Y-52910000D01*
X99510000Y-52910000D01*
X99510000Y-52910602D01*
X99534534Y-52910602D01*
X99583365Y-52915412D01*
X99631490Y-52924984D01*
X99678445Y-52939228D01*
X99723778Y-52958005D01*
X99767051Y-52981136D01*
X99807850Y-53008396D01*
X99845779Y-53039524D01*
X99880476Y-53074221D01*
X99911604Y-53112150D01*
X99938864Y-53152949D01*
X99961995Y-53196222D01*
X99980772Y-53241555D01*
X99995016Y-53288510D01*
X100004588Y-53336635D01*
X100009398Y-53385466D01*
X100009398Y-53410000D01*
X100010000Y-53410000D01*
X100010000Y-53910000D01*
X98510000Y-53910000D01*
X98510000Y-53410000D01*
X98510602Y-53410000D01*
G37*
G04 #@! TD.AperFunction*
G04 #@! TA.AperFunction,SMDPad,CuDef*
G36*
X102580000Y-54210000D02*
G01*
X102580000Y-54710000D01*
X102579398Y-54710000D01*
X102579398Y-54734534D01*
X102574588Y-54783365D01*
X102565016Y-54831490D01*
X102550772Y-54878445D01*
X102531995Y-54923778D01*
X102508864Y-54967051D01*
X102481604Y-55007850D01*
X102450476Y-55045779D01*
X102415779Y-55080476D01*
X102377850Y-55111604D01*
X102337051Y-55138864D01*
X102293778Y-55161995D01*
X102248445Y-55180772D01*
X102201490Y-55195016D01*
X102153365Y-55204588D01*
X102104534Y-55209398D01*
X102080000Y-55209398D01*
X102080000Y-55210000D01*
X101580000Y-55210000D01*
X101580000Y-55209398D01*
X101555466Y-55209398D01*
X101506635Y-55204588D01*
X101458510Y-55195016D01*
X101411555Y-55180772D01*
X101366222Y-55161995D01*
X101322949Y-55138864D01*
X101282150Y-55111604D01*
X101244221Y-55080476D01*
X101209524Y-55045779D01*
X101178396Y-55007850D01*
X101151136Y-54967051D01*
X101128005Y-54923778D01*
X101109228Y-54878445D01*
X101094984Y-54831490D01*
X101085412Y-54783365D01*
X101080602Y-54734534D01*
X101080602Y-54710000D01*
X101080000Y-54710000D01*
X101080000Y-54210000D01*
X102580000Y-54210000D01*
G37*
G04 #@! TD.AperFunction*
G04 #@! TA.AperFunction,SMDPad,CuDef*
G36*
X101080602Y-53410000D02*
G01*
X101080602Y-53385466D01*
X101085412Y-53336635D01*
X101094984Y-53288510D01*
X101109228Y-53241555D01*
X101128005Y-53196222D01*
X101151136Y-53152949D01*
X101178396Y-53112150D01*
X101209524Y-53074221D01*
X101244221Y-53039524D01*
X101282150Y-53008396D01*
X101322949Y-52981136D01*
X101366222Y-52958005D01*
X101411555Y-52939228D01*
X101458510Y-52924984D01*
X101506635Y-52915412D01*
X101555466Y-52910602D01*
X101580000Y-52910602D01*
X101580000Y-52910000D01*
X102080000Y-52910000D01*
X102080000Y-52910602D01*
X102104534Y-52910602D01*
X102153365Y-52915412D01*
X102201490Y-52924984D01*
X102248445Y-52939228D01*
X102293778Y-52958005D01*
X102337051Y-52981136D01*
X102377850Y-53008396D01*
X102415779Y-53039524D01*
X102450476Y-53074221D01*
X102481604Y-53112150D01*
X102508864Y-53152949D01*
X102531995Y-53196222D01*
X102550772Y-53241555D01*
X102565016Y-53288510D01*
X102574588Y-53336635D01*
X102579398Y-53385466D01*
X102579398Y-53410000D01*
X102580000Y-53410000D01*
X102580000Y-53910000D01*
X101080000Y-53910000D01*
X101080000Y-53410000D01*
X101080602Y-53410000D01*
G37*
G04 #@! TD.AperFunction*
D11*
X112770999Y-73730399D03*
D12*
X116596000Y-73729999D03*
D11*
X112770999Y-82370002D03*
D12*
X116596000Y-82370002D03*
D13*
X97200000Y-43950000D03*
X116700000Y-43950000D03*
X116700000Y-85925000D03*
X97200000Y-85925000D03*
D14*
X115600000Y-51650000D03*
X102800000Y-46700000D03*
X112200000Y-46600000D03*
X117400000Y-46900000D03*
X114900000Y-46600000D03*
X117750000Y-49100000D03*
X117150000Y-62400000D03*
X117150000Y-64050000D03*
X113620000Y-61680000D03*
X117200000Y-67600000D03*
X117200000Y-69350000D03*
X112800000Y-69750000D03*
X112400000Y-66400000D03*
X102200000Y-75150000D03*
X108070000Y-71880000D03*
X106060000Y-71880000D03*
X102200000Y-73250000D03*
X97350000Y-76800000D03*
X97350000Y-79200000D03*
X96700000Y-72800000D03*
X96580000Y-65870000D03*
X96950000Y-60700000D03*
X97000000Y-55600000D03*
X97400000Y-51250000D03*
X106950000Y-57250000D03*
X106760000Y-59360000D03*
X109320000Y-60600000D03*
X104950000Y-63250000D03*
X105530000Y-79310000D03*
X100800000Y-79100000D03*
X117150000Y-80900000D03*
X117050000Y-78050000D03*
X117050000Y-75250000D03*
X113550000Y-86750000D03*
X107400000Y-86850000D03*
X101550000Y-86950000D03*
X96200000Y-83100000D03*
X101670000Y-82900000D03*
X104280000Y-82990000D03*
X110500000Y-81600000D03*
X113550000Y-79750000D03*
X113550000Y-76450000D03*
X96250000Y-46700000D03*
X99550000Y-46700000D03*
X110900000Y-50850000D03*
X108050000Y-78300000D03*
X108800000Y-79050000D03*
X104300000Y-75150000D03*
X104950000Y-61550000D03*
X108850000Y-67550000D03*
X112300000Y-72100000D03*
X110160000Y-74390000D03*
X99120000Y-52300000D03*
X115790000Y-59780000D03*
X117260000Y-53290000D03*
X98000000Y-69850000D03*
X98000000Y-66150000D03*
X101900000Y-47150000D03*
X99950000Y-51900000D03*
X101050000Y-51900000D03*
X102350000Y-48050000D03*
X108290000Y-62340000D03*
X107000000Y-84600000D03*
X114414998Y-65770000D03*
X115350000Y-65770000D03*
X115750000Y-55610002D03*
X104400000Y-67550000D03*
X113700000Y-51150000D03*
X114000000Y-54100000D03*
X103500000Y-65550000D03*
X106400000Y-67550000D03*
X117930000Y-51510004D03*
X101650000Y-50100000D03*
X104899992Y-54900000D03*
X113500000Y-78050000D03*
X110450000Y-78050000D03*
D15*
X98000000Y-69850000D02*
X98000000Y-66150000D01*
X99950000Y-49100000D02*
X99950000Y-51900000D01*
X101900000Y-47150000D02*
X99950000Y-49100000D01*
X99950000Y-52720000D02*
X99260000Y-53410000D01*
X99950000Y-51900000D02*
X99950000Y-52720000D01*
X101050000Y-51930000D02*
X101050000Y-51900000D01*
X101050000Y-52630000D02*
X101050000Y-51930000D01*
X101830000Y-53410000D02*
X101050000Y-52630000D01*
X100850000Y-49550000D02*
X102350000Y-48050000D01*
X100850000Y-50450000D02*
X100850000Y-49550000D01*
X103300000Y-52900000D02*
X100850000Y-50450000D01*
X103300000Y-57350000D02*
X103300000Y-52900000D01*
X108290000Y-62340000D02*
X103300000Y-57350000D01*
D16*
X114600000Y-83350000D02*
X114600000Y-65955002D01*
X113350000Y-84600000D02*
X114600000Y-83350000D01*
X114600000Y-65955002D02*
X114414998Y-65770000D01*
X107000000Y-84600000D02*
X113350000Y-84600000D01*
X114414998Y-65770000D02*
X115350000Y-65770000D01*
X115750000Y-56034266D02*
X115750000Y-55610002D01*
X115750000Y-57050000D02*
X115750000Y-56034266D01*
X105250000Y-67550000D02*
X115750000Y-57050000D01*
X104400000Y-67550000D02*
X105250000Y-67550000D01*
X115750000Y-55610002D02*
X115750000Y-53200000D01*
X113999999Y-51449999D02*
X113700000Y-51150000D01*
X115750000Y-53200000D02*
X113999999Y-51449999D01*
D15*
X114000000Y-57788004D02*
X106238004Y-65550000D01*
X103924264Y-65550000D02*
X103500000Y-65550000D01*
X114000000Y-54100000D02*
X114000000Y-57788004D01*
X106238004Y-65550000D02*
X103924264Y-65550000D01*
X106400000Y-67550000D02*
X117930000Y-56020000D01*
X117930000Y-56020000D02*
X117930000Y-51510004D01*
X104050000Y-52500000D02*
X104050000Y-54050008D01*
X104050000Y-54050008D02*
X104899992Y-54900000D01*
X101650000Y-50100000D02*
X104050000Y-52500000D01*
X100070000Y-68870000D02*
X100070000Y-55520000D01*
X110050000Y-78850000D02*
X100070000Y-68870000D01*
X100070000Y-55520000D02*
X99260000Y-54710000D01*
X112700000Y-78850000D02*
X110050000Y-78850000D01*
X113500000Y-78050000D02*
X112700000Y-78850000D01*
X101050000Y-61200000D02*
X101050000Y-55490000D01*
X101057521Y-61266756D02*
X101050000Y-61200000D01*
X101115450Y-61387046D02*
X101079709Y-61330165D01*
X101219834Y-61470290D02*
X101162953Y-61434549D01*
X101816756Y-61507521D02*
X101750000Y-61500000D01*
X101283243Y-61492478D02*
X101219834Y-61470290D01*
X101937046Y-61565450D02*
X101880165Y-61529709D01*
X102020290Y-61669834D02*
X101984549Y-61612953D01*
X102042478Y-61733243D02*
X102020290Y-61669834D01*
X102050000Y-61800000D02*
X102042478Y-61733243D01*
X102042478Y-61866756D02*
X102050000Y-61800000D01*
X101984549Y-61987046D02*
X102020290Y-61930165D01*
X101816756Y-62092478D02*
X101880165Y-62070290D01*
X101750000Y-62100000D02*
X101816756Y-62092478D01*
X100744370Y-62106268D02*
X100800000Y-62100000D01*
X100604543Y-62194127D02*
X100644128Y-62154542D01*
X100574758Y-62241529D02*
X100604543Y-62194127D01*
X101880165Y-62070290D02*
X101937046Y-62034549D01*
X100556269Y-62294369D02*
X100574758Y-62241529D01*
X102020290Y-65530165D02*
X102042478Y-65466756D01*
X100556269Y-62505630D02*
X100550000Y-62450000D01*
X100550000Y-62350000D02*
X100556269Y-62294369D01*
X100550000Y-62450000D02*
X100550000Y-62350000D01*
X102020290Y-65269834D02*
X101984549Y-65212953D01*
X100574758Y-62558470D02*
X100556269Y-62505630D01*
X100604543Y-62605872D02*
X100574758Y-62558470D01*
X100644128Y-62645457D02*
X100604543Y-62605872D01*
X100556269Y-64905630D02*
X100550000Y-64850000D01*
X100744370Y-62693731D02*
X100691530Y-62675242D01*
X101750000Y-61500000D02*
X101350000Y-61500000D01*
X100800000Y-62700000D02*
X100744370Y-62693731D01*
X100604543Y-65005872D02*
X100574758Y-64958470D01*
X100691530Y-63875242D02*
X100644128Y-63845457D01*
X101816756Y-62707521D02*
X101750000Y-62700000D01*
X100574758Y-64958470D02*
X100556269Y-64905630D01*
X102042478Y-62933243D02*
X102020290Y-62869834D01*
X101880165Y-62729709D02*
X101816756Y-62707521D01*
X102050000Y-63000000D02*
X102042478Y-62933243D01*
X101937046Y-62034549D02*
X101984549Y-61987046D01*
X100691530Y-63324757D02*
X100744370Y-63306268D01*
X102042478Y-63066756D02*
X102050000Y-63000000D01*
X101984549Y-63187046D02*
X102020290Y-63130165D01*
X100744370Y-63306268D02*
X100800000Y-63300000D01*
X100604543Y-63394127D02*
X100644128Y-63354542D01*
X100644128Y-62154542D02*
X100691530Y-62124757D01*
X100574758Y-63441529D02*
X100604543Y-63394127D01*
X100556269Y-63494369D02*
X100574758Y-63441529D01*
X100550000Y-63550000D02*
X100556269Y-63494369D01*
X100550000Y-63650000D02*
X100550000Y-63550000D01*
X102020290Y-61930165D02*
X102042478Y-61866756D01*
X100556269Y-63705630D02*
X100550000Y-63650000D01*
X100800000Y-62100000D02*
X101750000Y-62100000D01*
X101984549Y-62812953D02*
X101937046Y-62765450D01*
X100604543Y-63805872D02*
X100574758Y-63758470D01*
X101937046Y-62765450D02*
X101880165Y-62729709D01*
X100800000Y-63900000D02*
X100744370Y-63893731D01*
X101750000Y-63900000D02*
X100800000Y-63900000D01*
X100644128Y-63845457D02*
X100604543Y-63805872D01*
X101880165Y-63929709D02*
X101816756Y-63907521D01*
X101937046Y-63234549D02*
X101984549Y-63187046D01*
X100644128Y-63354542D02*
X100691530Y-63324757D01*
X101984549Y-64012953D02*
X101937046Y-63965450D01*
X101079709Y-61330165D02*
X101057521Y-61266756D01*
X102042478Y-64133243D02*
X102020290Y-64069834D01*
X100691530Y-65075242D02*
X100644128Y-65045457D01*
X102042478Y-64266756D02*
X102050000Y-64200000D01*
X101984549Y-64387046D02*
X102020290Y-64330165D01*
X101937046Y-64434549D02*
X101984549Y-64387046D01*
X100800000Y-63300000D02*
X101750000Y-63300000D01*
X100644128Y-64554542D02*
X100691530Y-64524757D01*
X101880165Y-64470290D02*
X101937046Y-64434549D01*
X100800000Y-64500000D02*
X101750000Y-64500000D01*
X102020290Y-64330165D02*
X102042478Y-64266756D01*
X101880165Y-61529709D02*
X101816756Y-61507521D01*
X101750000Y-64500000D02*
X101816756Y-64492478D01*
X110450000Y-78050000D02*
X110400000Y-78050000D01*
X101162953Y-61434549D02*
X101115450Y-61387046D01*
X101880165Y-65670290D02*
X101937046Y-65634549D01*
X100691530Y-62124757D02*
X100744370Y-62106268D01*
X100744370Y-64506268D02*
X100800000Y-64500000D01*
X110400000Y-78050000D02*
X101050000Y-68700000D01*
X100691530Y-64524757D02*
X100744370Y-64506268D01*
X101816756Y-64492478D02*
X101880165Y-64470290D01*
X100644128Y-65045457D02*
X100604543Y-65005872D01*
X101984549Y-61612953D02*
X101937046Y-61565450D01*
X100574758Y-64641529D02*
X100604543Y-64594127D01*
X100574758Y-63758470D02*
X100556269Y-63705630D01*
X100550000Y-64850000D02*
X100550000Y-64750000D01*
X101816756Y-63907521D02*
X101750000Y-63900000D01*
X102042478Y-65466756D02*
X102050000Y-65400000D01*
X101750000Y-62700000D02*
X100800000Y-62700000D01*
X100550000Y-64750000D02*
X100556269Y-64694369D01*
X101750000Y-63300000D02*
X101816756Y-63292478D01*
X101816756Y-65107521D02*
X101750000Y-65100000D01*
X100604543Y-64594127D02*
X100644128Y-64554542D01*
X101079709Y-65869834D02*
X101115450Y-65812953D01*
X100800000Y-65100000D02*
X100744370Y-65093731D01*
X101750000Y-65100000D02*
X100800000Y-65100000D01*
X101880165Y-65129709D02*
X101816756Y-65107521D01*
X101880165Y-63270290D02*
X101937046Y-63234549D01*
X101816756Y-63292478D02*
X101880165Y-63270290D01*
X101050000Y-55490000D02*
X101830000Y-54710000D01*
X101750000Y-65700000D02*
X101816756Y-65692478D01*
X101937046Y-65165450D02*
X101880165Y-65129709D01*
X102020290Y-64069834D02*
X101984549Y-64012953D01*
X101937046Y-65634549D02*
X101984549Y-65587046D01*
X102042478Y-65333243D02*
X102020290Y-65269834D01*
X100744370Y-65093731D02*
X100691530Y-65075242D01*
X101984549Y-65587046D02*
X102020290Y-65530165D01*
X101350000Y-61500000D02*
X101283243Y-61492478D01*
X101984549Y-65212953D02*
X101937046Y-65165450D01*
X102020290Y-63130165D02*
X102042478Y-63066756D01*
X100556269Y-64694369D02*
X100574758Y-64641529D01*
X101816756Y-65692478D02*
X101880165Y-65670290D01*
X101350000Y-65700000D02*
X101750000Y-65700000D01*
X101283243Y-65707521D02*
X101350000Y-65700000D01*
X100691530Y-62675242D02*
X100644128Y-62645457D01*
X100744370Y-63893731D02*
X100691530Y-63875242D01*
X101219834Y-65729709D02*
X101283243Y-65707521D01*
X102050000Y-65400000D02*
X102042478Y-65333243D01*
X101050000Y-68700000D02*
X101050000Y-66000000D01*
X101162953Y-65765450D02*
X101219834Y-65729709D01*
X101057521Y-65933243D02*
X101079709Y-65869834D01*
X102020290Y-62869834D02*
X101984549Y-62812953D01*
X101937046Y-63965450D02*
X101880165Y-63929709D01*
X101050000Y-66000000D02*
X101057521Y-65933243D01*
X102050000Y-64200000D02*
X102042478Y-64133243D01*
X101115450Y-65812953D02*
X101162953Y-65765450D01*
D17*
G36*
X96963621Y-46350000D02*
G01*
X97436379Y-46350000D01*
X97687748Y-46300000D01*
X104475000Y-46300000D01*
X104475001Y-52150896D01*
X104458013Y-52130196D01*
X104440790Y-52109210D01*
X104419804Y-52091987D01*
X102284159Y-49956342D01*
X102275021Y-49910402D01*
X102226022Y-49792110D01*
X102154888Y-49685649D01*
X102064351Y-49595112D01*
X101957890Y-49523978D01*
X101839598Y-49474979D01*
X101725528Y-49452289D01*
X102493659Y-48684159D01*
X102539598Y-48675021D01*
X102657890Y-48626022D01*
X102764351Y-48554888D01*
X102854888Y-48464351D01*
X102926022Y-48357890D01*
X102975021Y-48239598D01*
X103000000Y-48114019D01*
X103000000Y-47985981D01*
X102975021Y-47860402D01*
X102926022Y-47742110D01*
X102854888Y-47635649D01*
X102764351Y-47545112D01*
X102657890Y-47473978D01*
X102539598Y-47424979D01*
X102493456Y-47415801D01*
X102525021Y-47339598D01*
X102550000Y-47214019D01*
X102550000Y-47085981D01*
X102525021Y-46960402D01*
X102476022Y-46842110D01*
X102404888Y-46735649D01*
X102314351Y-46645112D01*
X102207890Y-46573978D01*
X102089598Y-46524979D01*
X101964019Y-46500000D01*
X101835981Y-46500000D01*
X101710402Y-46524979D01*
X101592110Y-46573978D01*
X101485649Y-46645112D01*
X101395112Y-46735649D01*
X101323978Y-46842110D01*
X101274979Y-46960402D01*
X101265841Y-47006341D01*
X99580196Y-48691987D01*
X99559210Y-48709210D01*
X99490479Y-48792958D01*
X99439408Y-48888507D01*
X99407958Y-48992182D01*
X99400000Y-49072983D01*
X99400000Y-49072992D01*
X99397340Y-49100000D01*
X99400000Y-49127008D01*
X99400001Y-51553163D01*
X99373978Y-51592110D01*
X99324979Y-51710402D01*
X99300000Y-51835981D01*
X99300000Y-51964019D01*
X99324979Y-52089598D01*
X99373978Y-52207890D01*
X99400000Y-52246835D01*
X99400000Y-52492182D01*
X99384117Y-52508065D01*
X99010000Y-52508065D01*
X98985551Y-52510473D01*
X98960991Y-52510473D01*
X98882578Y-52518196D01*
X98786445Y-52537318D01*
X98711046Y-52560190D01*
X98620490Y-52597699D01*
X98550999Y-52634842D01*
X98469500Y-52689298D01*
X98408592Y-52739284D01*
X98339284Y-52808592D01*
X98289298Y-52869500D01*
X98234842Y-52950999D01*
X98197699Y-53020490D01*
X98160190Y-53111046D01*
X98137318Y-53186445D01*
X98118196Y-53282578D01*
X98110473Y-53360991D01*
X98110473Y-53385551D01*
X98108065Y-53410000D01*
X98108065Y-53910000D01*
X98115788Y-53988414D01*
X98137503Y-54060000D01*
X98115788Y-54131586D01*
X98108065Y-54210000D01*
X98108065Y-54710000D01*
X98110473Y-54734449D01*
X98110473Y-54759009D01*
X98118196Y-54837422D01*
X98137318Y-54933555D01*
X98160190Y-55008954D01*
X98197699Y-55099510D01*
X98234842Y-55169001D01*
X98289298Y-55250500D01*
X98339284Y-55311408D01*
X98408592Y-55380716D01*
X98469500Y-55430702D01*
X98550999Y-55485158D01*
X98620490Y-55522301D01*
X98711046Y-55559810D01*
X98786445Y-55582682D01*
X98882578Y-55601804D01*
X98960991Y-55609527D01*
X98985551Y-55609527D01*
X99010000Y-55611935D01*
X99384117Y-55611935D01*
X99520001Y-55747819D01*
X99520000Y-68842992D01*
X99517340Y-68870000D01*
X99520000Y-68897008D01*
X99520000Y-68897017D01*
X99527958Y-68977818D01*
X99559408Y-69081493D01*
X99610479Y-69177042D01*
X99679210Y-69260790D01*
X99700196Y-69278013D01*
X109641992Y-79219810D01*
X109659210Y-79240790D01*
X109680190Y-79258008D01*
X109680195Y-79258013D01*
X109732097Y-79300607D01*
X109742958Y-79309521D01*
X109838506Y-79360592D01*
X109942181Y-79392042D01*
X110022982Y-79400000D01*
X110022991Y-79400000D01*
X110049999Y-79402660D01*
X110077007Y-79400000D01*
X112672992Y-79400000D01*
X112700000Y-79402660D01*
X112727008Y-79400000D01*
X112727018Y-79400000D01*
X112807819Y-79392042D01*
X112911494Y-79360592D01*
X113007042Y-79309521D01*
X113090790Y-79240790D01*
X113108013Y-79219804D01*
X113643659Y-78684159D01*
X113689598Y-78675021D01*
X113807890Y-78626022D01*
X113914351Y-78554888D01*
X113975000Y-78494239D01*
X113975000Y-81684625D01*
X113966605Y-81674396D01*
X113817533Y-81552055D01*
X113723921Y-81502018D01*
X113796487Y-81393416D01*
X113851139Y-81261475D01*
X113879000Y-81121406D01*
X113879000Y-80978594D01*
X113851139Y-80838525D01*
X113796487Y-80706584D01*
X113717144Y-80587839D01*
X113616161Y-80486856D01*
X113497416Y-80407513D01*
X113365475Y-80352861D01*
X113225406Y-80325000D01*
X113082594Y-80325000D01*
X112942525Y-80352861D01*
X112810584Y-80407513D01*
X112691839Y-80486856D01*
X112590856Y-80587839D01*
X112511513Y-80706584D01*
X112456861Y-80838525D01*
X112429000Y-80978594D01*
X112429000Y-81121406D01*
X112456861Y-81261475D01*
X112510513Y-81391002D01*
X112222913Y-81391002D01*
X112079082Y-81405168D01*
X111894540Y-81461148D01*
X111724465Y-81552055D01*
X111575393Y-81674396D01*
X111453052Y-81823468D01*
X111362145Y-81993543D01*
X111306165Y-82178085D01*
X111287263Y-82370002D01*
X111306165Y-82561919D01*
X111362145Y-82746461D01*
X111453052Y-82916536D01*
X111575393Y-83065608D01*
X111724465Y-83187949D01*
X111894540Y-83278856D01*
X112079082Y-83334836D01*
X112222913Y-83349002D01*
X113319085Y-83349002D01*
X113462916Y-83334836D01*
X113647458Y-83278856D01*
X113817533Y-83187949D01*
X113966605Y-83065608D01*
X113975000Y-83055379D01*
X113975000Y-83091117D01*
X113091118Y-83975000D01*
X107189649Y-83975000D01*
X107189598Y-83974979D01*
X107064019Y-83950000D01*
X106935981Y-83950000D01*
X106810402Y-83974979D01*
X106692110Y-84023978D01*
X106585649Y-84095112D01*
X106495112Y-84185649D01*
X106423978Y-84292110D01*
X106374979Y-84410402D01*
X106350000Y-84535981D01*
X106350000Y-84664019D01*
X106374979Y-84789598D01*
X106423978Y-84907890D01*
X106495112Y-85014351D01*
X106585649Y-85104888D01*
X106692110Y-85176022D01*
X106810402Y-85225021D01*
X106935981Y-85250000D01*
X107064019Y-85250000D01*
X107189598Y-85225021D01*
X107189649Y-85225000D01*
X113319306Y-85225000D01*
X113350000Y-85228023D01*
X113380694Y-85225000D01*
X113380704Y-85225000D01*
X113472521Y-85215957D01*
X113590334Y-85180219D01*
X113698911Y-85122183D01*
X113794080Y-85044080D01*
X113813658Y-85020224D01*
X115020230Y-83813653D01*
X115044080Y-83794080D01*
X115122183Y-83698911D01*
X115180219Y-83590334D01*
X115215957Y-83472521D01*
X115225000Y-83380704D01*
X115225000Y-83380694D01*
X115228023Y-83350000D01*
X115225000Y-83319306D01*
X115225000Y-83034666D01*
X115250394Y-83065608D01*
X115399466Y-83187949D01*
X115569541Y-83278856D01*
X115754083Y-83334836D01*
X115897914Y-83349002D01*
X117294086Y-83349002D01*
X117437917Y-83334836D01*
X117622459Y-83278856D01*
X117792534Y-83187949D01*
X117941606Y-83065608D01*
X118063947Y-82916536D01*
X118154854Y-82746461D01*
X118210834Y-82561919D01*
X118229736Y-82370002D01*
X118210834Y-82178085D01*
X118154854Y-81993543D01*
X118063947Y-81823468D01*
X117941606Y-81674396D01*
X117792534Y-81552055D01*
X117622459Y-81461148D01*
X117437917Y-81405168D01*
X117294086Y-81391002D01*
X115897914Y-81391002D01*
X115754083Y-81405168D01*
X115569541Y-81461148D01*
X115399466Y-81552055D01*
X115250394Y-81674396D01*
X115225000Y-81705338D01*
X115225000Y-74394663D01*
X115250394Y-74425605D01*
X115399466Y-74547946D01*
X115569541Y-74638853D01*
X115754083Y-74694833D01*
X115897914Y-74708999D01*
X117294086Y-74708999D01*
X117437917Y-74694833D01*
X117622459Y-74638853D01*
X117792534Y-74547946D01*
X117941606Y-74425605D01*
X118063947Y-74276533D01*
X118154854Y-74106458D01*
X118210834Y-73921916D01*
X118229736Y-73729999D01*
X118210834Y-73538082D01*
X118154854Y-73353540D01*
X118063947Y-73183465D01*
X117941606Y-73034393D01*
X117792534Y-72912052D01*
X117622459Y-72821145D01*
X117437917Y-72765165D01*
X117294086Y-72750999D01*
X115897914Y-72750999D01*
X115754083Y-72765165D01*
X115569541Y-72821145D01*
X115399466Y-72912052D01*
X115250394Y-73034393D01*
X115225000Y-73065335D01*
X115225000Y-66407870D01*
X115285981Y-66420000D01*
X115414019Y-66420000D01*
X115539598Y-66395021D01*
X115657890Y-66346022D01*
X115764351Y-66274888D01*
X115854888Y-66184351D01*
X115926022Y-66077890D01*
X115975021Y-65959598D01*
X116000000Y-65834019D01*
X116000000Y-65705981D01*
X115975021Y-65580402D01*
X115926022Y-65462110D01*
X115854888Y-65355649D01*
X115764351Y-65265112D01*
X115657890Y-65193978D01*
X115539598Y-65144979D01*
X115414019Y-65120000D01*
X115285981Y-65120000D01*
X115160402Y-65144979D01*
X115160351Y-65145000D01*
X114604647Y-65145000D01*
X114604596Y-65144979D01*
X114479017Y-65120000D01*
X114350979Y-65120000D01*
X114225400Y-65144979D01*
X114107108Y-65193978D01*
X114000647Y-65265112D01*
X113910110Y-65355649D01*
X113838976Y-65462110D01*
X113789977Y-65580402D01*
X113764998Y-65705981D01*
X113764998Y-65834019D01*
X113789977Y-65959598D01*
X113838976Y-66077890D01*
X113910110Y-66184351D01*
X113975001Y-66249242D01*
X113975001Y-73045023D01*
X113966605Y-73034793D01*
X113817533Y-72912452D01*
X113647458Y-72821545D01*
X113462916Y-72765565D01*
X113319085Y-72751399D01*
X112222913Y-72751399D01*
X112079082Y-72765565D01*
X111894540Y-72821545D01*
X111724465Y-72912452D01*
X111575393Y-73034793D01*
X111453052Y-73183865D01*
X111362145Y-73353940D01*
X111306165Y-73538482D01*
X111287263Y-73730399D01*
X111306165Y-73922316D01*
X111362145Y-74106858D01*
X111453052Y-74276933D01*
X111575393Y-74426005D01*
X111724465Y-74548346D01*
X111894540Y-74639253D01*
X112079082Y-74695233D01*
X112222913Y-74709399D01*
X112469365Y-74709399D01*
X112439492Y-74807877D01*
X112429001Y-74914395D01*
X112429001Y-75185608D01*
X112439492Y-75292126D01*
X112480948Y-75428789D01*
X112548270Y-75554738D01*
X112638870Y-75665133D01*
X112749265Y-75755732D01*
X112875214Y-75823054D01*
X113011877Y-75864510D01*
X113154001Y-75878508D01*
X113296126Y-75864510D01*
X113432789Y-75823054D01*
X113558738Y-75755732D01*
X113669133Y-75665133D01*
X113759732Y-75554738D01*
X113827054Y-75428788D01*
X113868510Y-75292125D01*
X113879001Y-75185607D01*
X113879001Y-74914394D01*
X113868510Y-74807876D01*
X113827054Y-74671213D01*
X113773858Y-74571691D01*
X113817533Y-74548346D01*
X113966605Y-74426005D01*
X113975001Y-74415775D01*
X113975000Y-77605761D01*
X113914351Y-77545112D01*
X113807890Y-77473978D01*
X113689598Y-77424979D01*
X113564019Y-77400000D01*
X113435981Y-77400000D01*
X113310402Y-77424979D01*
X113192110Y-77473978D01*
X113085649Y-77545112D01*
X112995112Y-77635649D01*
X112923978Y-77742110D01*
X112874979Y-77860402D01*
X112865841Y-77906341D01*
X112472183Y-78300000D01*
X111050001Y-78300000D01*
X111075021Y-78239598D01*
X111100000Y-78114019D01*
X111100000Y-77985981D01*
X111075021Y-77860402D01*
X111026022Y-77742110D01*
X110954888Y-77635649D01*
X110864351Y-77545112D01*
X110757890Y-77473978D01*
X110639598Y-77424979D01*
X110531243Y-77403426D01*
X101600000Y-68472183D01*
X101600000Y-66250000D01*
X101699728Y-66250000D01*
X101703552Y-66250705D01*
X101753801Y-66250000D01*
X101777018Y-66250000D01*
X101780875Y-66249620D01*
X101784735Y-66249566D01*
X101807717Y-66246976D01*
X101857819Y-66242042D01*
X101860905Y-66241106D01*
X101894014Y-66239712D01*
X101939151Y-66228741D01*
X101984589Y-66219038D01*
X102016618Y-66205241D01*
X102043612Y-66195796D01*
X102077257Y-66186612D01*
X102118812Y-66165877D01*
X102160960Y-66146303D01*
X102189124Y-66125719D01*
X102213325Y-66110512D01*
X102244088Y-66094070D01*
X102280009Y-66064590D01*
X102316724Y-66036144D01*
X102339594Y-66009818D01*
X102359818Y-65989594D01*
X102386144Y-65966724D01*
X102414597Y-65929999D01*
X102444069Y-65894088D01*
X102460508Y-65863333D01*
X102475719Y-65839124D01*
X102496303Y-65810960D01*
X102515873Y-65768820D01*
X102536612Y-65727257D01*
X102545797Y-65693609D01*
X102555240Y-65666622D01*
X102569038Y-65634589D01*
X102578741Y-65589151D01*
X102589712Y-65544014D01*
X102591179Y-65509172D01*
X102594383Y-65480740D01*
X102600705Y-65446448D01*
X102600053Y-65400000D01*
X102600705Y-65353553D01*
X102594382Y-65319257D01*
X102591179Y-65290829D01*
X102589712Y-65255985D01*
X102578743Y-65210855D01*
X102569039Y-65165411D01*
X102555239Y-65133374D01*
X102545797Y-65106390D01*
X102536612Y-65072742D01*
X102515873Y-65031179D01*
X102496303Y-64989039D01*
X102475719Y-64960875D01*
X102460508Y-64936666D01*
X102444069Y-64905911D01*
X102414597Y-64870000D01*
X102386144Y-64833275D01*
X102359818Y-64810405D01*
X102349413Y-64800000D01*
X102359818Y-64789594D01*
X102386144Y-64766724D01*
X102414597Y-64729999D01*
X102444069Y-64694088D01*
X102460508Y-64663333D01*
X102475719Y-64639124D01*
X102496303Y-64610960D01*
X102515873Y-64568820D01*
X102536612Y-64527257D01*
X102545797Y-64493609D01*
X102555240Y-64466622D01*
X102569038Y-64434589D01*
X102578741Y-64389151D01*
X102589712Y-64344014D01*
X102591179Y-64309172D01*
X102594383Y-64280740D01*
X102600705Y-64246448D01*
X102600053Y-64200000D01*
X102600705Y-64153553D01*
X102594382Y-64119257D01*
X102591179Y-64090829D01*
X102589712Y-64055985D01*
X102578743Y-64010855D01*
X102569039Y-63965411D01*
X102555239Y-63933374D01*
X102545797Y-63906390D01*
X102536612Y-63872742D01*
X102515873Y-63831179D01*
X102496303Y-63789039D01*
X102475719Y-63760875D01*
X102460508Y-63736666D01*
X102444069Y-63705911D01*
X102414597Y-63670000D01*
X102386144Y-63633275D01*
X102359818Y-63610405D01*
X102349413Y-63600000D01*
X102359818Y-63589594D01*
X102386144Y-63566724D01*
X102414597Y-63529999D01*
X102444069Y-63494088D01*
X102460508Y-63463333D01*
X102475719Y-63439124D01*
X102496303Y-63410960D01*
X102515873Y-63368820D01*
X102536612Y-63327257D01*
X102545797Y-63293609D01*
X102555240Y-63266622D01*
X102569038Y-63234589D01*
X102578741Y-63189151D01*
X102589712Y-63144014D01*
X102591179Y-63109172D01*
X102594383Y-63080740D01*
X102600705Y-63046448D01*
X102600053Y-63000001D01*
X102600705Y-62953553D01*
X102594382Y-62919257D01*
X102591179Y-62890829D01*
X102589712Y-62855985D01*
X102578743Y-62810855D01*
X102569039Y-62765411D01*
X102555239Y-62733374D01*
X102545797Y-62706390D01*
X102536612Y-62672742D01*
X102515873Y-62631179D01*
X102496303Y-62589039D01*
X102475719Y-62560875D01*
X102460508Y-62536666D01*
X102444069Y-62505911D01*
X102414597Y-62470000D01*
X102386144Y-62433275D01*
X102359818Y-62410405D01*
X102349413Y-62400000D01*
X102359818Y-62389594D01*
X102386144Y-62366724D01*
X102414597Y-62329999D01*
X102444069Y-62294088D01*
X102460508Y-62263333D01*
X102475719Y-62239124D01*
X102496303Y-62210960D01*
X102515873Y-62168820D01*
X102536612Y-62127257D01*
X102545797Y-62093609D01*
X102555240Y-62066622D01*
X102569038Y-62034589D01*
X102578741Y-61989151D01*
X102589712Y-61944014D01*
X102591179Y-61909172D01*
X102594383Y-61880740D01*
X102600705Y-61846448D01*
X102600053Y-61800001D01*
X102600705Y-61753553D01*
X102594382Y-61719257D01*
X102591179Y-61690829D01*
X102589712Y-61655985D01*
X102578743Y-61610855D01*
X102569039Y-61565411D01*
X102555239Y-61533374D01*
X102545797Y-61506390D01*
X102536612Y-61472742D01*
X102515873Y-61431179D01*
X102496303Y-61389039D01*
X102475719Y-61360875D01*
X102460508Y-61336666D01*
X102444069Y-61305911D01*
X102414597Y-61270000D01*
X102386144Y-61233275D01*
X102359818Y-61210405D01*
X102339594Y-61190181D01*
X102316724Y-61163855D01*
X102280009Y-61135409D01*
X102244088Y-61105929D01*
X102213325Y-61089487D01*
X102189124Y-61074280D01*
X102160960Y-61053696D01*
X102118812Y-61034122D01*
X102077257Y-61013387D01*
X102043612Y-61004203D01*
X102016619Y-60994758D01*
X101984581Y-60980958D01*
X101939146Y-60971257D01*
X101894014Y-60960287D01*
X101860901Y-60958893D01*
X101857819Y-60957958D01*
X101807737Y-60953026D01*
X101784727Y-60950433D01*
X101780865Y-60950379D01*
X101777018Y-60950000D01*
X101753838Y-60950000D01*
X101703544Y-60949295D01*
X101699721Y-60950000D01*
X101600000Y-60950000D01*
X101600000Y-55717817D01*
X101705882Y-55611935D01*
X102080000Y-55611935D01*
X102104449Y-55609527D01*
X102129009Y-55609527D01*
X102207422Y-55601804D01*
X102303555Y-55582682D01*
X102378954Y-55559810D01*
X102469510Y-55522301D01*
X102539001Y-55485158D01*
X102620500Y-55430702D01*
X102681408Y-55380716D01*
X102750000Y-55312124D01*
X102750000Y-57322992D01*
X102747340Y-57350000D01*
X102750000Y-57377008D01*
X102750000Y-57377017D01*
X102757958Y-57457818D01*
X102789408Y-57561493D01*
X102840479Y-57657042D01*
X102909210Y-57740790D01*
X102930196Y-57758013D01*
X107655841Y-62483658D01*
X107664979Y-62529598D01*
X107713978Y-62647890D01*
X107785112Y-62754351D01*
X107875649Y-62844888D01*
X107982110Y-62916022D01*
X108061344Y-62948842D01*
X106010187Y-65000000D01*
X103846835Y-65000000D01*
X103807890Y-64973978D01*
X103689598Y-64924979D01*
X103564019Y-64900000D01*
X103435981Y-64900000D01*
X103310402Y-64924979D01*
X103192110Y-64973978D01*
X103085649Y-65045112D01*
X102995112Y-65135649D01*
X102923978Y-65242110D01*
X102874979Y-65360402D01*
X102850000Y-65485981D01*
X102850000Y-65614019D01*
X102874979Y-65739598D01*
X102923978Y-65857890D01*
X102995112Y-65964351D01*
X103085649Y-66054888D01*
X103192110Y-66126022D01*
X103310402Y-66175021D01*
X103435981Y-66200000D01*
X103564019Y-66200000D01*
X103689598Y-66175021D01*
X103807890Y-66126022D01*
X103846835Y-66100000D01*
X105816118Y-66100000D01*
X104991118Y-66925000D01*
X104589649Y-66925000D01*
X104589598Y-66924979D01*
X104464019Y-66900000D01*
X104335981Y-66900000D01*
X104210402Y-66924979D01*
X104092110Y-66973978D01*
X103985649Y-67045112D01*
X103895112Y-67135649D01*
X103823978Y-67242110D01*
X103774979Y-67360402D01*
X103750000Y-67485981D01*
X103750000Y-67614019D01*
X103774979Y-67739598D01*
X103823978Y-67857890D01*
X103895112Y-67964351D01*
X103985649Y-68054888D01*
X104092110Y-68126022D01*
X104210402Y-68175021D01*
X104335981Y-68200000D01*
X104464019Y-68200000D01*
X104589598Y-68175021D01*
X104589649Y-68175000D01*
X105219306Y-68175000D01*
X105250000Y-68178023D01*
X105280694Y-68175000D01*
X105280704Y-68175000D01*
X105372521Y-68165957D01*
X105490334Y-68130219D01*
X105598911Y-68072183D01*
X105694080Y-67994080D01*
X105713658Y-67970224D01*
X105824785Y-67859097D01*
X105895112Y-67964351D01*
X105985649Y-68054888D01*
X106092110Y-68126022D01*
X106210402Y-68175021D01*
X106335981Y-68200000D01*
X106464019Y-68200000D01*
X106589598Y-68175021D01*
X106707890Y-68126022D01*
X106814351Y-68054888D01*
X106904888Y-67964351D01*
X106976022Y-67857890D01*
X107025021Y-67739598D01*
X107034159Y-67693658D01*
X118275001Y-56452817D01*
X118275000Y-84105887D01*
X118229911Y-84060798D01*
X117836826Y-83798147D01*
X117400054Y-83617230D01*
X116936379Y-83525000D01*
X116463621Y-83525000D01*
X115999946Y-83617230D01*
X115563174Y-83798147D01*
X115170089Y-84060798D01*
X114835798Y-84395089D01*
X114573147Y-84788174D01*
X114392230Y-85224946D01*
X114300000Y-85688621D01*
X114300000Y-86161379D01*
X114392230Y-86625054D01*
X114573147Y-87061826D01*
X114835798Y-87454911D01*
X114880887Y-87500000D01*
X99019113Y-87500000D01*
X99064202Y-87454911D01*
X99326853Y-87061826D01*
X99507770Y-86625054D01*
X99600000Y-86161379D01*
X99600000Y-85688621D01*
X99507770Y-85224946D01*
X99326853Y-84788174D01*
X99064202Y-84395089D01*
X98729911Y-84060798D01*
X98336826Y-83798147D01*
X97900054Y-83617230D01*
X97436379Y-83525000D01*
X96963621Y-83525000D01*
X96499946Y-83617230D01*
X96063174Y-83798147D01*
X95670089Y-84060798D01*
X95625000Y-84105887D01*
X95625000Y-66085981D01*
X97350000Y-66085981D01*
X97350000Y-66214019D01*
X97374979Y-66339598D01*
X97423978Y-66457890D01*
X97450001Y-66496837D01*
X97450000Y-69503165D01*
X97423978Y-69542110D01*
X97374979Y-69660402D01*
X97350000Y-69785981D01*
X97350000Y-69914019D01*
X97374979Y-70039598D01*
X97423978Y-70157890D01*
X97495112Y-70264351D01*
X97585649Y-70354888D01*
X97692110Y-70426022D01*
X97810402Y-70475021D01*
X97935981Y-70500000D01*
X98064019Y-70500000D01*
X98189598Y-70475021D01*
X98307890Y-70426022D01*
X98414351Y-70354888D01*
X98504888Y-70264351D01*
X98576022Y-70157890D01*
X98625021Y-70039598D01*
X98650000Y-69914019D01*
X98650000Y-69785981D01*
X98625021Y-69660402D01*
X98576022Y-69542110D01*
X98550000Y-69503165D01*
X98550000Y-66496835D01*
X98576022Y-66457890D01*
X98625021Y-66339598D01*
X98650000Y-66214019D01*
X98650000Y-66085981D01*
X98625021Y-65960402D01*
X98576022Y-65842110D01*
X98504888Y-65735649D01*
X98414351Y-65645112D01*
X98307890Y-65573978D01*
X98189598Y-65524979D01*
X98064019Y-65500000D01*
X97935981Y-65500000D01*
X97810402Y-65524979D01*
X97692110Y-65573978D01*
X97585649Y-65645112D01*
X97495112Y-65735649D01*
X97423978Y-65842110D01*
X97374979Y-65960402D01*
X97350000Y-66085981D01*
X95625000Y-66085981D01*
X95625000Y-46300000D01*
X96712252Y-46300000D01*
X96963621Y-46350000D01*
G37*
X96963621Y-46350000D02*
X97436379Y-46350000D01*
X97687748Y-46300000D01*
X104475000Y-46300000D01*
X104475001Y-52150896D01*
X104458013Y-52130196D01*
X104440790Y-52109210D01*
X104419804Y-52091987D01*
X102284159Y-49956342D01*
X102275021Y-49910402D01*
X102226022Y-49792110D01*
X102154888Y-49685649D01*
X102064351Y-49595112D01*
X101957890Y-49523978D01*
X101839598Y-49474979D01*
X101725528Y-49452289D01*
X102493659Y-48684159D01*
X102539598Y-48675021D01*
X102657890Y-48626022D01*
X102764351Y-48554888D01*
X102854888Y-48464351D01*
X102926022Y-48357890D01*
X102975021Y-48239598D01*
X103000000Y-48114019D01*
X103000000Y-47985981D01*
X102975021Y-47860402D01*
X102926022Y-47742110D01*
X102854888Y-47635649D01*
X102764351Y-47545112D01*
X102657890Y-47473978D01*
X102539598Y-47424979D01*
X102493456Y-47415801D01*
X102525021Y-47339598D01*
X102550000Y-47214019D01*
X102550000Y-47085981D01*
X102525021Y-46960402D01*
X102476022Y-46842110D01*
X102404888Y-46735649D01*
X102314351Y-46645112D01*
X102207890Y-46573978D01*
X102089598Y-46524979D01*
X101964019Y-46500000D01*
X101835981Y-46500000D01*
X101710402Y-46524979D01*
X101592110Y-46573978D01*
X101485649Y-46645112D01*
X101395112Y-46735649D01*
X101323978Y-46842110D01*
X101274979Y-46960402D01*
X101265841Y-47006341D01*
X99580196Y-48691987D01*
X99559210Y-48709210D01*
X99490479Y-48792958D01*
X99439408Y-48888507D01*
X99407958Y-48992182D01*
X99400000Y-49072983D01*
X99400000Y-49072992D01*
X99397340Y-49100000D01*
X99400000Y-49127008D01*
X99400001Y-51553163D01*
X99373978Y-51592110D01*
X99324979Y-51710402D01*
X99300000Y-51835981D01*
X99300000Y-51964019D01*
X99324979Y-52089598D01*
X99373978Y-52207890D01*
X99400000Y-52246835D01*
X99400000Y-52492182D01*
X99384117Y-52508065D01*
X99010000Y-52508065D01*
X98985551Y-52510473D01*
X98960991Y-52510473D01*
X98882578Y-52518196D01*
X98786445Y-52537318D01*
X98711046Y-52560190D01*
X98620490Y-52597699D01*
X98550999Y-52634842D01*
X98469500Y-52689298D01*
X98408592Y-52739284D01*
X98339284Y-52808592D01*
X98289298Y-52869500D01*
X98234842Y-52950999D01*
X98197699Y-53020490D01*
X98160190Y-53111046D01*
X98137318Y-53186445D01*
X98118196Y-53282578D01*
X98110473Y-53360991D01*
X98110473Y-53385551D01*
X98108065Y-53410000D01*
X98108065Y-53910000D01*
X98115788Y-53988414D01*
X98137503Y-54060000D01*
X98115788Y-54131586D01*
X98108065Y-54210000D01*
X98108065Y-54710000D01*
X98110473Y-54734449D01*
X98110473Y-54759009D01*
X98118196Y-54837422D01*
X98137318Y-54933555D01*
X98160190Y-55008954D01*
X98197699Y-55099510D01*
X98234842Y-55169001D01*
X98289298Y-55250500D01*
X98339284Y-55311408D01*
X98408592Y-55380716D01*
X98469500Y-55430702D01*
X98550999Y-55485158D01*
X98620490Y-55522301D01*
X98711046Y-55559810D01*
X98786445Y-55582682D01*
X98882578Y-55601804D01*
X98960991Y-55609527D01*
X98985551Y-55609527D01*
X99010000Y-55611935D01*
X99384117Y-55611935D01*
X99520001Y-55747819D01*
X99520000Y-68842992D01*
X99517340Y-68870000D01*
X99520000Y-68897008D01*
X99520000Y-68897017D01*
X99527958Y-68977818D01*
X99559408Y-69081493D01*
X99610479Y-69177042D01*
X99679210Y-69260790D01*
X99700196Y-69278013D01*
X109641992Y-79219810D01*
X109659210Y-79240790D01*
X109680190Y-79258008D01*
X109680195Y-79258013D01*
X109732097Y-79300607D01*
X109742958Y-79309521D01*
X109838506Y-79360592D01*
X109942181Y-79392042D01*
X110022982Y-79400000D01*
X110022991Y-79400000D01*
X110049999Y-79402660D01*
X110077007Y-79400000D01*
X112672992Y-79400000D01*
X112700000Y-79402660D01*
X112727008Y-79400000D01*
X112727018Y-79400000D01*
X112807819Y-79392042D01*
X112911494Y-79360592D01*
X113007042Y-79309521D01*
X113090790Y-79240790D01*
X113108013Y-79219804D01*
X113643659Y-78684159D01*
X113689598Y-78675021D01*
X113807890Y-78626022D01*
X113914351Y-78554888D01*
X113975000Y-78494239D01*
X113975000Y-81684625D01*
X113966605Y-81674396D01*
X113817533Y-81552055D01*
X113723921Y-81502018D01*
X113796487Y-81393416D01*
X113851139Y-81261475D01*
X113879000Y-81121406D01*
X113879000Y-80978594D01*
X113851139Y-80838525D01*
X113796487Y-80706584D01*
X113717144Y-80587839D01*
X113616161Y-80486856D01*
X113497416Y-80407513D01*
X113365475Y-80352861D01*
X113225406Y-80325000D01*
X113082594Y-80325000D01*
X112942525Y-80352861D01*
X112810584Y-80407513D01*
X112691839Y-80486856D01*
X112590856Y-80587839D01*
X112511513Y-80706584D01*
X112456861Y-80838525D01*
X112429000Y-80978594D01*
X112429000Y-81121406D01*
X112456861Y-81261475D01*
X112510513Y-81391002D01*
X112222913Y-81391002D01*
X112079082Y-81405168D01*
X111894540Y-81461148D01*
X111724465Y-81552055D01*
X111575393Y-81674396D01*
X111453052Y-81823468D01*
X111362145Y-81993543D01*
X111306165Y-82178085D01*
X111287263Y-82370002D01*
X111306165Y-82561919D01*
X111362145Y-82746461D01*
X111453052Y-82916536D01*
X111575393Y-83065608D01*
X111724465Y-83187949D01*
X111894540Y-83278856D01*
X112079082Y-83334836D01*
X112222913Y-83349002D01*
X113319085Y-83349002D01*
X113462916Y-83334836D01*
X113647458Y-83278856D01*
X113817533Y-83187949D01*
X113966605Y-83065608D01*
X113975000Y-83055379D01*
X113975000Y-83091117D01*
X113091118Y-83975000D01*
X107189649Y-83975000D01*
X107189598Y-83974979D01*
X107064019Y-83950000D01*
X106935981Y-83950000D01*
X106810402Y-83974979D01*
X106692110Y-84023978D01*
X106585649Y-84095112D01*
X106495112Y-84185649D01*
X106423978Y-84292110D01*
X106374979Y-84410402D01*
X106350000Y-84535981D01*
X106350000Y-84664019D01*
X106374979Y-84789598D01*
X106423978Y-84907890D01*
X106495112Y-85014351D01*
X106585649Y-85104888D01*
X106692110Y-85176022D01*
X106810402Y-85225021D01*
X106935981Y-85250000D01*
X107064019Y-85250000D01*
X107189598Y-85225021D01*
X107189649Y-85225000D01*
X113319306Y-85225000D01*
X113350000Y-85228023D01*
X113380694Y-85225000D01*
X113380704Y-85225000D01*
X113472521Y-85215957D01*
X113590334Y-85180219D01*
X113698911Y-85122183D01*
X113794080Y-85044080D01*
X113813658Y-85020224D01*
X115020230Y-83813653D01*
X115044080Y-83794080D01*
X115122183Y-83698911D01*
X115180219Y-83590334D01*
X115215957Y-83472521D01*
X115225000Y-83380704D01*
X115225000Y-83380694D01*
X115228023Y-83350000D01*
X115225000Y-83319306D01*
X115225000Y-83034666D01*
X115250394Y-83065608D01*
X115399466Y-83187949D01*
X115569541Y-83278856D01*
X115754083Y-83334836D01*
X115897914Y-83349002D01*
X117294086Y-83349002D01*
X117437917Y-83334836D01*
X117622459Y-83278856D01*
X117792534Y-83187949D01*
X117941606Y-83065608D01*
X118063947Y-82916536D01*
X118154854Y-82746461D01*
X118210834Y-82561919D01*
X118229736Y-82370002D01*
X118210834Y-82178085D01*
X118154854Y-81993543D01*
X118063947Y-81823468D01*
X117941606Y-81674396D01*
X117792534Y-81552055D01*
X117622459Y-81461148D01*
X117437917Y-81405168D01*
X117294086Y-81391002D01*
X115897914Y-81391002D01*
X115754083Y-81405168D01*
X115569541Y-81461148D01*
X115399466Y-81552055D01*
X115250394Y-81674396D01*
X115225000Y-81705338D01*
X115225000Y-74394663D01*
X115250394Y-74425605D01*
X115399466Y-74547946D01*
X115569541Y-74638853D01*
X115754083Y-74694833D01*
X115897914Y-74708999D01*
X117294086Y-74708999D01*
X117437917Y-74694833D01*
X117622459Y-74638853D01*
X117792534Y-74547946D01*
X117941606Y-74425605D01*
X118063947Y-74276533D01*
X118154854Y-74106458D01*
X118210834Y-73921916D01*
X118229736Y-73729999D01*
X118210834Y-73538082D01*
X118154854Y-73353540D01*
X118063947Y-73183465D01*
X117941606Y-73034393D01*
X117792534Y-72912052D01*
X117622459Y-72821145D01*
X117437917Y-72765165D01*
X117294086Y-72750999D01*
X115897914Y-72750999D01*
X115754083Y-72765165D01*
X115569541Y-72821145D01*
X115399466Y-72912052D01*
X115250394Y-73034393D01*
X115225000Y-73065335D01*
X115225000Y-66407870D01*
X115285981Y-66420000D01*
X115414019Y-66420000D01*
X115539598Y-66395021D01*
X115657890Y-66346022D01*
X115764351Y-66274888D01*
X115854888Y-66184351D01*
X115926022Y-66077890D01*
X115975021Y-65959598D01*
X116000000Y-65834019D01*
X116000000Y-65705981D01*
X115975021Y-65580402D01*
X115926022Y-65462110D01*
X115854888Y-65355649D01*
X115764351Y-65265112D01*
X115657890Y-65193978D01*
X115539598Y-65144979D01*
X115414019Y-65120000D01*
X115285981Y-65120000D01*
X115160402Y-65144979D01*
X115160351Y-65145000D01*
X114604647Y-65145000D01*
X114604596Y-65144979D01*
X114479017Y-65120000D01*
X114350979Y-65120000D01*
X114225400Y-65144979D01*
X114107108Y-65193978D01*
X114000647Y-65265112D01*
X113910110Y-65355649D01*
X113838976Y-65462110D01*
X113789977Y-65580402D01*
X113764998Y-65705981D01*
X113764998Y-65834019D01*
X113789977Y-65959598D01*
X113838976Y-66077890D01*
X113910110Y-66184351D01*
X113975001Y-66249242D01*
X113975001Y-73045023D01*
X113966605Y-73034793D01*
X113817533Y-72912452D01*
X113647458Y-72821545D01*
X113462916Y-72765565D01*
X113319085Y-72751399D01*
X112222913Y-72751399D01*
X112079082Y-72765565D01*
X111894540Y-72821545D01*
X111724465Y-72912452D01*
X111575393Y-73034793D01*
X111453052Y-73183865D01*
X111362145Y-73353940D01*
X111306165Y-73538482D01*
X111287263Y-73730399D01*
X111306165Y-73922316D01*
X111362145Y-74106858D01*
X111453052Y-74276933D01*
X111575393Y-74426005D01*
X111724465Y-74548346D01*
X111894540Y-74639253D01*
X112079082Y-74695233D01*
X112222913Y-74709399D01*
X112469365Y-74709399D01*
X112439492Y-74807877D01*
X112429001Y-74914395D01*
X112429001Y-75185608D01*
X112439492Y-75292126D01*
X112480948Y-75428789D01*
X112548270Y-75554738D01*
X112638870Y-75665133D01*
X112749265Y-75755732D01*
X112875214Y-75823054D01*
X113011877Y-75864510D01*
X113154001Y-75878508D01*
X113296126Y-75864510D01*
X113432789Y-75823054D01*
X113558738Y-75755732D01*
X113669133Y-75665133D01*
X113759732Y-75554738D01*
X113827054Y-75428788D01*
X113868510Y-75292125D01*
X113879001Y-75185607D01*
X113879001Y-74914394D01*
X113868510Y-74807876D01*
X113827054Y-74671213D01*
X113773858Y-74571691D01*
X113817533Y-74548346D01*
X113966605Y-74426005D01*
X113975001Y-74415775D01*
X113975000Y-77605761D01*
X113914351Y-77545112D01*
X113807890Y-77473978D01*
X113689598Y-77424979D01*
X113564019Y-77400000D01*
X113435981Y-77400000D01*
X113310402Y-77424979D01*
X113192110Y-77473978D01*
X113085649Y-77545112D01*
X112995112Y-77635649D01*
X112923978Y-77742110D01*
X112874979Y-77860402D01*
X112865841Y-77906341D01*
X112472183Y-78300000D01*
X111050001Y-78300000D01*
X111075021Y-78239598D01*
X111100000Y-78114019D01*
X111100000Y-77985981D01*
X111075021Y-77860402D01*
X111026022Y-77742110D01*
X110954888Y-77635649D01*
X110864351Y-77545112D01*
X110757890Y-77473978D01*
X110639598Y-77424979D01*
X110531243Y-77403426D01*
X101600000Y-68472183D01*
X101600000Y-66250000D01*
X101699728Y-66250000D01*
X101703552Y-66250705D01*
X101753801Y-66250000D01*
X101777018Y-66250000D01*
X101780875Y-66249620D01*
X101784735Y-66249566D01*
X101807717Y-66246976D01*
X101857819Y-66242042D01*
X101860905Y-66241106D01*
X101894014Y-66239712D01*
X101939151Y-66228741D01*
X101984589Y-66219038D01*
X102016618Y-66205241D01*
X102043612Y-66195796D01*
X102077257Y-66186612D01*
X102118812Y-66165877D01*
X102160960Y-66146303D01*
X102189124Y-66125719D01*
X102213325Y-66110512D01*
X102244088Y-66094070D01*
X102280009Y-66064590D01*
X102316724Y-66036144D01*
X102339594Y-66009818D01*
X102359818Y-65989594D01*
X102386144Y-65966724D01*
X102414597Y-65929999D01*
X102444069Y-65894088D01*
X102460508Y-65863333D01*
X102475719Y-65839124D01*
X102496303Y-65810960D01*
X102515873Y-65768820D01*
X102536612Y-65727257D01*
X102545797Y-65693609D01*
X102555240Y-65666622D01*
X102569038Y-65634589D01*
X102578741Y-65589151D01*
X102589712Y-65544014D01*
X102591179Y-65509172D01*
X102594383Y-65480740D01*
X102600705Y-65446448D01*
X102600053Y-65400000D01*
X102600705Y-65353553D01*
X102594382Y-65319257D01*
X102591179Y-65290829D01*
X102589712Y-65255985D01*
X102578743Y-65210855D01*
X102569039Y-65165411D01*
X102555239Y-65133374D01*
X102545797Y-65106390D01*
X102536612Y-65072742D01*
X102515873Y-65031179D01*
X102496303Y-64989039D01*
X102475719Y-64960875D01*
X102460508Y-64936666D01*
X102444069Y-64905911D01*
X102414597Y-64870000D01*
X102386144Y-64833275D01*
X102359818Y-64810405D01*
X102349413Y-64800000D01*
X102359818Y-64789594D01*
X102386144Y-64766724D01*
X102414597Y-64729999D01*
X102444069Y-64694088D01*
X102460508Y-64663333D01*
X102475719Y-64639124D01*
X102496303Y-64610960D01*
X102515873Y-64568820D01*
X102536612Y-64527257D01*
X102545797Y-64493609D01*
X102555240Y-64466622D01*
X102569038Y-64434589D01*
X102578741Y-64389151D01*
X102589712Y-64344014D01*
X102591179Y-64309172D01*
X102594383Y-64280740D01*
X102600705Y-64246448D01*
X102600053Y-64200000D01*
X102600705Y-64153553D01*
X102594382Y-64119257D01*
X102591179Y-64090829D01*
X102589712Y-64055985D01*
X102578743Y-64010855D01*
X102569039Y-63965411D01*
X102555239Y-63933374D01*
X102545797Y-63906390D01*
X102536612Y-63872742D01*
X102515873Y-63831179D01*
X102496303Y-63789039D01*
X102475719Y-63760875D01*
X102460508Y-63736666D01*
X102444069Y-63705911D01*
X102414597Y-63670000D01*
X102386144Y-63633275D01*
X102359818Y-63610405D01*
X102349413Y-63600000D01*
X102359818Y-63589594D01*
X102386144Y-63566724D01*
X102414597Y-63529999D01*
X102444069Y-63494088D01*
X102460508Y-63463333D01*
X102475719Y-63439124D01*
X102496303Y-63410960D01*
X102515873Y-63368820D01*
X102536612Y-63327257D01*
X102545797Y-63293609D01*
X102555240Y-63266622D01*
X102569038Y-63234589D01*
X102578741Y-63189151D01*
X102589712Y-63144014D01*
X102591179Y-63109172D01*
X102594383Y-63080740D01*
X102600705Y-63046448D01*
X102600053Y-63000001D01*
X102600705Y-62953553D01*
X102594382Y-62919257D01*
X102591179Y-62890829D01*
X102589712Y-62855985D01*
X102578743Y-62810855D01*
X102569039Y-62765411D01*
X102555239Y-62733374D01*
X102545797Y-62706390D01*
X102536612Y-62672742D01*
X102515873Y-62631179D01*
X102496303Y-62589039D01*
X102475719Y-62560875D01*
X102460508Y-62536666D01*
X102444069Y-62505911D01*
X102414597Y-62470000D01*
X102386144Y-62433275D01*
X102359818Y-62410405D01*
X102349413Y-62400000D01*
X102359818Y-62389594D01*
X102386144Y-62366724D01*
X102414597Y-62329999D01*
X102444069Y-62294088D01*
X102460508Y-62263333D01*
X102475719Y-62239124D01*
X102496303Y-62210960D01*
X102515873Y-62168820D01*
X102536612Y-62127257D01*
X102545797Y-62093609D01*
X102555240Y-62066622D01*
X102569038Y-62034589D01*
X102578741Y-61989151D01*
X102589712Y-61944014D01*
X102591179Y-61909172D01*
X102594383Y-61880740D01*
X102600705Y-61846448D01*
X102600053Y-61800001D01*
X102600705Y-61753553D01*
X102594382Y-61719257D01*
X102591179Y-61690829D01*
X102589712Y-61655985D01*
X102578743Y-61610855D01*
X102569039Y-61565411D01*
X102555239Y-61533374D01*
X102545797Y-61506390D01*
X102536612Y-61472742D01*
X102515873Y-61431179D01*
X102496303Y-61389039D01*
X102475719Y-61360875D01*
X102460508Y-61336666D01*
X102444069Y-61305911D01*
X102414597Y-61270000D01*
X102386144Y-61233275D01*
X102359818Y-61210405D01*
X102339594Y-61190181D01*
X102316724Y-61163855D01*
X102280009Y-61135409D01*
X102244088Y-61105929D01*
X102213325Y-61089487D01*
X102189124Y-61074280D01*
X102160960Y-61053696D01*
X102118812Y-61034122D01*
X102077257Y-61013387D01*
X102043612Y-61004203D01*
X102016619Y-60994758D01*
X101984581Y-60980958D01*
X101939146Y-60971257D01*
X101894014Y-60960287D01*
X101860901Y-60958893D01*
X101857819Y-60957958D01*
X101807737Y-60953026D01*
X101784727Y-60950433D01*
X101780865Y-60950379D01*
X101777018Y-60950000D01*
X101753838Y-60950000D01*
X101703544Y-60949295D01*
X101699721Y-60950000D01*
X101600000Y-60950000D01*
X101600000Y-55717817D01*
X101705882Y-55611935D01*
X102080000Y-55611935D01*
X102104449Y-55609527D01*
X102129009Y-55609527D01*
X102207422Y-55601804D01*
X102303555Y-55582682D01*
X102378954Y-55559810D01*
X102469510Y-55522301D01*
X102539001Y-55485158D01*
X102620500Y-55430702D01*
X102681408Y-55380716D01*
X102750000Y-55312124D01*
X102750000Y-57322992D01*
X102747340Y-57350000D01*
X102750000Y-57377008D01*
X102750000Y-57377017D01*
X102757958Y-57457818D01*
X102789408Y-57561493D01*
X102840479Y-57657042D01*
X102909210Y-57740790D01*
X102930196Y-57758013D01*
X107655841Y-62483658D01*
X107664979Y-62529598D01*
X107713978Y-62647890D01*
X107785112Y-62754351D01*
X107875649Y-62844888D01*
X107982110Y-62916022D01*
X108061344Y-62948842D01*
X106010187Y-65000000D01*
X103846835Y-65000000D01*
X103807890Y-64973978D01*
X103689598Y-64924979D01*
X103564019Y-64900000D01*
X103435981Y-64900000D01*
X103310402Y-64924979D01*
X103192110Y-64973978D01*
X103085649Y-65045112D01*
X102995112Y-65135649D01*
X102923978Y-65242110D01*
X102874979Y-65360402D01*
X102850000Y-65485981D01*
X102850000Y-65614019D01*
X102874979Y-65739598D01*
X102923978Y-65857890D01*
X102995112Y-65964351D01*
X103085649Y-66054888D01*
X103192110Y-66126022D01*
X103310402Y-66175021D01*
X103435981Y-66200000D01*
X103564019Y-66200000D01*
X103689598Y-66175021D01*
X103807890Y-66126022D01*
X103846835Y-66100000D01*
X105816118Y-66100000D01*
X104991118Y-66925000D01*
X104589649Y-66925000D01*
X104589598Y-66924979D01*
X104464019Y-66900000D01*
X104335981Y-66900000D01*
X104210402Y-66924979D01*
X104092110Y-66973978D01*
X103985649Y-67045112D01*
X103895112Y-67135649D01*
X103823978Y-67242110D01*
X103774979Y-67360402D01*
X103750000Y-67485981D01*
X103750000Y-67614019D01*
X103774979Y-67739598D01*
X103823978Y-67857890D01*
X103895112Y-67964351D01*
X103985649Y-68054888D01*
X104092110Y-68126022D01*
X104210402Y-68175021D01*
X104335981Y-68200000D01*
X104464019Y-68200000D01*
X104589598Y-68175021D01*
X104589649Y-68175000D01*
X105219306Y-68175000D01*
X105250000Y-68178023D01*
X105280694Y-68175000D01*
X105280704Y-68175000D01*
X105372521Y-68165957D01*
X105490334Y-68130219D01*
X105598911Y-68072183D01*
X105694080Y-67994080D01*
X105713658Y-67970224D01*
X105824785Y-67859097D01*
X105895112Y-67964351D01*
X105985649Y-68054888D01*
X106092110Y-68126022D01*
X106210402Y-68175021D01*
X106335981Y-68200000D01*
X106464019Y-68200000D01*
X106589598Y-68175021D01*
X106707890Y-68126022D01*
X106814351Y-68054888D01*
X106904888Y-67964351D01*
X106976022Y-67857890D01*
X107025021Y-67739598D01*
X107034159Y-67693658D01*
X118275001Y-56452817D01*
X118275000Y-84105887D01*
X118229911Y-84060798D01*
X117836826Y-83798147D01*
X117400054Y-83617230D01*
X116936379Y-83525000D01*
X116463621Y-83525000D01*
X115999946Y-83617230D01*
X115563174Y-83798147D01*
X115170089Y-84060798D01*
X114835798Y-84395089D01*
X114573147Y-84788174D01*
X114392230Y-85224946D01*
X114300000Y-85688621D01*
X114300000Y-86161379D01*
X114392230Y-86625054D01*
X114573147Y-87061826D01*
X114835798Y-87454911D01*
X114880887Y-87500000D01*
X99019113Y-87500000D01*
X99064202Y-87454911D01*
X99326853Y-87061826D01*
X99507770Y-86625054D01*
X99600000Y-86161379D01*
X99600000Y-85688621D01*
X99507770Y-85224946D01*
X99326853Y-84788174D01*
X99064202Y-84395089D01*
X98729911Y-84060798D01*
X98336826Y-83798147D01*
X97900054Y-83617230D01*
X97436379Y-83525000D01*
X96963621Y-83525000D01*
X96499946Y-83617230D01*
X96063174Y-83798147D01*
X95670089Y-84060798D01*
X95625000Y-84105887D01*
X95625000Y-66085981D01*
X97350000Y-66085981D01*
X97350000Y-66214019D01*
X97374979Y-66339598D01*
X97423978Y-66457890D01*
X97450001Y-66496837D01*
X97450000Y-69503165D01*
X97423978Y-69542110D01*
X97374979Y-69660402D01*
X97350000Y-69785981D01*
X97350000Y-69914019D01*
X97374979Y-70039598D01*
X97423978Y-70157890D01*
X97495112Y-70264351D01*
X97585649Y-70354888D01*
X97692110Y-70426022D01*
X97810402Y-70475021D01*
X97935981Y-70500000D01*
X98064019Y-70500000D01*
X98189598Y-70475021D01*
X98307890Y-70426022D01*
X98414351Y-70354888D01*
X98504888Y-70264351D01*
X98576022Y-70157890D01*
X98625021Y-70039598D01*
X98650000Y-69914019D01*
X98650000Y-69785981D01*
X98625021Y-69660402D01*
X98576022Y-69542110D01*
X98550000Y-69503165D01*
X98550000Y-66496835D01*
X98576022Y-66457890D01*
X98625021Y-66339598D01*
X98650000Y-66214019D01*
X98650000Y-66085981D01*
X98625021Y-65960402D01*
X98576022Y-65842110D01*
X98504888Y-65735649D01*
X98414351Y-65645112D01*
X98307890Y-65573978D01*
X98189598Y-65524979D01*
X98064019Y-65500000D01*
X97935981Y-65500000D01*
X97810402Y-65524979D01*
X97692110Y-65573978D01*
X97585649Y-65645112D01*
X97495112Y-65735649D01*
X97423978Y-65842110D01*
X97374979Y-65960402D01*
X97350000Y-66085981D01*
X95625000Y-66085981D01*
X95625000Y-46300000D01*
X96712252Y-46300000D01*
X96963621Y-46350000D01*
G36*
X116463621Y-46350000D02*
G01*
X116936379Y-46350000D01*
X117187748Y-46300000D01*
X118275001Y-46300000D01*
X118275001Y-50958778D01*
X118237890Y-50933982D01*
X118119598Y-50884983D01*
X117994019Y-50860004D01*
X117865981Y-50860004D01*
X117740402Y-50884983D01*
X117622110Y-50933982D01*
X117515649Y-51005116D01*
X117425112Y-51095653D01*
X117353978Y-51202114D01*
X117304979Y-51320406D01*
X117280000Y-51445985D01*
X117280000Y-51574023D01*
X117304979Y-51699602D01*
X117353978Y-51817894D01*
X117380001Y-51856841D01*
X117380000Y-55792182D01*
X116375000Y-56797182D01*
X116375000Y-55799651D01*
X116375021Y-55799600D01*
X116400000Y-55674021D01*
X116400000Y-55545983D01*
X116375021Y-55420404D01*
X116375000Y-55420353D01*
X116375000Y-53230693D01*
X116378023Y-53199999D01*
X116375000Y-53169305D01*
X116375000Y-53169296D01*
X116365957Y-53077479D01*
X116330219Y-52959666D01*
X116330218Y-52959664D01*
X116272182Y-52851087D01*
X116233273Y-52803677D01*
X116194080Y-52755920D01*
X116170229Y-52736346D01*
X115722292Y-52288409D01*
X115789598Y-52275021D01*
X115907890Y-52226022D01*
X116014351Y-52154888D01*
X116104888Y-52064351D01*
X116176022Y-51957890D01*
X116225021Y-51839598D01*
X116250000Y-51714019D01*
X116250000Y-51585981D01*
X116225021Y-51460402D01*
X116176022Y-51342110D01*
X116104888Y-51235649D01*
X116014351Y-51145112D01*
X115907890Y-51073978D01*
X115789598Y-51024979D01*
X115664019Y-51000000D01*
X115535981Y-51000000D01*
X115410402Y-51024979D01*
X115292110Y-51073978D01*
X115185649Y-51145112D01*
X115095112Y-51235649D01*
X115023978Y-51342110D01*
X114974979Y-51460402D01*
X114961591Y-51527709D01*
X114276043Y-50842161D01*
X114276022Y-50842110D01*
X114204888Y-50735649D01*
X114114351Y-50645112D01*
X114007890Y-50573978D01*
X113889598Y-50524979D01*
X113764019Y-50500000D01*
X113635981Y-50500000D01*
X113510402Y-50524979D01*
X113392110Y-50573978D01*
X113285649Y-50645112D01*
X113195112Y-50735649D01*
X113123978Y-50842110D01*
X113074979Y-50960402D01*
X113050000Y-51085981D01*
X113050000Y-51214019D01*
X113074979Y-51339598D01*
X113123978Y-51457890D01*
X113195112Y-51564351D01*
X113285649Y-51654888D01*
X113392110Y-51726022D01*
X113392161Y-51726043D01*
X113536347Y-51870229D01*
X115125001Y-53458884D01*
X115125000Y-55420353D01*
X115124979Y-55420404D01*
X115100000Y-55545983D01*
X115100000Y-55674021D01*
X115124979Y-55799600D01*
X115125000Y-55799651D01*
X115125000Y-56064969D01*
X115125001Y-56064979D01*
X115125000Y-56791116D01*
X114550000Y-57366116D01*
X114550000Y-54446835D01*
X114576022Y-54407890D01*
X114625021Y-54289598D01*
X114650000Y-54164019D01*
X114650000Y-54035981D01*
X114625021Y-53910402D01*
X114576022Y-53792110D01*
X114504888Y-53685649D01*
X114414351Y-53595112D01*
X114307890Y-53523978D01*
X114189598Y-53474979D01*
X114064019Y-53450000D01*
X113935981Y-53450000D01*
X113810402Y-53474979D01*
X113692110Y-53523978D01*
X113585649Y-53595112D01*
X113495112Y-53685649D01*
X113423978Y-53792110D01*
X113374979Y-53910402D01*
X113350000Y-54035981D01*
X113350000Y-54164019D01*
X113374979Y-54289598D01*
X113423978Y-54407890D01*
X113450000Y-54446835D01*
X113450001Y-57560185D01*
X108898842Y-62111344D01*
X108866022Y-62032110D01*
X108794888Y-61925649D01*
X108704351Y-61835112D01*
X108597890Y-61763978D01*
X108479598Y-61714979D01*
X108433658Y-61705841D01*
X103850000Y-57122183D01*
X103850000Y-54627825D01*
X104265833Y-55043659D01*
X104274971Y-55089598D01*
X104323970Y-55207890D01*
X104395104Y-55314351D01*
X104485641Y-55404888D01*
X104592102Y-55476022D01*
X104710394Y-55525021D01*
X104835973Y-55550000D01*
X104964011Y-55550000D01*
X105089590Y-55525021D01*
X105207882Y-55476022D01*
X105314343Y-55404888D01*
X105404880Y-55314351D01*
X105476014Y-55207890D01*
X105525013Y-55089598D01*
X105549992Y-54964019D01*
X105549992Y-54835981D01*
X105525013Y-54710402D01*
X105476014Y-54592110D01*
X105404880Y-54485649D01*
X105314343Y-54395112D01*
X105207882Y-54323978D01*
X105089590Y-54274979D01*
X105043651Y-54265841D01*
X104849934Y-54072125D01*
X104879126Y-54075000D01*
X104900000Y-54077056D01*
X104920874Y-54075000D01*
X108979126Y-54075000D01*
X109000000Y-54077056D01*
X109020874Y-54075000D01*
X109083314Y-54068850D01*
X109163427Y-54044548D01*
X109237260Y-54005084D01*
X109301974Y-53951974D01*
X109355084Y-53887260D01*
X109394548Y-53813427D01*
X109418850Y-53733314D01*
X109427056Y-53650000D01*
X109425000Y-53629126D01*
X109425000Y-46300000D01*
X116212252Y-46300000D01*
X116463621Y-46350000D01*
G37*
X116463621Y-46350000D02*
X116936379Y-46350000D01*
X117187748Y-46300000D01*
X118275001Y-46300000D01*
X118275001Y-50958778D01*
X118237890Y-50933982D01*
X118119598Y-50884983D01*
X117994019Y-50860004D01*
X117865981Y-50860004D01*
X117740402Y-50884983D01*
X117622110Y-50933982D01*
X117515649Y-51005116D01*
X117425112Y-51095653D01*
X117353978Y-51202114D01*
X117304979Y-51320406D01*
X117280000Y-51445985D01*
X117280000Y-51574023D01*
X117304979Y-51699602D01*
X117353978Y-51817894D01*
X117380001Y-51856841D01*
X117380000Y-55792182D01*
X116375000Y-56797182D01*
X116375000Y-55799651D01*
X116375021Y-55799600D01*
X116400000Y-55674021D01*
X116400000Y-55545983D01*
X116375021Y-55420404D01*
X116375000Y-55420353D01*
X116375000Y-53230693D01*
X116378023Y-53199999D01*
X116375000Y-53169305D01*
X116375000Y-53169296D01*
X116365957Y-53077479D01*
X116330219Y-52959666D01*
X116330218Y-52959664D01*
X116272182Y-52851087D01*
X116233273Y-52803677D01*
X116194080Y-52755920D01*
X116170229Y-52736346D01*
X115722292Y-52288409D01*
X115789598Y-52275021D01*
X115907890Y-52226022D01*
X116014351Y-52154888D01*
X116104888Y-52064351D01*
X116176022Y-51957890D01*
X116225021Y-51839598D01*
X116250000Y-51714019D01*
X116250000Y-51585981D01*
X116225021Y-51460402D01*
X116176022Y-51342110D01*
X116104888Y-51235649D01*
X116014351Y-51145112D01*
X115907890Y-51073978D01*
X115789598Y-51024979D01*
X115664019Y-51000000D01*
X115535981Y-51000000D01*
X115410402Y-51024979D01*
X115292110Y-51073978D01*
X115185649Y-51145112D01*
X115095112Y-51235649D01*
X115023978Y-51342110D01*
X114974979Y-51460402D01*
X114961591Y-51527709D01*
X114276043Y-50842161D01*
X114276022Y-50842110D01*
X114204888Y-50735649D01*
X114114351Y-50645112D01*
X114007890Y-50573978D01*
X113889598Y-50524979D01*
X113764019Y-50500000D01*
X113635981Y-50500000D01*
X113510402Y-50524979D01*
X113392110Y-50573978D01*
X113285649Y-50645112D01*
X113195112Y-50735649D01*
X113123978Y-50842110D01*
X113074979Y-50960402D01*
X113050000Y-51085981D01*
X113050000Y-51214019D01*
X113074979Y-51339598D01*
X113123978Y-51457890D01*
X113195112Y-51564351D01*
X113285649Y-51654888D01*
X113392110Y-51726022D01*
X113392161Y-51726043D01*
X113536347Y-51870229D01*
X115125001Y-53458884D01*
X115125000Y-55420353D01*
X115124979Y-55420404D01*
X115100000Y-55545983D01*
X115100000Y-55674021D01*
X115124979Y-55799600D01*
X115125000Y-55799651D01*
X115125000Y-56064969D01*
X115125001Y-56064979D01*
X115125000Y-56791116D01*
X114550000Y-57366116D01*
X114550000Y-54446835D01*
X114576022Y-54407890D01*
X114625021Y-54289598D01*
X114650000Y-54164019D01*
X114650000Y-54035981D01*
X114625021Y-53910402D01*
X114576022Y-53792110D01*
X114504888Y-53685649D01*
X114414351Y-53595112D01*
X114307890Y-53523978D01*
X114189598Y-53474979D01*
X114064019Y-53450000D01*
X113935981Y-53450000D01*
X113810402Y-53474979D01*
X113692110Y-53523978D01*
X113585649Y-53595112D01*
X113495112Y-53685649D01*
X113423978Y-53792110D01*
X113374979Y-53910402D01*
X113350000Y-54035981D01*
X113350000Y-54164019D01*
X113374979Y-54289598D01*
X113423978Y-54407890D01*
X113450000Y-54446835D01*
X113450001Y-57560185D01*
X108898842Y-62111344D01*
X108866022Y-62032110D01*
X108794888Y-61925649D01*
X108704351Y-61835112D01*
X108597890Y-61763978D01*
X108479598Y-61714979D01*
X108433658Y-61705841D01*
X103850000Y-57122183D01*
X103850000Y-54627825D01*
X104265833Y-55043659D01*
X104274971Y-55089598D01*
X104323970Y-55207890D01*
X104395104Y-55314351D01*
X104485641Y-55404888D01*
X104592102Y-55476022D01*
X104710394Y-55525021D01*
X104835973Y-55550000D01*
X104964011Y-55550000D01*
X105089590Y-55525021D01*
X105207882Y-55476022D01*
X105314343Y-55404888D01*
X105404880Y-55314351D01*
X105476014Y-55207890D01*
X105525013Y-55089598D01*
X105549992Y-54964019D01*
X105549992Y-54835981D01*
X105525013Y-54710402D01*
X105476014Y-54592110D01*
X105404880Y-54485649D01*
X105314343Y-54395112D01*
X105207882Y-54323978D01*
X105089590Y-54274979D01*
X105043651Y-54265841D01*
X104849934Y-54072125D01*
X104879126Y-54075000D01*
X104900000Y-54077056D01*
X104920874Y-54075000D01*
X108979126Y-54075000D01*
X109000000Y-54077056D01*
X109020874Y-54075000D01*
X109083314Y-54068850D01*
X109163427Y-54044548D01*
X109237260Y-54005084D01*
X109301974Y-53951974D01*
X109355084Y-53887260D01*
X109394548Y-53813427D01*
X109418850Y-53733314D01*
X109427056Y-53650000D01*
X109425000Y-53629126D01*
X109425000Y-46300000D01*
X116212252Y-46300000D01*
X116463621Y-46350000D01*
M02*
