G04 #@! TF.GenerationSoftware,KiCad,Pcbnew,(5.1.5-0-10_14)*
G04 #@! TF.CreationDate,2020-10-08T09:40:03+02:00*
G04 #@! TF.ProjectId,s1-popout-board,73312d70-6f70-46f7-9574-2d626f617264,2*
G04 #@! TF.SameCoordinates,Original*
G04 #@! TF.FileFunction,Copper,L1,Top*
G04 #@! TF.FilePolarity,Positive*
%FSLAX46Y46*%
G04 Gerber Fmt 4.6, Leading zero omitted, Abs format (unit mm)*
G04 Created by KiCad (PCBNEW (5.1.5-0-10_14)) date 2020-10-08 09:40:03*
%MOMM*%
%LPD*%
G04 APERTURE LIST*
%ADD10C,0.500000*%
%ADD11O,2.158000X1.158000*%
%ADD12O,2.458000X1.158000*%
%ADD13R,2.006600X0.990600*%
%ADD14R,1.092200X0.558800*%
%ADD15R,1.041400X0.304800*%
%ADD16R,1.050000X0.650000*%
%ADD17C,0.100000*%
%ADD18R,0.600000X1.550000*%
%ADD19R,1.200000X1.800000*%
%ADD20R,0.740000X2.790000*%
%ADD21R,3.400000X1.500000*%
%ADD22R,3.500000X1.000000*%
%ADD23R,1.900000X1.000000*%
%ADD24R,1.000000X0.480000*%
%ADD25C,4.000000*%
%ADD26C,0.300000*%
%ADD27C,0.450000*%
%ADD28C,0.200000*%
G04 APERTURE END LIST*
D10*
X113500000Y-46450000D03*
X100200000Y-86800000D03*
D11*
X112770999Y-73730399D03*
D12*
X116596000Y-73729999D03*
D11*
X112770999Y-82370002D03*
D12*
X116596000Y-82370002D03*
D13*
X116596000Y-76650001D03*
X116596000Y-79450000D03*
D14*
X112100000Y-74950001D03*
X112100000Y-75700000D03*
D15*
X112100000Y-76300001D03*
X112100000Y-76800000D03*
X112100000Y-77299999D03*
X112100000Y-77800001D03*
X112100000Y-78300000D03*
X112100000Y-78800001D03*
X112100000Y-79300000D03*
X112100000Y-79799999D03*
D14*
X112100000Y-80400001D03*
X112100000Y-81150000D03*
D16*
X104875000Y-58096666D03*
X104875000Y-55946666D03*
X109025000Y-55946666D03*
X109025000Y-58096666D03*
G04 #@! TA.AperFunction,SMDPad,CuDef*
D17*
G36*
X101769802Y-49200482D02*
G01*
X101779509Y-49201921D01*
X101789028Y-49204306D01*
X101798268Y-49207612D01*
X101807140Y-49211808D01*
X101815557Y-49216853D01*
X101823439Y-49222699D01*
X101830711Y-49229289D01*
X101837301Y-49236561D01*
X101843147Y-49244443D01*
X101848192Y-49252860D01*
X101852388Y-49261732D01*
X101855694Y-49270972D01*
X101858079Y-49280491D01*
X101859518Y-49290198D01*
X101860000Y-49300000D01*
X101860000Y-49500000D01*
X101859518Y-49509802D01*
X101858079Y-49519509D01*
X101855694Y-49529028D01*
X101852388Y-49538268D01*
X101848192Y-49547140D01*
X101843147Y-49555557D01*
X101837301Y-49563439D01*
X101830711Y-49570711D01*
X101823439Y-49577301D01*
X101815557Y-49583147D01*
X101807140Y-49588192D01*
X101798268Y-49592388D01*
X101789028Y-49595694D01*
X101779509Y-49598079D01*
X101769802Y-49599518D01*
X101760000Y-49600000D01*
X101500000Y-49600000D01*
X101490198Y-49599518D01*
X101480491Y-49598079D01*
X101470972Y-49595694D01*
X101461732Y-49592388D01*
X101452860Y-49588192D01*
X101444443Y-49583147D01*
X101436561Y-49577301D01*
X101429289Y-49570711D01*
X101422699Y-49563439D01*
X101416853Y-49555557D01*
X101411808Y-49547140D01*
X101407612Y-49538268D01*
X101404306Y-49529028D01*
X101401921Y-49519509D01*
X101400482Y-49509802D01*
X101400000Y-49500000D01*
X101400000Y-49300000D01*
X101400482Y-49290198D01*
X101401921Y-49280491D01*
X101404306Y-49270972D01*
X101407612Y-49261732D01*
X101411808Y-49252860D01*
X101416853Y-49244443D01*
X101422699Y-49236561D01*
X101429289Y-49229289D01*
X101436561Y-49222699D01*
X101444443Y-49216853D01*
X101452860Y-49211808D01*
X101461732Y-49207612D01*
X101470972Y-49204306D01*
X101480491Y-49201921D01*
X101490198Y-49200482D01*
X101500000Y-49200000D01*
X101760000Y-49200000D01*
X101769802Y-49200482D01*
G37*
G04 #@! TD.AperFunction*
G04 #@! TA.AperFunction,SMDPad,CuDef*
G36*
X102409802Y-49200482D02*
G01*
X102419509Y-49201921D01*
X102429028Y-49204306D01*
X102438268Y-49207612D01*
X102447140Y-49211808D01*
X102455557Y-49216853D01*
X102463439Y-49222699D01*
X102470711Y-49229289D01*
X102477301Y-49236561D01*
X102483147Y-49244443D01*
X102488192Y-49252860D01*
X102492388Y-49261732D01*
X102495694Y-49270972D01*
X102498079Y-49280491D01*
X102499518Y-49290198D01*
X102500000Y-49300000D01*
X102500000Y-49500000D01*
X102499518Y-49509802D01*
X102498079Y-49519509D01*
X102495694Y-49529028D01*
X102492388Y-49538268D01*
X102488192Y-49547140D01*
X102483147Y-49555557D01*
X102477301Y-49563439D01*
X102470711Y-49570711D01*
X102463439Y-49577301D01*
X102455557Y-49583147D01*
X102447140Y-49588192D01*
X102438268Y-49592388D01*
X102429028Y-49595694D01*
X102419509Y-49598079D01*
X102409802Y-49599518D01*
X102400000Y-49600000D01*
X102140000Y-49600000D01*
X102130198Y-49599518D01*
X102120491Y-49598079D01*
X102110972Y-49595694D01*
X102101732Y-49592388D01*
X102092860Y-49588192D01*
X102084443Y-49583147D01*
X102076561Y-49577301D01*
X102069289Y-49570711D01*
X102062699Y-49563439D01*
X102056853Y-49555557D01*
X102051808Y-49547140D01*
X102047612Y-49538268D01*
X102044306Y-49529028D01*
X102041921Y-49519509D01*
X102040482Y-49509802D01*
X102040000Y-49500000D01*
X102040000Y-49300000D01*
X102040482Y-49290198D01*
X102041921Y-49280491D01*
X102044306Y-49270972D01*
X102047612Y-49261732D01*
X102051808Y-49252860D01*
X102056853Y-49244443D01*
X102062699Y-49236561D01*
X102069289Y-49229289D01*
X102076561Y-49222699D01*
X102084443Y-49216853D01*
X102092860Y-49211808D01*
X102101732Y-49207612D01*
X102110972Y-49204306D01*
X102120491Y-49201921D01*
X102130198Y-49200482D01*
X102140000Y-49200000D01*
X102400000Y-49200000D01*
X102409802Y-49200482D01*
G37*
G04 #@! TD.AperFunction*
G04 #@! TA.AperFunction,SMDPad,CuDef*
G36*
X106794802Y-62525482D02*
G01*
X106804509Y-62526921D01*
X106814028Y-62529306D01*
X106823268Y-62532612D01*
X106832140Y-62536808D01*
X106840557Y-62541853D01*
X106848439Y-62547699D01*
X106855711Y-62554289D01*
X106862301Y-62561561D01*
X106868147Y-62569443D01*
X106873192Y-62577860D01*
X106877388Y-62586732D01*
X106880694Y-62595972D01*
X106883079Y-62605491D01*
X106884518Y-62615198D01*
X106885000Y-62625000D01*
X106885000Y-62825000D01*
X106884518Y-62834802D01*
X106883079Y-62844509D01*
X106880694Y-62854028D01*
X106877388Y-62863268D01*
X106873192Y-62872140D01*
X106868147Y-62880557D01*
X106862301Y-62888439D01*
X106855711Y-62895711D01*
X106848439Y-62902301D01*
X106840557Y-62908147D01*
X106832140Y-62913192D01*
X106823268Y-62917388D01*
X106814028Y-62920694D01*
X106804509Y-62923079D01*
X106794802Y-62924518D01*
X106785000Y-62925000D01*
X106525000Y-62925000D01*
X106515198Y-62924518D01*
X106505491Y-62923079D01*
X106495972Y-62920694D01*
X106486732Y-62917388D01*
X106477860Y-62913192D01*
X106469443Y-62908147D01*
X106461561Y-62902301D01*
X106454289Y-62895711D01*
X106447699Y-62888439D01*
X106441853Y-62880557D01*
X106436808Y-62872140D01*
X106432612Y-62863268D01*
X106429306Y-62854028D01*
X106426921Y-62844509D01*
X106425482Y-62834802D01*
X106425000Y-62825000D01*
X106425000Y-62625000D01*
X106425482Y-62615198D01*
X106426921Y-62605491D01*
X106429306Y-62595972D01*
X106432612Y-62586732D01*
X106436808Y-62577860D01*
X106441853Y-62569443D01*
X106447699Y-62561561D01*
X106454289Y-62554289D01*
X106461561Y-62547699D01*
X106469443Y-62541853D01*
X106477860Y-62536808D01*
X106486732Y-62532612D01*
X106495972Y-62529306D01*
X106505491Y-62526921D01*
X106515198Y-62525482D01*
X106525000Y-62525000D01*
X106785000Y-62525000D01*
X106794802Y-62525482D01*
G37*
G04 #@! TD.AperFunction*
G04 #@! TA.AperFunction,SMDPad,CuDef*
G36*
X107434802Y-62525482D02*
G01*
X107444509Y-62526921D01*
X107454028Y-62529306D01*
X107463268Y-62532612D01*
X107472140Y-62536808D01*
X107480557Y-62541853D01*
X107488439Y-62547699D01*
X107495711Y-62554289D01*
X107502301Y-62561561D01*
X107508147Y-62569443D01*
X107513192Y-62577860D01*
X107517388Y-62586732D01*
X107520694Y-62595972D01*
X107523079Y-62605491D01*
X107524518Y-62615198D01*
X107525000Y-62625000D01*
X107525000Y-62825000D01*
X107524518Y-62834802D01*
X107523079Y-62844509D01*
X107520694Y-62854028D01*
X107517388Y-62863268D01*
X107513192Y-62872140D01*
X107508147Y-62880557D01*
X107502301Y-62888439D01*
X107495711Y-62895711D01*
X107488439Y-62902301D01*
X107480557Y-62908147D01*
X107472140Y-62913192D01*
X107463268Y-62917388D01*
X107454028Y-62920694D01*
X107444509Y-62923079D01*
X107434802Y-62924518D01*
X107425000Y-62925000D01*
X107165000Y-62925000D01*
X107155198Y-62924518D01*
X107145491Y-62923079D01*
X107135972Y-62920694D01*
X107126732Y-62917388D01*
X107117860Y-62913192D01*
X107109443Y-62908147D01*
X107101561Y-62902301D01*
X107094289Y-62895711D01*
X107087699Y-62888439D01*
X107081853Y-62880557D01*
X107076808Y-62872140D01*
X107072612Y-62863268D01*
X107069306Y-62854028D01*
X107066921Y-62844509D01*
X107065482Y-62834802D01*
X107065000Y-62825000D01*
X107065000Y-62625000D01*
X107065482Y-62615198D01*
X107066921Y-62605491D01*
X107069306Y-62595972D01*
X107072612Y-62586732D01*
X107076808Y-62577860D01*
X107081853Y-62569443D01*
X107087699Y-62561561D01*
X107094289Y-62554289D01*
X107101561Y-62547699D01*
X107109443Y-62541853D01*
X107117860Y-62536808D01*
X107126732Y-62532612D01*
X107135972Y-62529306D01*
X107145491Y-62526921D01*
X107155198Y-62525482D01*
X107165000Y-62525000D01*
X107425000Y-62525000D01*
X107434802Y-62525482D01*
G37*
G04 #@! TD.AperFunction*
G04 #@! TA.AperFunction,SMDPad,CuDef*
G36*
X109619802Y-79600482D02*
G01*
X109629509Y-79601921D01*
X109639028Y-79604306D01*
X109648268Y-79607612D01*
X109657140Y-79611808D01*
X109665557Y-79616853D01*
X109673439Y-79622699D01*
X109680711Y-79629289D01*
X109687301Y-79636561D01*
X109693147Y-79644443D01*
X109698192Y-79652860D01*
X109702388Y-79661732D01*
X109705694Y-79670972D01*
X109708079Y-79680491D01*
X109709518Y-79690198D01*
X109710000Y-79700000D01*
X109710000Y-79900000D01*
X109709518Y-79909802D01*
X109708079Y-79919509D01*
X109705694Y-79929028D01*
X109702388Y-79938268D01*
X109698192Y-79947140D01*
X109693147Y-79955557D01*
X109687301Y-79963439D01*
X109680711Y-79970711D01*
X109673439Y-79977301D01*
X109665557Y-79983147D01*
X109657140Y-79988192D01*
X109648268Y-79992388D01*
X109639028Y-79995694D01*
X109629509Y-79998079D01*
X109619802Y-79999518D01*
X109610000Y-80000000D01*
X109350000Y-80000000D01*
X109340198Y-79999518D01*
X109330491Y-79998079D01*
X109320972Y-79995694D01*
X109311732Y-79992388D01*
X109302860Y-79988192D01*
X109294443Y-79983147D01*
X109286561Y-79977301D01*
X109279289Y-79970711D01*
X109272699Y-79963439D01*
X109266853Y-79955557D01*
X109261808Y-79947140D01*
X109257612Y-79938268D01*
X109254306Y-79929028D01*
X109251921Y-79919509D01*
X109250482Y-79909802D01*
X109250000Y-79900000D01*
X109250000Y-79700000D01*
X109250482Y-79690198D01*
X109251921Y-79680491D01*
X109254306Y-79670972D01*
X109257612Y-79661732D01*
X109261808Y-79652860D01*
X109266853Y-79644443D01*
X109272699Y-79636561D01*
X109279289Y-79629289D01*
X109286561Y-79622699D01*
X109294443Y-79616853D01*
X109302860Y-79611808D01*
X109311732Y-79607612D01*
X109320972Y-79604306D01*
X109330491Y-79601921D01*
X109340198Y-79600482D01*
X109350000Y-79600000D01*
X109610000Y-79600000D01*
X109619802Y-79600482D01*
G37*
G04 #@! TD.AperFunction*
G04 #@! TA.AperFunction,SMDPad,CuDef*
G36*
X110259802Y-79600482D02*
G01*
X110269509Y-79601921D01*
X110279028Y-79604306D01*
X110288268Y-79607612D01*
X110297140Y-79611808D01*
X110305557Y-79616853D01*
X110313439Y-79622699D01*
X110320711Y-79629289D01*
X110327301Y-79636561D01*
X110333147Y-79644443D01*
X110338192Y-79652860D01*
X110342388Y-79661732D01*
X110345694Y-79670972D01*
X110348079Y-79680491D01*
X110349518Y-79690198D01*
X110350000Y-79700000D01*
X110350000Y-79900000D01*
X110349518Y-79909802D01*
X110348079Y-79919509D01*
X110345694Y-79929028D01*
X110342388Y-79938268D01*
X110338192Y-79947140D01*
X110333147Y-79955557D01*
X110327301Y-79963439D01*
X110320711Y-79970711D01*
X110313439Y-79977301D01*
X110305557Y-79983147D01*
X110297140Y-79988192D01*
X110288268Y-79992388D01*
X110279028Y-79995694D01*
X110269509Y-79998079D01*
X110259802Y-79999518D01*
X110250000Y-80000000D01*
X109990000Y-80000000D01*
X109980198Y-79999518D01*
X109970491Y-79998079D01*
X109960972Y-79995694D01*
X109951732Y-79992388D01*
X109942860Y-79988192D01*
X109934443Y-79983147D01*
X109926561Y-79977301D01*
X109919289Y-79970711D01*
X109912699Y-79963439D01*
X109906853Y-79955557D01*
X109901808Y-79947140D01*
X109897612Y-79938268D01*
X109894306Y-79929028D01*
X109891921Y-79919509D01*
X109890482Y-79909802D01*
X109890000Y-79900000D01*
X109890000Y-79700000D01*
X109890482Y-79690198D01*
X109891921Y-79680491D01*
X109894306Y-79670972D01*
X109897612Y-79661732D01*
X109901808Y-79652860D01*
X109906853Y-79644443D01*
X109912699Y-79636561D01*
X109919289Y-79629289D01*
X109926561Y-79622699D01*
X109934443Y-79616853D01*
X109942860Y-79611808D01*
X109951732Y-79607612D01*
X109960972Y-79604306D01*
X109970491Y-79601921D01*
X109980198Y-79600482D01*
X109990000Y-79600000D01*
X110250000Y-79600000D01*
X110259802Y-79600482D01*
G37*
G04 #@! TD.AperFunction*
G04 #@! TA.AperFunction,SMDPad,CuDef*
G36*
X109639802Y-76600482D02*
G01*
X109649509Y-76601921D01*
X109659028Y-76604306D01*
X109668268Y-76607612D01*
X109677140Y-76611808D01*
X109685557Y-76616853D01*
X109693439Y-76622699D01*
X109700711Y-76629289D01*
X109707301Y-76636561D01*
X109713147Y-76644443D01*
X109718192Y-76652860D01*
X109722388Y-76661732D01*
X109725694Y-76670972D01*
X109728079Y-76680491D01*
X109729518Y-76690198D01*
X109730000Y-76700000D01*
X109730000Y-76900000D01*
X109729518Y-76909802D01*
X109728079Y-76919509D01*
X109725694Y-76929028D01*
X109722388Y-76938268D01*
X109718192Y-76947140D01*
X109713147Y-76955557D01*
X109707301Y-76963439D01*
X109700711Y-76970711D01*
X109693439Y-76977301D01*
X109685557Y-76983147D01*
X109677140Y-76988192D01*
X109668268Y-76992388D01*
X109659028Y-76995694D01*
X109649509Y-76998079D01*
X109639802Y-76999518D01*
X109630000Y-77000000D01*
X109370000Y-77000000D01*
X109360198Y-76999518D01*
X109350491Y-76998079D01*
X109340972Y-76995694D01*
X109331732Y-76992388D01*
X109322860Y-76988192D01*
X109314443Y-76983147D01*
X109306561Y-76977301D01*
X109299289Y-76970711D01*
X109292699Y-76963439D01*
X109286853Y-76955557D01*
X109281808Y-76947140D01*
X109277612Y-76938268D01*
X109274306Y-76929028D01*
X109271921Y-76919509D01*
X109270482Y-76909802D01*
X109270000Y-76900000D01*
X109270000Y-76700000D01*
X109270482Y-76690198D01*
X109271921Y-76680491D01*
X109274306Y-76670972D01*
X109277612Y-76661732D01*
X109281808Y-76652860D01*
X109286853Y-76644443D01*
X109292699Y-76636561D01*
X109299289Y-76629289D01*
X109306561Y-76622699D01*
X109314443Y-76616853D01*
X109322860Y-76611808D01*
X109331732Y-76607612D01*
X109340972Y-76604306D01*
X109350491Y-76601921D01*
X109360198Y-76600482D01*
X109370000Y-76600000D01*
X109630000Y-76600000D01*
X109639802Y-76600482D01*
G37*
G04 #@! TD.AperFunction*
G04 #@! TA.AperFunction,SMDPad,CuDef*
G36*
X110279802Y-76600482D02*
G01*
X110289509Y-76601921D01*
X110299028Y-76604306D01*
X110308268Y-76607612D01*
X110317140Y-76611808D01*
X110325557Y-76616853D01*
X110333439Y-76622699D01*
X110340711Y-76629289D01*
X110347301Y-76636561D01*
X110353147Y-76644443D01*
X110358192Y-76652860D01*
X110362388Y-76661732D01*
X110365694Y-76670972D01*
X110368079Y-76680491D01*
X110369518Y-76690198D01*
X110370000Y-76700000D01*
X110370000Y-76900000D01*
X110369518Y-76909802D01*
X110368079Y-76919509D01*
X110365694Y-76929028D01*
X110362388Y-76938268D01*
X110358192Y-76947140D01*
X110353147Y-76955557D01*
X110347301Y-76963439D01*
X110340711Y-76970711D01*
X110333439Y-76977301D01*
X110325557Y-76983147D01*
X110317140Y-76988192D01*
X110308268Y-76992388D01*
X110299028Y-76995694D01*
X110289509Y-76998079D01*
X110279802Y-76999518D01*
X110270000Y-77000000D01*
X110010000Y-77000000D01*
X110000198Y-76999518D01*
X109990491Y-76998079D01*
X109980972Y-76995694D01*
X109971732Y-76992388D01*
X109962860Y-76988192D01*
X109954443Y-76983147D01*
X109946561Y-76977301D01*
X109939289Y-76970711D01*
X109932699Y-76963439D01*
X109926853Y-76955557D01*
X109921808Y-76947140D01*
X109917612Y-76938268D01*
X109914306Y-76929028D01*
X109911921Y-76919509D01*
X109910482Y-76909802D01*
X109910000Y-76900000D01*
X109910000Y-76700000D01*
X109910482Y-76690198D01*
X109911921Y-76680491D01*
X109914306Y-76670972D01*
X109917612Y-76661732D01*
X109921808Y-76652860D01*
X109926853Y-76644443D01*
X109932699Y-76636561D01*
X109939289Y-76629289D01*
X109946561Y-76622699D01*
X109954443Y-76616853D01*
X109962860Y-76611808D01*
X109971732Y-76607612D01*
X109980972Y-76604306D01*
X109990491Y-76601921D01*
X110000198Y-76600482D01*
X110010000Y-76600000D01*
X110270000Y-76600000D01*
X110279802Y-76600482D01*
G37*
G04 #@! TD.AperFunction*
D18*
X109000000Y-82875000D03*
X108000000Y-82875000D03*
X107000000Y-82875000D03*
X106000000Y-82875000D03*
D19*
X104700000Y-86750000D03*
X110300000Y-86750000D03*
D20*
X108220000Y-69585000D03*
X109490000Y-65515000D03*
X109490000Y-69585000D03*
X108220000Y-65515000D03*
X106950000Y-65515000D03*
X106950000Y-69585000D03*
X105680000Y-65515000D03*
X105680000Y-69585000D03*
X104410000Y-65515000D03*
X104410000Y-69585000D03*
D21*
X97350000Y-74700000D03*
X97350000Y-81400000D03*
D22*
X103100000Y-77050000D03*
X103100000Y-79050000D03*
D23*
X117300000Y-70850000D03*
X117300000Y-65770000D03*
X117300000Y-60690000D03*
X117300000Y-55610000D03*
X117300000Y-50530000D03*
X114000000Y-68310000D03*
X114000000Y-63230000D03*
X114000000Y-58150000D03*
X114000000Y-53070000D03*
X114000000Y-47990000D03*
D24*
X109850000Y-46650000D03*
X104050000Y-47350000D03*
X104050000Y-46650000D03*
X104050000Y-48050000D03*
X104050000Y-48750000D03*
X104050000Y-49450000D03*
X104050000Y-50150000D03*
X104050000Y-50850000D03*
X104050000Y-51550000D03*
X104050000Y-52250000D03*
X104050000Y-52950000D03*
X109850000Y-52950000D03*
X109850000Y-52250000D03*
X109850000Y-51550000D03*
X109850000Y-50850000D03*
X109850000Y-50150000D03*
X109850000Y-49450000D03*
X109850000Y-48750000D03*
X109850000Y-48050000D03*
X109850000Y-47350000D03*
D23*
X99900000Y-70850000D03*
X99900000Y-65770000D03*
X99900000Y-60690000D03*
X99900000Y-55610000D03*
X99900000Y-50530000D03*
X96600000Y-68310000D03*
X96600000Y-63230000D03*
X96600000Y-58150000D03*
X96600000Y-53070000D03*
X96600000Y-47990000D03*
G04 #@! TA.AperFunction,SMDPad,CuDef*
D17*
G36*
X106422691Y-60664385D02*
G01*
X106443926Y-60667535D01*
X106464750Y-60672751D01*
X106484962Y-60679983D01*
X106504368Y-60689162D01*
X106522781Y-60700198D01*
X106540024Y-60712986D01*
X106555930Y-60727402D01*
X106570346Y-60743308D01*
X106583134Y-60760551D01*
X106594170Y-60778964D01*
X106603349Y-60798370D01*
X106610581Y-60818582D01*
X106615797Y-60839406D01*
X106618947Y-60860641D01*
X106620000Y-60882082D01*
X106620000Y-61394582D01*
X106618947Y-61416023D01*
X106615797Y-61437258D01*
X106610581Y-61458082D01*
X106603349Y-61478294D01*
X106594170Y-61497700D01*
X106583134Y-61516113D01*
X106570346Y-61533356D01*
X106555930Y-61549262D01*
X106540024Y-61563678D01*
X106522781Y-61576466D01*
X106504368Y-61587502D01*
X106484962Y-61596681D01*
X106464750Y-61603913D01*
X106443926Y-61609129D01*
X106422691Y-61612279D01*
X106401250Y-61613332D01*
X105963750Y-61613332D01*
X105942309Y-61612279D01*
X105921074Y-61609129D01*
X105900250Y-61603913D01*
X105880038Y-61596681D01*
X105860632Y-61587502D01*
X105842219Y-61576466D01*
X105824976Y-61563678D01*
X105809070Y-61549262D01*
X105794654Y-61533356D01*
X105781866Y-61516113D01*
X105770830Y-61497700D01*
X105761651Y-61478294D01*
X105754419Y-61458082D01*
X105749203Y-61437258D01*
X105746053Y-61416023D01*
X105745000Y-61394582D01*
X105745000Y-60882082D01*
X105746053Y-60860641D01*
X105749203Y-60839406D01*
X105754419Y-60818582D01*
X105761651Y-60798370D01*
X105770830Y-60778964D01*
X105781866Y-60760551D01*
X105794654Y-60743308D01*
X105809070Y-60727402D01*
X105824976Y-60712986D01*
X105842219Y-60700198D01*
X105860632Y-60689162D01*
X105880038Y-60679983D01*
X105900250Y-60672751D01*
X105921074Y-60667535D01*
X105942309Y-60664385D01*
X105963750Y-60663332D01*
X106401250Y-60663332D01*
X106422691Y-60664385D01*
G37*
G04 #@! TD.AperFunction*
G04 #@! TA.AperFunction,SMDPad,CuDef*
G36*
X107997691Y-60664385D02*
G01*
X108018926Y-60667535D01*
X108039750Y-60672751D01*
X108059962Y-60679983D01*
X108079368Y-60689162D01*
X108097781Y-60700198D01*
X108115024Y-60712986D01*
X108130930Y-60727402D01*
X108145346Y-60743308D01*
X108158134Y-60760551D01*
X108169170Y-60778964D01*
X108178349Y-60798370D01*
X108185581Y-60818582D01*
X108190797Y-60839406D01*
X108193947Y-60860641D01*
X108195000Y-60882082D01*
X108195000Y-61394582D01*
X108193947Y-61416023D01*
X108190797Y-61437258D01*
X108185581Y-61458082D01*
X108178349Y-61478294D01*
X108169170Y-61497700D01*
X108158134Y-61516113D01*
X108145346Y-61533356D01*
X108130930Y-61549262D01*
X108115024Y-61563678D01*
X108097781Y-61576466D01*
X108079368Y-61587502D01*
X108059962Y-61596681D01*
X108039750Y-61603913D01*
X108018926Y-61609129D01*
X107997691Y-61612279D01*
X107976250Y-61613332D01*
X107538750Y-61613332D01*
X107517309Y-61612279D01*
X107496074Y-61609129D01*
X107475250Y-61603913D01*
X107455038Y-61596681D01*
X107435632Y-61587502D01*
X107417219Y-61576466D01*
X107399976Y-61563678D01*
X107384070Y-61549262D01*
X107369654Y-61533356D01*
X107356866Y-61516113D01*
X107345830Y-61497700D01*
X107336651Y-61478294D01*
X107329419Y-61458082D01*
X107324203Y-61437258D01*
X107321053Y-61416023D01*
X107320000Y-61394582D01*
X107320000Y-60882082D01*
X107321053Y-60860641D01*
X107324203Y-60839406D01*
X107329419Y-60818582D01*
X107336651Y-60798370D01*
X107345830Y-60778964D01*
X107356866Y-60760551D01*
X107369654Y-60743308D01*
X107384070Y-60727402D01*
X107399976Y-60712986D01*
X107417219Y-60700198D01*
X107435632Y-60689162D01*
X107455038Y-60679983D01*
X107475250Y-60672751D01*
X107496074Y-60667535D01*
X107517309Y-60664385D01*
X107538750Y-60663332D01*
X107976250Y-60663332D01*
X107997691Y-60664385D01*
G37*
G04 #@! TD.AperFunction*
D25*
X97200000Y-43950000D03*
X116700000Y-43950000D03*
X116700000Y-85925000D03*
X97200000Y-85925000D03*
D10*
X115600000Y-51650000D03*
X102800000Y-46700000D03*
X112200000Y-46600000D03*
X117400000Y-46900000D03*
X114900000Y-46600000D03*
X117750000Y-49100000D03*
X117150000Y-62400000D03*
X117150000Y-64050000D03*
X113620000Y-61680000D03*
X117200000Y-67600000D03*
X117200000Y-69350000D03*
X112800000Y-69750000D03*
X112400000Y-66400000D03*
X102200000Y-75150000D03*
X108070000Y-71880000D03*
X106060000Y-71880000D03*
X102200000Y-73250000D03*
X97350000Y-76800000D03*
X97350000Y-79200000D03*
X96700000Y-72800000D03*
X96580000Y-65870000D03*
X96950000Y-60700000D03*
X97000000Y-55600000D03*
X97400000Y-51250000D03*
X106950000Y-57250000D03*
X106760000Y-59360000D03*
X109320000Y-60600000D03*
X104950000Y-63250000D03*
X105530000Y-79310000D03*
X100800000Y-79100000D03*
X117150000Y-80900000D03*
X117050000Y-78050000D03*
X117050000Y-75250000D03*
X113550000Y-86750000D03*
X107400000Y-86850000D03*
X101550000Y-86950000D03*
X96200000Y-83100000D03*
X101670000Y-82900000D03*
X104280000Y-82990000D03*
X110500000Y-81600000D03*
X113550000Y-79750000D03*
X113550000Y-76450000D03*
X96250000Y-46700000D03*
X99550000Y-46700000D03*
X110900000Y-50850000D03*
X108050000Y-78300000D03*
X108800000Y-79050000D03*
X104300000Y-75150000D03*
X104950000Y-61550000D03*
X108850000Y-67550000D03*
X112300000Y-72100000D03*
X110160000Y-74390000D03*
X99120000Y-52300000D03*
X115790000Y-59780000D03*
X117260000Y-53290000D03*
X98000000Y-69850000D03*
X98000000Y-66150000D03*
X101900000Y-47150000D03*
X99950000Y-51900000D03*
X101050000Y-51900000D03*
X102350000Y-48050000D03*
X108290000Y-62340000D03*
X107000000Y-84600000D03*
X114414998Y-65770000D03*
X115350000Y-65770000D03*
X115750000Y-55610002D03*
X104400000Y-67550000D03*
X113700000Y-51150000D03*
X114000000Y-54100000D03*
X103500000Y-65550000D03*
X106400000Y-67550000D03*
X117930000Y-51510004D03*
X101650000Y-50100000D03*
X104899992Y-54900000D03*
X113500000Y-78050000D03*
X110450000Y-78050000D03*
D26*
X106182500Y-62252500D02*
X106655000Y-62725000D01*
X106182500Y-61138332D02*
X106182500Y-62252500D01*
D27*
X112100000Y-80400001D02*
X112050001Y-80450000D01*
X108950000Y-75700000D02*
X106600000Y-78050000D01*
X112100000Y-75700000D02*
X108950000Y-75700000D01*
X108950001Y-80400001D02*
X106600000Y-78050000D01*
X112100000Y-80400001D02*
X108950001Y-80400001D01*
X99900000Y-69900000D02*
X99900000Y-70850000D01*
X101850000Y-65742476D02*
X101850000Y-67950000D01*
X103750000Y-53150000D02*
X103750000Y-63842476D01*
X103750000Y-63842476D02*
X101850000Y-65742476D01*
X101850000Y-67950000D02*
X99900000Y-69900000D01*
X103950000Y-52950000D02*
X103750000Y-53150000D01*
X99900000Y-71550000D02*
X99900000Y-70850000D01*
X100750000Y-77625002D02*
X100750000Y-72400000D01*
X101174998Y-78050000D02*
X100750000Y-77625002D01*
X100750000Y-72400000D02*
X99900000Y-71550000D01*
X106600000Y-78050000D02*
X101174998Y-78050000D01*
D26*
X99880000Y-65750000D02*
X99900000Y-65770000D01*
X98400000Y-65750000D02*
X99880000Y-65750000D01*
X98000000Y-66150000D02*
X98400000Y-65750000D01*
X102700000Y-62150000D02*
X99900000Y-64950000D01*
X102700000Y-52286410D02*
X102700000Y-62150000D01*
X103436410Y-51550000D02*
X102700000Y-52286410D01*
X99900000Y-64950000D02*
X99900000Y-65770000D01*
X103950000Y-51550000D02*
X103436410Y-51550000D01*
X98000000Y-71150000D02*
X98000000Y-69850000D01*
X107650000Y-80450000D02*
X100900000Y-80450000D01*
X100100010Y-79650010D02*
X100100010Y-73250010D01*
X109000000Y-81800000D02*
X107650000Y-80450000D01*
X100100010Y-73250010D02*
X98000000Y-71150000D01*
X100900000Y-80450000D02*
X100100010Y-79650010D01*
X109000000Y-82875000D02*
X109000000Y-81800000D01*
X100360000Y-60690000D02*
X99900000Y-60690000D01*
X101700000Y-59350000D02*
X100360000Y-60690000D01*
X101700000Y-51884998D02*
X101700000Y-59350000D01*
X103434998Y-50150000D02*
X101700000Y-51884998D01*
X103950000Y-50150000D02*
X103434998Y-50150000D01*
X99450000Y-55610000D02*
X99900000Y-55610000D01*
X98200000Y-54360000D02*
X99450000Y-55610000D01*
X98200000Y-50050000D02*
X98200000Y-54360000D01*
X99500000Y-48750000D02*
X98200000Y-50050000D01*
X102150000Y-48750000D02*
X99500000Y-48750000D01*
X101650000Y-48750000D02*
X102150000Y-48750000D01*
X102600000Y-48750000D02*
X102150000Y-48750000D01*
X103950000Y-48750000D02*
X102600000Y-48750000D01*
X102270000Y-48750000D02*
X102600000Y-48750000D01*
X102270000Y-49400000D02*
X102270000Y-48750000D01*
X102100000Y-47350000D02*
X101900000Y-47150000D01*
X103950000Y-47350000D02*
X102100000Y-47350000D01*
X99950000Y-50580000D02*
X99900000Y-50530000D01*
X99950000Y-51900000D02*
X99950000Y-50580000D01*
X99940000Y-68310000D02*
X97850000Y-68310000D01*
X101250000Y-67000000D02*
X99940000Y-68310000D01*
X101250000Y-65000000D02*
X101250000Y-67000000D01*
X97850000Y-68310000D02*
X96600000Y-68310000D01*
X103200000Y-63050000D02*
X101250000Y-65000000D01*
X103200000Y-52550000D02*
X103200000Y-63050000D01*
X103500000Y-52250000D02*
X103200000Y-52550000D01*
X103950000Y-52250000D02*
X103500000Y-52250000D01*
X97000000Y-68710000D02*
X96600000Y-68310000D01*
X97000000Y-71300000D02*
X97000000Y-68710000D01*
X107200000Y-81150000D02*
X100600000Y-81150000D01*
X99500000Y-73800000D02*
X97000000Y-71300000D01*
X100600000Y-81150000D02*
X99500000Y-80050000D01*
X108000000Y-81950000D02*
X107200000Y-81150000D01*
X99500000Y-80050000D02*
X99500000Y-73800000D01*
X108000000Y-82875000D02*
X108000000Y-81950000D01*
X102200000Y-52150000D02*
X102200000Y-60650000D01*
X97850000Y-63230000D02*
X96600000Y-63230000D01*
X103500000Y-50850000D02*
X102200000Y-52150000D01*
X99620000Y-63230000D02*
X97850000Y-63230000D01*
X102200000Y-60650000D02*
X99620000Y-63230000D01*
X103950000Y-50850000D02*
X103500000Y-50850000D01*
X101200000Y-56550000D02*
X99600000Y-58150000D01*
X101200000Y-51684998D02*
X101200000Y-56550000D01*
X99600000Y-58150000D02*
X97850000Y-58150000D01*
X97850000Y-58150000D02*
X96600000Y-58150000D01*
X101200000Y-51750000D02*
X101050000Y-51900000D01*
X101200000Y-51684998D02*
X101200000Y-51750000D01*
X101460200Y-51424798D02*
X101200000Y-51684998D01*
X103434998Y-49450000D02*
X101460200Y-51424798D01*
X103950000Y-49450000D02*
X103434998Y-49450000D01*
X96600000Y-50250000D02*
X96600000Y-52270000D01*
X96600000Y-52270000D02*
X96600000Y-53070000D01*
X98800000Y-48050000D02*
X96600000Y-50250000D01*
X103950000Y-48050000D02*
X102350000Y-48050000D01*
X102350000Y-48050000D02*
X98800000Y-48050000D01*
X107925000Y-62725000D02*
X107295000Y-62725000D01*
X108290000Y-62360000D02*
X107925000Y-62725000D01*
X108290000Y-62340000D02*
X108290000Y-62360000D01*
D27*
X111500000Y-70850000D02*
X115900000Y-70850000D01*
X105300000Y-77050000D02*
X111500000Y-70850000D01*
X115900000Y-70850000D02*
X117300000Y-70850000D01*
X103100000Y-77050000D02*
X105300000Y-77050000D01*
X111700000Y-70850000D02*
X115900000Y-70850000D01*
X110400000Y-53400000D02*
X110400000Y-69550000D01*
X110400000Y-69550000D02*
X111700000Y-70850000D01*
X109950000Y-52950000D02*
X110400000Y-53400000D01*
X109950000Y-52250000D02*
X110501458Y-52250000D01*
X112600000Y-68310000D02*
X114000000Y-68310000D01*
X110501458Y-52250000D02*
X111099990Y-52848532D01*
X111099990Y-66809990D02*
X112600000Y-68310000D01*
X111099990Y-52848532D02*
X111099990Y-66809990D01*
X114414998Y-65770000D02*
X115900000Y-65770000D01*
X115900000Y-65770000D02*
X117300000Y-65770000D01*
X107000000Y-82875000D02*
X107000000Y-84600000D01*
X113820000Y-65770000D02*
X114414998Y-65770000D01*
X111750000Y-52650000D02*
X111750000Y-63700000D01*
X110650000Y-51550000D02*
X111750000Y-52650000D01*
X111750000Y-63700000D02*
X113820000Y-65770000D01*
X109950000Y-51550000D02*
X110650000Y-51550000D01*
D26*
X116050000Y-60690000D02*
X117300000Y-60690000D01*
X114549998Y-60690000D02*
X116050000Y-60690000D01*
X111050000Y-50150000D02*
X112299991Y-51399991D01*
X112299991Y-58439993D02*
X114549998Y-60690000D01*
X112299991Y-51399991D02*
X112299991Y-58439993D01*
X109950000Y-50150000D02*
X111050000Y-50150000D01*
X113550000Y-58150000D02*
X114000000Y-58150000D01*
X112750000Y-57350000D02*
X113550000Y-58150000D01*
X112750000Y-51050000D02*
X112750000Y-57350000D01*
X111150000Y-49450000D02*
X112750000Y-51050000D01*
X109950000Y-49450000D02*
X111150000Y-49450000D01*
D27*
X117299998Y-55610002D02*
X117300000Y-55610000D01*
X115750000Y-55610002D02*
X117299998Y-55610002D01*
X104410000Y-67560000D02*
X104400000Y-67550000D01*
X104410000Y-69585000D02*
X104410000Y-67560000D01*
X113400001Y-50850001D02*
X113700000Y-51150000D01*
X111300000Y-48750000D02*
X113400001Y-50850001D01*
X109950000Y-48750000D02*
X111300000Y-48750000D01*
D26*
X114000000Y-54100000D02*
X114000000Y-53070000D01*
X104410000Y-65515000D02*
X103535000Y-65515000D01*
X103535000Y-65515000D02*
X103500000Y-65550000D01*
X114300000Y-52770000D02*
X114000000Y-53070000D01*
X114300000Y-50900000D02*
X114300000Y-52770000D01*
X111450000Y-48050000D02*
X114300000Y-50900000D01*
X109950000Y-48050000D02*
X111450000Y-48050000D01*
X105680000Y-65515000D02*
X105680000Y-67210000D01*
X105680000Y-67210000D02*
X106020000Y-67550000D01*
X106020000Y-67550000D02*
X106400000Y-67550000D01*
X114630000Y-50530000D02*
X116050000Y-50530000D01*
X111450000Y-47350000D02*
X114630000Y-50530000D01*
X116050000Y-50530000D02*
X117300000Y-50530000D01*
X109950000Y-47350000D02*
X111450000Y-47350000D01*
X117300000Y-50880004D02*
X117930000Y-51510004D01*
X117300000Y-50530000D02*
X117300000Y-50880004D01*
X112100000Y-76800000D02*
X110140000Y-76800000D01*
X110120001Y-79799999D02*
X110120000Y-79800000D01*
X112100000Y-79799999D02*
X110120001Y-79799999D01*
X109025000Y-55946666D02*
X108636666Y-55946666D01*
X104875000Y-55946666D02*
X109025000Y-55946666D01*
X101630000Y-50080000D02*
X101650000Y-50100000D01*
X101630000Y-49400000D02*
X101630000Y-50080000D01*
X104875000Y-55946666D02*
X104875000Y-54924992D01*
X104875000Y-54924992D02*
X104899992Y-54900000D01*
X112100000Y-77299999D02*
X113149999Y-77299999D01*
X113149999Y-77299999D02*
X113900000Y-78050000D01*
X113149999Y-78800001D02*
X112100000Y-78800001D01*
X113900000Y-78050000D02*
X113149999Y-78800001D01*
X113900000Y-78050000D02*
X113500000Y-78050000D01*
X110500000Y-77800001D02*
X112100000Y-77800001D01*
X112100000Y-78300000D02*
X110500000Y-78300000D01*
X110450000Y-78050000D02*
X110500000Y-77800001D01*
X110500000Y-78300000D02*
X110450000Y-78050000D01*
D28*
G36*
X115978660Y-71503814D02*
G01*
X116015803Y-71573303D01*
X116065789Y-71634211D01*
X116126697Y-71684197D01*
X116196186Y-71721340D01*
X116271586Y-71744212D01*
X116350000Y-71751935D01*
X118250000Y-71751935D01*
X118275000Y-71749473D01*
X118275000Y-84105887D01*
X118229911Y-84060798D01*
X117836826Y-83798147D01*
X117400054Y-83617230D01*
X116936379Y-83525000D01*
X116463621Y-83525000D01*
X115999946Y-83617230D01*
X115563174Y-83798147D01*
X115170089Y-84060798D01*
X114835798Y-84395089D01*
X114573147Y-84788174D01*
X114392230Y-85224946D01*
X114300000Y-85688621D01*
X114300000Y-86161379D01*
X114392230Y-86625054D01*
X114573147Y-87061826D01*
X114835798Y-87454911D01*
X114880887Y-87500000D01*
X111301935Y-87500000D01*
X111301935Y-85850000D01*
X111294212Y-85771586D01*
X111271340Y-85696186D01*
X111234197Y-85626697D01*
X111184211Y-85565789D01*
X111123303Y-85515803D01*
X111053814Y-85478660D01*
X110978414Y-85455788D01*
X110900000Y-85448065D01*
X109700000Y-85448065D01*
X109621586Y-85455788D01*
X109546186Y-85478660D01*
X109476697Y-85515803D01*
X109415789Y-85565789D01*
X109365803Y-85626697D01*
X109328660Y-85696186D01*
X109305788Y-85771586D01*
X109298065Y-85850000D01*
X109298065Y-87500000D01*
X105701935Y-87500000D01*
X105701935Y-85850000D01*
X105694212Y-85771586D01*
X105671340Y-85696186D01*
X105634197Y-85626697D01*
X105584211Y-85565789D01*
X105523303Y-85515803D01*
X105453814Y-85478660D01*
X105378414Y-85455788D01*
X105300000Y-85448065D01*
X104100000Y-85448065D01*
X104021586Y-85455788D01*
X103946186Y-85478660D01*
X103876697Y-85515803D01*
X103815789Y-85565789D01*
X103765803Y-85626697D01*
X103728660Y-85696186D01*
X103705788Y-85771586D01*
X103698065Y-85850000D01*
X103698065Y-87500000D01*
X100682336Y-87500000D01*
X100741844Y-87460238D01*
X100860238Y-87341844D01*
X100953260Y-87202626D01*
X101017335Y-87047936D01*
X101050000Y-86883718D01*
X101050000Y-86716282D01*
X101017335Y-86552064D01*
X100953260Y-86397374D01*
X100860238Y-86258156D01*
X100741844Y-86139762D01*
X100602626Y-86046740D01*
X100447936Y-85982665D01*
X100283718Y-85950000D01*
X100116282Y-85950000D01*
X99952064Y-85982665D01*
X99797374Y-86046740D01*
X99658156Y-86139762D01*
X99590927Y-86206991D01*
X99600000Y-86161379D01*
X99600000Y-85688621D01*
X99507770Y-85224946D01*
X99326853Y-84788174D01*
X99064202Y-84395089D01*
X98729911Y-84060798D01*
X98336826Y-83798147D01*
X97979168Y-83650000D01*
X105298065Y-83650000D01*
X105305788Y-83728414D01*
X105328660Y-83803814D01*
X105365803Y-83873303D01*
X105415789Y-83934211D01*
X105476697Y-83984197D01*
X105546186Y-84021340D01*
X105621586Y-84044212D01*
X105700000Y-84051935D01*
X105850000Y-84050000D01*
X105950000Y-83950000D01*
X105950000Y-82925000D01*
X105400000Y-82925000D01*
X105300000Y-83025000D01*
X105298065Y-83650000D01*
X97979168Y-83650000D01*
X97900054Y-83617230D01*
X97436379Y-83525000D01*
X96963621Y-83525000D01*
X96499946Y-83617230D01*
X96063174Y-83798147D01*
X95670089Y-84060798D01*
X95625000Y-84105887D01*
X95625000Y-82549473D01*
X95650000Y-82551935D01*
X99050000Y-82551935D01*
X99128414Y-82544212D01*
X99203814Y-82521340D01*
X99273303Y-82484197D01*
X99334211Y-82434211D01*
X99384197Y-82373303D01*
X99421340Y-82303814D01*
X99444212Y-82228414D01*
X99451935Y-82150000D01*
X99451935Y-80779752D01*
X100191992Y-81519810D01*
X100209210Y-81540790D01*
X100230190Y-81558008D01*
X100230195Y-81558013D01*
X100260903Y-81583214D01*
X100292958Y-81609521D01*
X100388506Y-81660592D01*
X100492181Y-81692042D01*
X100572982Y-81700000D01*
X100572992Y-81700000D01*
X100600000Y-81702660D01*
X100627008Y-81700000D01*
X105680353Y-81700000D01*
X105621586Y-81705788D01*
X105546186Y-81728660D01*
X105476697Y-81765803D01*
X105415789Y-81815789D01*
X105365803Y-81876697D01*
X105328660Y-81946186D01*
X105305788Y-82021586D01*
X105298065Y-82100000D01*
X105300000Y-82725000D01*
X105400000Y-82825000D01*
X105950000Y-82825000D01*
X105950000Y-82805000D01*
X106050000Y-82805000D01*
X106050000Y-82825000D01*
X106070000Y-82825000D01*
X106070000Y-82925000D01*
X106050000Y-82925000D01*
X106050000Y-83950000D01*
X106150000Y-84050000D01*
X106300000Y-84051935D01*
X106375001Y-84044548D01*
X106375001Y-84410349D01*
X106374979Y-84410402D01*
X106350000Y-84535981D01*
X106350000Y-84664019D01*
X106374979Y-84789598D01*
X106423978Y-84907890D01*
X106495112Y-85014351D01*
X106585649Y-85104888D01*
X106692110Y-85176022D01*
X106810402Y-85225021D01*
X106935981Y-85250000D01*
X107064019Y-85250000D01*
X107189598Y-85225021D01*
X107307890Y-85176022D01*
X107414351Y-85104888D01*
X107504888Y-85014351D01*
X107576022Y-84907890D01*
X107625021Y-84789598D01*
X107650000Y-84664019D01*
X107650000Y-84535981D01*
X107625021Y-84410402D01*
X107625000Y-84410351D01*
X107625000Y-84044548D01*
X107700000Y-84051935D01*
X108300000Y-84051935D01*
X108378414Y-84044212D01*
X108453814Y-84021340D01*
X108500000Y-83996653D01*
X108546186Y-84021340D01*
X108621586Y-84044212D01*
X108700000Y-84051935D01*
X109300000Y-84051935D01*
X109378414Y-84044212D01*
X109453814Y-84021340D01*
X109523303Y-83984197D01*
X109584211Y-83934211D01*
X109634197Y-83873303D01*
X109671340Y-83803814D01*
X109694212Y-83728414D01*
X109701935Y-83650000D01*
X109701935Y-82100000D01*
X109694212Y-82021586D01*
X109671340Y-81946186D01*
X109634197Y-81876697D01*
X109584211Y-81815789D01*
X109551577Y-81789007D01*
X109550000Y-81772991D01*
X109550000Y-81772982D01*
X109542042Y-81692181D01*
X109510592Y-81588506D01*
X109459521Y-81492958D01*
X109433415Y-81461148D01*
X109408013Y-81430195D01*
X109408008Y-81430190D01*
X109390790Y-81409210D01*
X109369810Y-81391992D01*
X109002819Y-81025001D01*
X111178901Y-81025001D01*
X111253900Y-81100000D01*
X112050000Y-81100000D01*
X112050000Y-81081336D01*
X112150000Y-81081336D01*
X112150000Y-81100000D01*
X112170000Y-81100000D01*
X112170000Y-81200000D01*
X112150000Y-81200000D01*
X112150000Y-81220000D01*
X112050000Y-81220000D01*
X112050000Y-81200000D01*
X111253900Y-81200000D01*
X111153900Y-81300000D01*
X111151965Y-81429400D01*
X111159688Y-81507814D01*
X111182560Y-81583214D01*
X111219703Y-81652703D01*
X111269689Y-81713611D01*
X111330597Y-81763597D01*
X111400086Y-81800740D01*
X111457429Y-81818135D01*
X111453052Y-81823468D01*
X111362145Y-81993543D01*
X111306165Y-82178085D01*
X111287263Y-82370002D01*
X111306165Y-82561919D01*
X111362145Y-82746461D01*
X111453052Y-82916536D01*
X111575393Y-83065608D01*
X111724465Y-83187949D01*
X111894540Y-83278856D01*
X112079082Y-83334836D01*
X112222913Y-83349002D01*
X113319085Y-83349002D01*
X113462916Y-83334836D01*
X113647458Y-83278856D01*
X113817533Y-83187949D01*
X113966605Y-83065608D01*
X114088946Y-82916536D01*
X114179853Y-82746461D01*
X114235833Y-82561919D01*
X114254735Y-82370002D01*
X114962264Y-82370002D01*
X114981166Y-82561919D01*
X115037146Y-82746461D01*
X115128053Y-82916536D01*
X115250394Y-83065608D01*
X115399466Y-83187949D01*
X115569541Y-83278856D01*
X115754083Y-83334836D01*
X115897914Y-83349002D01*
X117294086Y-83349002D01*
X117437917Y-83334836D01*
X117622459Y-83278856D01*
X117792534Y-83187949D01*
X117941606Y-83065608D01*
X118063947Y-82916536D01*
X118154854Y-82746461D01*
X118210834Y-82561919D01*
X118229736Y-82370002D01*
X118210834Y-82178085D01*
X118154854Y-81993543D01*
X118063947Y-81823468D01*
X117941606Y-81674396D01*
X117792534Y-81552055D01*
X117622459Y-81461148D01*
X117437917Y-81405168D01*
X117294086Y-81391002D01*
X115897914Y-81391002D01*
X115754083Y-81405168D01*
X115569541Y-81461148D01*
X115399466Y-81552055D01*
X115250394Y-81674396D01*
X115128053Y-81823468D01*
X115037146Y-81993543D01*
X114981166Y-82178085D01*
X114962264Y-82370002D01*
X114254735Y-82370002D01*
X114235833Y-82178085D01*
X114179853Y-81993543D01*
X114088946Y-81823468D01*
X113966605Y-81674396D01*
X113817533Y-81552055D01*
X113723921Y-81502018D01*
X113796487Y-81393416D01*
X113851139Y-81261475D01*
X113879000Y-81121406D01*
X113879000Y-80978594D01*
X113851139Y-80838525D01*
X113796487Y-80706584D01*
X113717144Y-80587839D01*
X113616161Y-80486856D01*
X113497416Y-80407513D01*
X113365475Y-80352861D01*
X113225406Y-80325000D01*
X113082594Y-80325000D01*
X113048035Y-80331874D01*
X113048035Y-80120601D01*
X113040312Y-80042187D01*
X113020292Y-79976189D01*
X113022635Y-79952399D01*
X113022635Y-79647599D01*
X113014912Y-79569185D01*
X113009092Y-79549999D01*
X113014912Y-79530814D01*
X113022635Y-79452400D01*
X113022635Y-79350001D01*
X113122991Y-79350001D01*
X113149999Y-79352661D01*
X113177007Y-79350001D01*
X113177017Y-79350001D01*
X113257818Y-79342043D01*
X113361493Y-79310593D01*
X113457041Y-79259522D01*
X113540789Y-79190791D01*
X113558012Y-79169805D01*
X113773117Y-78954700D01*
X115190765Y-78954700D01*
X115190765Y-79945300D01*
X115198488Y-80023714D01*
X115221360Y-80099114D01*
X115258503Y-80168603D01*
X115308489Y-80229511D01*
X115369397Y-80279497D01*
X115438886Y-80316640D01*
X115514286Y-80339512D01*
X115592700Y-80347235D01*
X117599300Y-80347235D01*
X117677714Y-80339512D01*
X117753114Y-80316640D01*
X117822603Y-80279497D01*
X117883511Y-80229511D01*
X117933497Y-80168603D01*
X117970640Y-80099114D01*
X117993512Y-80023714D01*
X118001235Y-79945300D01*
X118001235Y-78954700D01*
X117993512Y-78876286D01*
X117970640Y-78800886D01*
X117933497Y-78731397D01*
X117883511Y-78670489D01*
X117822603Y-78620503D01*
X117753114Y-78583360D01*
X117677714Y-78560488D01*
X117599300Y-78552765D01*
X115592700Y-78552765D01*
X115514286Y-78560488D01*
X115438886Y-78583360D01*
X115369397Y-78620503D01*
X115308489Y-78670489D01*
X115258503Y-78731397D01*
X115221360Y-78800886D01*
X115198488Y-78876286D01*
X115190765Y-78954700D01*
X113773117Y-78954700D01*
X114269804Y-78458013D01*
X114290790Y-78440790D01*
X114359521Y-78357042D01*
X114410592Y-78261494D01*
X114442042Y-78157819D01*
X114452661Y-78050000D01*
X114442042Y-77942181D01*
X114410592Y-77838506D01*
X114359521Y-77742958D01*
X114290790Y-77659210D01*
X114269804Y-77641987D01*
X113558012Y-76930195D01*
X113540789Y-76909209D01*
X113457041Y-76840478D01*
X113361493Y-76789407D01*
X113257818Y-76757957D01*
X113177017Y-76749999D01*
X113177007Y-76749999D01*
X113149999Y-76747339D01*
X113122991Y-76749999D01*
X113022635Y-76749999D01*
X113022635Y-76647600D01*
X113014912Y-76569186D01*
X113009092Y-76550000D01*
X113014912Y-76530815D01*
X113022635Y-76452401D01*
X113022635Y-76154701D01*
X115190765Y-76154701D01*
X115190765Y-77145301D01*
X115198488Y-77223715D01*
X115221360Y-77299115D01*
X115258503Y-77368604D01*
X115308489Y-77429512D01*
X115369397Y-77479498D01*
X115438886Y-77516641D01*
X115514286Y-77539513D01*
X115592700Y-77547236D01*
X117599300Y-77547236D01*
X117677714Y-77539513D01*
X117753114Y-77516641D01*
X117822603Y-77479498D01*
X117883511Y-77429512D01*
X117933497Y-77368604D01*
X117970640Y-77299115D01*
X117993512Y-77223715D01*
X118001235Y-77145301D01*
X118001235Y-76154701D01*
X117993512Y-76076287D01*
X117970640Y-76000887D01*
X117933497Y-75931398D01*
X117883511Y-75870490D01*
X117822603Y-75820504D01*
X117753114Y-75783361D01*
X117677714Y-75760489D01*
X117599300Y-75752766D01*
X115592700Y-75752766D01*
X115514286Y-75760489D01*
X115438886Y-75783361D01*
X115369397Y-75820504D01*
X115308489Y-75870490D01*
X115258503Y-75931398D01*
X115221360Y-76000887D01*
X115198488Y-76076287D01*
X115190765Y-76154701D01*
X113022635Y-76154701D01*
X113022635Y-76147601D01*
X113020292Y-76123812D01*
X113040312Y-76057814D01*
X113048035Y-75979400D01*
X113048035Y-75868071D01*
X113154001Y-75878508D01*
X113296126Y-75864510D01*
X113432789Y-75823054D01*
X113558738Y-75755732D01*
X113669133Y-75665133D01*
X113759732Y-75554738D01*
X113827054Y-75428788D01*
X113868510Y-75292125D01*
X113879001Y-75185607D01*
X113879001Y-74914394D01*
X113868510Y-74807876D01*
X113827054Y-74671213D01*
X113773858Y-74571691D01*
X113817533Y-74548346D01*
X113966605Y-74426005D01*
X114088946Y-74276933D01*
X114179853Y-74106858D01*
X114235833Y-73922316D01*
X114254735Y-73730399D01*
X114254696Y-73729999D01*
X114962264Y-73729999D01*
X114981166Y-73921916D01*
X115037146Y-74106458D01*
X115128053Y-74276533D01*
X115250394Y-74425605D01*
X115399466Y-74547946D01*
X115569541Y-74638853D01*
X115754083Y-74694833D01*
X115897914Y-74708999D01*
X117294086Y-74708999D01*
X117437917Y-74694833D01*
X117622459Y-74638853D01*
X117792534Y-74547946D01*
X117941606Y-74425605D01*
X118063947Y-74276533D01*
X118154854Y-74106458D01*
X118210834Y-73921916D01*
X118229736Y-73729999D01*
X118210834Y-73538082D01*
X118154854Y-73353540D01*
X118063947Y-73183465D01*
X117941606Y-73034393D01*
X117792534Y-72912052D01*
X117622459Y-72821145D01*
X117437917Y-72765165D01*
X117294086Y-72750999D01*
X115897914Y-72750999D01*
X115754083Y-72765165D01*
X115569541Y-72821145D01*
X115399466Y-72912052D01*
X115250394Y-73034393D01*
X115128053Y-73183465D01*
X115037146Y-73353540D01*
X114981166Y-73538082D01*
X114962264Y-73729999D01*
X114254696Y-73729999D01*
X114235833Y-73538482D01*
X114179853Y-73353940D01*
X114088946Y-73183865D01*
X113966605Y-73034793D01*
X113817533Y-72912452D01*
X113647458Y-72821545D01*
X113462916Y-72765565D01*
X113319085Y-72751399D01*
X112222913Y-72751399D01*
X112079082Y-72765565D01*
X111894540Y-72821545D01*
X111724465Y-72912452D01*
X111575393Y-73034793D01*
X111453052Y-73183865D01*
X111362145Y-73353940D01*
X111306165Y-73538482D01*
X111287263Y-73730399D01*
X111306165Y-73922316D01*
X111362145Y-74106858D01*
X111453052Y-74276933D01*
X111457166Y-74281946D01*
X111400086Y-74299261D01*
X111330597Y-74336404D01*
X111269689Y-74386390D01*
X111219703Y-74447298D01*
X111182560Y-74516787D01*
X111159688Y-74592187D01*
X111151965Y-74670601D01*
X111153900Y-74800001D01*
X111253900Y-74900001D01*
X112050000Y-74900001D01*
X112050000Y-74880001D01*
X112150000Y-74880001D01*
X112150000Y-74900001D01*
X112170000Y-74900001D01*
X112170000Y-75000001D01*
X112150000Y-75000001D01*
X112150000Y-75018665D01*
X112050000Y-75018665D01*
X112050000Y-75000001D01*
X111253900Y-75000001D01*
X111178901Y-75075000D01*
X108980701Y-75075000D01*
X108950000Y-75071976D01*
X108919298Y-75075000D01*
X108919296Y-75075000D01*
X108827479Y-75084043D01*
X108709666Y-75119781D01*
X108601089Y-75177817D01*
X108505920Y-75255920D01*
X108486346Y-75279771D01*
X106341118Y-77425000D01*
X105808882Y-77425000D01*
X111758883Y-71475000D01*
X115969919Y-71475000D01*
X115978660Y-71503814D01*
G37*
X115978660Y-71503814D02*
X116015803Y-71573303D01*
X116065789Y-71634211D01*
X116126697Y-71684197D01*
X116196186Y-71721340D01*
X116271586Y-71744212D01*
X116350000Y-71751935D01*
X118250000Y-71751935D01*
X118275000Y-71749473D01*
X118275000Y-84105887D01*
X118229911Y-84060798D01*
X117836826Y-83798147D01*
X117400054Y-83617230D01*
X116936379Y-83525000D01*
X116463621Y-83525000D01*
X115999946Y-83617230D01*
X115563174Y-83798147D01*
X115170089Y-84060798D01*
X114835798Y-84395089D01*
X114573147Y-84788174D01*
X114392230Y-85224946D01*
X114300000Y-85688621D01*
X114300000Y-86161379D01*
X114392230Y-86625054D01*
X114573147Y-87061826D01*
X114835798Y-87454911D01*
X114880887Y-87500000D01*
X111301935Y-87500000D01*
X111301935Y-85850000D01*
X111294212Y-85771586D01*
X111271340Y-85696186D01*
X111234197Y-85626697D01*
X111184211Y-85565789D01*
X111123303Y-85515803D01*
X111053814Y-85478660D01*
X110978414Y-85455788D01*
X110900000Y-85448065D01*
X109700000Y-85448065D01*
X109621586Y-85455788D01*
X109546186Y-85478660D01*
X109476697Y-85515803D01*
X109415789Y-85565789D01*
X109365803Y-85626697D01*
X109328660Y-85696186D01*
X109305788Y-85771586D01*
X109298065Y-85850000D01*
X109298065Y-87500000D01*
X105701935Y-87500000D01*
X105701935Y-85850000D01*
X105694212Y-85771586D01*
X105671340Y-85696186D01*
X105634197Y-85626697D01*
X105584211Y-85565789D01*
X105523303Y-85515803D01*
X105453814Y-85478660D01*
X105378414Y-85455788D01*
X105300000Y-85448065D01*
X104100000Y-85448065D01*
X104021586Y-85455788D01*
X103946186Y-85478660D01*
X103876697Y-85515803D01*
X103815789Y-85565789D01*
X103765803Y-85626697D01*
X103728660Y-85696186D01*
X103705788Y-85771586D01*
X103698065Y-85850000D01*
X103698065Y-87500000D01*
X100682336Y-87500000D01*
X100741844Y-87460238D01*
X100860238Y-87341844D01*
X100953260Y-87202626D01*
X101017335Y-87047936D01*
X101050000Y-86883718D01*
X101050000Y-86716282D01*
X101017335Y-86552064D01*
X100953260Y-86397374D01*
X100860238Y-86258156D01*
X100741844Y-86139762D01*
X100602626Y-86046740D01*
X100447936Y-85982665D01*
X100283718Y-85950000D01*
X100116282Y-85950000D01*
X99952064Y-85982665D01*
X99797374Y-86046740D01*
X99658156Y-86139762D01*
X99590927Y-86206991D01*
X99600000Y-86161379D01*
X99600000Y-85688621D01*
X99507770Y-85224946D01*
X99326853Y-84788174D01*
X99064202Y-84395089D01*
X98729911Y-84060798D01*
X98336826Y-83798147D01*
X97979168Y-83650000D01*
X105298065Y-83650000D01*
X105305788Y-83728414D01*
X105328660Y-83803814D01*
X105365803Y-83873303D01*
X105415789Y-83934211D01*
X105476697Y-83984197D01*
X105546186Y-84021340D01*
X105621586Y-84044212D01*
X105700000Y-84051935D01*
X105850000Y-84050000D01*
X105950000Y-83950000D01*
X105950000Y-82925000D01*
X105400000Y-82925000D01*
X105300000Y-83025000D01*
X105298065Y-83650000D01*
X97979168Y-83650000D01*
X97900054Y-83617230D01*
X97436379Y-83525000D01*
X96963621Y-83525000D01*
X96499946Y-83617230D01*
X96063174Y-83798147D01*
X95670089Y-84060798D01*
X95625000Y-84105887D01*
X95625000Y-82549473D01*
X95650000Y-82551935D01*
X99050000Y-82551935D01*
X99128414Y-82544212D01*
X99203814Y-82521340D01*
X99273303Y-82484197D01*
X99334211Y-82434211D01*
X99384197Y-82373303D01*
X99421340Y-82303814D01*
X99444212Y-82228414D01*
X99451935Y-82150000D01*
X99451935Y-80779752D01*
X100191992Y-81519810D01*
X100209210Y-81540790D01*
X100230190Y-81558008D01*
X100230195Y-81558013D01*
X100260903Y-81583214D01*
X100292958Y-81609521D01*
X100388506Y-81660592D01*
X100492181Y-81692042D01*
X100572982Y-81700000D01*
X100572992Y-81700000D01*
X100600000Y-81702660D01*
X100627008Y-81700000D01*
X105680353Y-81700000D01*
X105621586Y-81705788D01*
X105546186Y-81728660D01*
X105476697Y-81765803D01*
X105415789Y-81815789D01*
X105365803Y-81876697D01*
X105328660Y-81946186D01*
X105305788Y-82021586D01*
X105298065Y-82100000D01*
X105300000Y-82725000D01*
X105400000Y-82825000D01*
X105950000Y-82825000D01*
X105950000Y-82805000D01*
X106050000Y-82805000D01*
X106050000Y-82825000D01*
X106070000Y-82825000D01*
X106070000Y-82925000D01*
X106050000Y-82925000D01*
X106050000Y-83950000D01*
X106150000Y-84050000D01*
X106300000Y-84051935D01*
X106375001Y-84044548D01*
X106375001Y-84410349D01*
X106374979Y-84410402D01*
X106350000Y-84535981D01*
X106350000Y-84664019D01*
X106374979Y-84789598D01*
X106423978Y-84907890D01*
X106495112Y-85014351D01*
X106585649Y-85104888D01*
X106692110Y-85176022D01*
X106810402Y-85225021D01*
X106935981Y-85250000D01*
X107064019Y-85250000D01*
X107189598Y-85225021D01*
X107307890Y-85176022D01*
X107414351Y-85104888D01*
X107504888Y-85014351D01*
X107576022Y-84907890D01*
X107625021Y-84789598D01*
X107650000Y-84664019D01*
X107650000Y-84535981D01*
X107625021Y-84410402D01*
X107625000Y-84410351D01*
X107625000Y-84044548D01*
X107700000Y-84051935D01*
X108300000Y-84051935D01*
X108378414Y-84044212D01*
X108453814Y-84021340D01*
X108500000Y-83996653D01*
X108546186Y-84021340D01*
X108621586Y-84044212D01*
X108700000Y-84051935D01*
X109300000Y-84051935D01*
X109378414Y-84044212D01*
X109453814Y-84021340D01*
X109523303Y-83984197D01*
X109584211Y-83934211D01*
X109634197Y-83873303D01*
X109671340Y-83803814D01*
X109694212Y-83728414D01*
X109701935Y-83650000D01*
X109701935Y-82100000D01*
X109694212Y-82021586D01*
X109671340Y-81946186D01*
X109634197Y-81876697D01*
X109584211Y-81815789D01*
X109551577Y-81789007D01*
X109550000Y-81772991D01*
X109550000Y-81772982D01*
X109542042Y-81692181D01*
X109510592Y-81588506D01*
X109459521Y-81492958D01*
X109433415Y-81461148D01*
X109408013Y-81430195D01*
X109408008Y-81430190D01*
X109390790Y-81409210D01*
X109369810Y-81391992D01*
X109002819Y-81025001D01*
X111178901Y-81025001D01*
X111253900Y-81100000D01*
X112050000Y-81100000D01*
X112050000Y-81081336D01*
X112150000Y-81081336D01*
X112150000Y-81100000D01*
X112170000Y-81100000D01*
X112170000Y-81200000D01*
X112150000Y-81200000D01*
X112150000Y-81220000D01*
X112050000Y-81220000D01*
X112050000Y-81200000D01*
X111253900Y-81200000D01*
X111153900Y-81300000D01*
X111151965Y-81429400D01*
X111159688Y-81507814D01*
X111182560Y-81583214D01*
X111219703Y-81652703D01*
X111269689Y-81713611D01*
X111330597Y-81763597D01*
X111400086Y-81800740D01*
X111457429Y-81818135D01*
X111453052Y-81823468D01*
X111362145Y-81993543D01*
X111306165Y-82178085D01*
X111287263Y-82370002D01*
X111306165Y-82561919D01*
X111362145Y-82746461D01*
X111453052Y-82916536D01*
X111575393Y-83065608D01*
X111724465Y-83187949D01*
X111894540Y-83278856D01*
X112079082Y-83334836D01*
X112222913Y-83349002D01*
X113319085Y-83349002D01*
X113462916Y-83334836D01*
X113647458Y-83278856D01*
X113817533Y-83187949D01*
X113966605Y-83065608D01*
X114088946Y-82916536D01*
X114179853Y-82746461D01*
X114235833Y-82561919D01*
X114254735Y-82370002D01*
X114962264Y-82370002D01*
X114981166Y-82561919D01*
X115037146Y-82746461D01*
X115128053Y-82916536D01*
X115250394Y-83065608D01*
X115399466Y-83187949D01*
X115569541Y-83278856D01*
X115754083Y-83334836D01*
X115897914Y-83349002D01*
X117294086Y-83349002D01*
X117437917Y-83334836D01*
X117622459Y-83278856D01*
X117792534Y-83187949D01*
X117941606Y-83065608D01*
X118063947Y-82916536D01*
X118154854Y-82746461D01*
X118210834Y-82561919D01*
X118229736Y-82370002D01*
X118210834Y-82178085D01*
X118154854Y-81993543D01*
X118063947Y-81823468D01*
X117941606Y-81674396D01*
X117792534Y-81552055D01*
X117622459Y-81461148D01*
X117437917Y-81405168D01*
X117294086Y-81391002D01*
X115897914Y-81391002D01*
X115754083Y-81405168D01*
X115569541Y-81461148D01*
X115399466Y-81552055D01*
X115250394Y-81674396D01*
X115128053Y-81823468D01*
X115037146Y-81993543D01*
X114981166Y-82178085D01*
X114962264Y-82370002D01*
X114254735Y-82370002D01*
X114235833Y-82178085D01*
X114179853Y-81993543D01*
X114088946Y-81823468D01*
X113966605Y-81674396D01*
X113817533Y-81552055D01*
X113723921Y-81502018D01*
X113796487Y-81393416D01*
X113851139Y-81261475D01*
X113879000Y-81121406D01*
X113879000Y-80978594D01*
X113851139Y-80838525D01*
X113796487Y-80706584D01*
X113717144Y-80587839D01*
X113616161Y-80486856D01*
X113497416Y-80407513D01*
X113365475Y-80352861D01*
X113225406Y-80325000D01*
X113082594Y-80325000D01*
X113048035Y-80331874D01*
X113048035Y-80120601D01*
X113040312Y-80042187D01*
X113020292Y-79976189D01*
X113022635Y-79952399D01*
X113022635Y-79647599D01*
X113014912Y-79569185D01*
X113009092Y-79549999D01*
X113014912Y-79530814D01*
X113022635Y-79452400D01*
X113022635Y-79350001D01*
X113122991Y-79350001D01*
X113149999Y-79352661D01*
X113177007Y-79350001D01*
X113177017Y-79350001D01*
X113257818Y-79342043D01*
X113361493Y-79310593D01*
X113457041Y-79259522D01*
X113540789Y-79190791D01*
X113558012Y-79169805D01*
X113773117Y-78954700D01*
X115190765Y-78954700D01*
X115190765Y-79945300D01*
X115198488Y-80023714D01*
X115221360Y-80099114D01*
X115258503Y-80168603D01*
X115308489Y-80229511D01*
X115369397Y-80279497D01*
X115438886Y-80316640D01*
X115514286Y-80339512D01*
X115592700Y-80347235D01*
X117599300Y-80347235D01*
X117677714Y-80339512D01*
X117753114Y-80316640D01*
X117822603Y-80279497D01*
X117883511Y-80229511D01*
X117933497Y-80168603D01*
X117970640Y-80099114D01*
X117993512Y-80023714D01*
X118001235Y-79945300D01*
X118001235Y-78954700D01*
X117993512Y-78876286D01*
X117970640Y-78800886D01*
X117933497Y-78731397D01*
X117883511Y-78670489D01*
X117822603Y-78620503D01*
X117753114Y-78583360D01*
X117677714Y-78560488D01*
X117599300Y-78552765D01*
X115592700Y-78552765D01*
X115514286Y-78560488D01*
X115438886Y-78583360D01*
X115369397Y-78620503D01*
X115308489Y-78670489D01*
X115258503Y-78731397D01*
X115221360Y-78800886D01*
X115198488Y-78876286D01*
X115190765Y-78954700D01*
X113773117Y-78954700D01*
X114269804Y-78458013D01*
X114290790Y-78440790D01*
X114359521Y-78357042D01*
X114410592Y-78261494D01*
X114442042Y-78157819D01*
X114452661Y-78050000D01*
X114442042Y-77942181D01*
X114410592Y-77838506D01*
X114359521Y-77742958D01*
X114290790Y-77659210D01*
X114269804Y-77641987D01*
X113558012Y-76930195D01*
X113540789Y-76909209D01*
X113457041Y-76840478D01*
X113361493Y-76789407D01*
X113257818Y-76757957D01*
X113177017Y-76749999D01*
X113177007Y-76749999D01*
X113149999Y-76747339D01*
X113122991Y-76749999D01*
X113022635Y-76749999D01*
X113022635Y-76647600D01*
X113014912Y-76569186D01*
X113009092Y-76550000D01*
X113014912Y-76530815D01*
X113022635Y-76452401D01*
X113022635Y-76154701D01*
X115190765Y-76154701D01*
X115190765Y-77145301D01*
X115198488Y-77223715D01*
X115221360Y-77299115D01*
X115258503Y-77368604D01*
X115308489Y-77429512D01*
X115369397Y-77479498D01*
X115438886Y-77516641D01*
X115514286Y-77539513D01*
X115592700Y-77547236D01*
X117599300Y-77547236D01*
X117677714Y-77539513D01*
X117753114Y-77516641D01*
X117822603Y-77479498D01*
X117883511Y-77429512D01*
X117933497Y-77368604D01*
X117970640Y-77299115D01*
X117993512Y-77223715D01*
X118001235Y-77145301D01*
X118001235Y-76154701D01*
X117993512Y-76076287D01*
X117970640Y-76000887D01*
X117933497Y-75931398D01*
X117883511Y-75870490D01*
X117822603Y-75820504D01*
X117753114Y-75783361D01*
X117677714Y-75760489D01*
X117599300Y-75752766D01*
X115592700Y-75752766D01*
X115514286Y-75760489D01*
X115438886Y-75783361D01*
X115369397Y-75820504D01*
X115308489Y-75870490D01*
X115258503Y-75931398D01*
X115221360Y-76000887D01*
X115198488Y-76076287D01*
X115190765Y-76154701D01*
X113022635Y-76154701D01*
X113022635Y-76147601D01*
X113020292Y-76123812D01*
X113040312Y-76057814D01*
X113048035Y-75979400D01*
X113048035Y-75868071D01*
X113154001Y-75878508D01*
X113296126Y-75864510D01*
X113432789Y-75823054D01*
X113558738Y-75755732D01*
X113669133Y-75665133D01*
X113759732Y-75554738D01*
X113827054Y-75428788D01*
X113868510Y-75292125D01*
X113879001Y-75185607D01*
X113879001Y-74914394D01*
X113868510Y-74807876D01*
X113827054Y-74671213D01*
X113773858Y-74571691D01*
X113817533Y-74548346D01*
X113966605Y-74426005D01*
X114088946Y-74276933D01*
X114179853Y-74106858D01*
X114235833Y-73922316D01*
X114254735Y-73730399D01*
X114254696Y-73729999D01*
X114962264Y-73729999D01*
X114981166Y-73921916D01*
X115037146Y-74106458D01*
X115128053Y-74276533D01*
X115250394Y-74425605D01*
X115399466Y-74547946D01*
X115569541Y-74638853D01*
X115754083Y-74694833D01*
X115897914Y-74708999D01*
X117294086Y-74708999D01*
X117437917Y-74694833D01*
X117622459Y-74638853D01*
X117792534Y-74547946D01*
X117941606Y-74425605D01*
X118063947Y-74276533D01*
X118154854Y-74106458D01*
X118210834Y-73921916D01*
X118229736Y-73729999D01*
X118210834Y-73538082D01*
X118154854Y-73353540D01*
X118063947Y-73183465D01*
X117941606Y-73034393D01*
X117792534Y-72912052D01*
X117622459Y-72821145D01*
X117437917Y-72765165D01*
X117294086Y-72750999D01*
X115897914Y-72750999D01*
X115754083Y-72765165D01*
X115569541Y-72821145D01*
X115399466Y-72912052D01*
X115250394Y-73034393D01*
X115128053Y-73183465D01*
X115037146Y-73353540D01*
X114981166Y-73538082D01*
X114962264Y-73729999D01*
X114254696Y-73729999D01*
X114235833Y-73538482D01*
X114179853Y-73353940D01*
X114088946Y-73183865D01*
X113966605Y-73034793D01*
X113817533Y-72912452D01*
X113647458Y-72821545D01*
X113462916Y-72765565D01*
X113319085Y-72751399D01*
X112222913Y-72751399D01*
X112079082Y-72765565D01*
X111894540Y-72821545D01*
X111724465Y-72912452D01*
X111575393Y-73034793D01*
X111453052Y-73183865D01*
X111362145Y-73353940D01*
X111306165Y-73538482D01*
X111287263Y-73730399D01*
X111306165Y-73922316D01*
X111362145Y-74106858D01*
X111453052Y-74276933D01*
X111457166Y-74281946D01*
X111400086Y-74299261D01*
X111330597Y-74336404D01*
X111269689Y-74386390D01*
X111219703Y-74447298D01*
X111182560Y-74516787D01*
X111159688Y-74592187D01*
X111151965Y-74670601D01*
X111153900Y-74800001D01*
X111253900Y-74900001D01*
X112050000Y-74900001D01*
X112050000Y-74880001D01*
X112150000Y-74880001D01*
X112150000Y-74900001D01*
X112170000Y-74900001D01*
X112170000Y-75000001D01*
X112150000Y-75000001D01*
X112150000Y-75018665D01*
X112050000Y-75018665D01*
X112050000Y-75000001D01*
X111253900Y-75000001D01*
X111178901Y-75075000D01*
X108980701Y-75075000D01*
X108950000Y-75071976D01*
X108919298Y-75075000D01*
X108919296Y-75075000D01*
X108827479Y-75084043D01*
X108709666Y-75119781D01*
X108601089Y-75177817D01*
X108505920Y-75255920D01*
X108486346Y-75279771D01*
X106341118Y-77425000D01*
X105808882Y-77425000D01*
X111758883Y-71475000D01*
X115969919Y-71475000D01*
X115978660Y-71503814D01*
G36*
X95650000Y-75851935D02*
G01*
X98950001Y-75851935D01*
X98950000Y-80022992D01*
X98947340Y-80050000D01*
X98950000Y-80077008D01*
X98950000Y-80077017D01*
X98957958Y-80157818D01*
X98985335Y-80248065D01*
X95650000Y-80248065D01*
X95625000Y-80250527D01*
X95625000Y-75849473D01*
X95650000Y-75851935D01*
G37*
X95650000Y-75851935D02*
X98950001Y-75851935D01*
X98950000Y-80022992D01*
X98947340Y-80050000D01*
X98950000Y-80077008D01*
X98950000Y-80077017D01*
X98957958Y-80157818D01*
X98985335Y-80248065D01*
X95650000Y-80248065D01*
X95625000Y-80250527D01*
X95625000Y-75849473D01*
X95650000Y-75851935D01*
G36*
X100711344Y-78470229D02*
G01*
X100730918Y-78494080D01*
X100826087Y-78572183D01*
X100934664Y-78630219D01*
X100948532Y-78634426D01*
X100950000Y-78900000D01*
X101050000Y-79000000D01*
X103050000Y-79000000D01*
X103050000Y-78980000D01*
X103150000Y-78980000D01*
X103150000Y-79000000D01*
X105150000Y-79000000D01*
X105250000Y-78900000D01*
X105251244Y-78675000D01*
X106341118Y-78675000D01*
X107566117Y-79900000D01*
X105043738Y-79900000D01*
X105073303Y-79884197D01*
X105134211Y-79834211D01*
X105184197Y-79773303D01*
X105221340Y-79703814D01*
X105244212Y-79628414D01*
X105251935Y-79550000D01*
X105250000Y-79200000D01*
X105150000Y-79100000D01*
X103150000Y-79100000D01*
X103150000Y-79120000D01*
X103050000Y-79120000D01*
X103050000Y-79100000D01*
X101050000Y-79100000D01*
X100950000Y-79200000D01*
X100948065Y-79550000D01*
X100955788Y-79628414D01*
X100978660Y-79703814D01*
X101015803Y-79773303D01*
X101065789Y-79834211D01*
X101126697Y-79884197D01*
X101156262Y-79900000D01*
X101127817Y-79900000D01*
X100650010Y-79422193D01*
X100650010Y-78408895D01*
X100711344Y-78470229D01*
G37*
X100711344Y-78470229D02*
X100730918Y-78494080D01*
X100826087Y-78572183D01*
X100934664Y-78630219D01*
X100948532Y-78634426D01*
X100950000Y-78900000D01*
X101050000Y-79000000D01*
X103050000Y-79000000D01*
X103050000Y-78980000D01*
X103150000Y-78980000D01*
X103150000Y-79000000D01*
X105150000Y-79000000D01*
X105250000Y-78900000D01*
X105251244Y-78675000D01*
X106341118Y-78675000D01*
X107566117Y-79900000D01*
X105043738Y-79900000D01*
X105073303Y-79884197D01*
X105134211Y-79834211D01*
X105184197Y-79773303D01*
X105221340Y-79703814D01*
X105244212Y-79628414D01*
X105251935Y-79550000D01*
X105250000Y-79200000D01*
X105150000Y-79100000D01*
X103150000Y-79100000D01*
X103150000Y-79120000D01*
X103050000Y-79120000D01*
X103050000Y-79100000D01*
X101050000Y-79100000D01*
X100950000Y-79200000D01*
X100948065Y-79550000D01*
X100955788Y-79628414D01*
X100978660Y-79703814D01*
X101015803Y-79773303D01*
X101065789Y-79834211D01*
X101126697Y-79884197D01*
X101156262Y-79900000D01*
X101127817Y-79900000D01*
X100650010Y-79422193D01*
X100650010Y-78408895D01*
X100711344Y-78470229D01*
G36*
X108970000Y-76750000D02*
G01*
X109450000Y-76750000D01*
X109450000Y-76730000D01*
X109508065Y-76730000D01*
X109508065Y-76900000D01*
X109517710Y-76997923D01*
X109546273Y-77092082D01*
X109550000Y-77099055D01*
X109550000Y-77300000D01*
X109650000Y-77400000D01*
X109730000Y-77401935D01*
X109808414Y-77394212D01*
X109863414Y-77377528D01*
X109912077Y-77392290D01*
X110010000Y-77401935D01*
X110118005Y-77401935D01*
X110109619Y-77408802D01*
X110109433Y-77409028D01*
X110109210Y-77409211D01*
X110074876Y-77451046D01*
X110040801Y-77492479D01*
X110040666Y-77492732D01*
X110040479Y-77492959D01*
X110014816Y-77540971D01*
X109989630Y-77587973D01*
X109989546Y-77588249D01*
X109989408Y-77588507D01*
X109988169Y-77592592D01*
X109945112Y-77635649D01*
X109873978Y-77742110D01*
X109824979Y-77860402D01*
X109800000Y-77985981D01*
X109800000Y-78114019D01*
X109824979Y-78239598D01*
X109873978Y-78357890D01*
X109945112Y-78464351D01*
X109988168Y-78507407D01*
X109989408Y-78511494D01*
X109989546Y-78511752D01*
X109989630Y-78512028D01*
X110014816Y-78559030D01*
X110040479Y-78607042D01*
X110040666Y-78607269D01*
X110040801Y-78607522D01*
X110074685Y-78648722D01*
X110109210Y-78690790D01*
X110109436Y-78690975D01*
X110109619Y-78691198D01*
X110150613Y-78724769D01*
X110192958Y-78759521D01*
X110193221Y-78759661D01*
X110193440Y-78759841D01*
X110240267Y-78784808D01*
X110288506Y-78810592D01*
X110288786Y-78810677D01*
X110289041Y-78810813D01*
X110340199Y-78826273D01*
X110392181Y-78842042D01*
X110392474Y-78842071D01*
X110392749Y-78842154D01*
X110445838Y-78847327D01*
X110472982Y-78850000D01*
X110473276Y-78850000D01*
X110500577Y-78852660D01*
X110527298Y-78850000D01*
X111177365Y-78850000D01*
X111177365Y-78952401D01*
X111185088Y-79030815D01*
X111190908Y-79050000D01*
X111185088Y-79069186D01*
X111177365Y-79147600D01*
X111177365Y-79249999D01*
X110467762Y-79249999D01*
X110442082Y-79236273D01*
X110347923Y-79207710D01*
X110250000Y-79198065D01*
X109990000Y-79198065D01*
X109892077Y-79207710D01*
X109843414Y-79222472D01*
X109788414Y-79205788D01*
X109710000Y-79198065D01*
X109630000Y-79200000D01*
X109530000Y-79300000D01*
X109530000Y-79500945D01*
X109526273Y-79507918D01*
X109497710Y-79602077D01*
X109488065Y-79700000D01*
X109488065Y-79775001D01*
X109410000Y-79775001D01*
X109410000Y-79750000D01*
X109430000Y-79750000D01*
X109430000Y-79300000D01*
X109330000Y-79200000D01*
X109250000Y-79198065D01*
X109171586Y-79205788D01*
X109096186Y-79228660D01*
X109026697Y-79265803D01*
X108965789Y-79315789D01*
X108915803Y-79376697D01*
X108879151Y-79445268D01*
X107483882Y-78050000D01*
X108533882Y-77000000D01*
X108868065Y-77000000D01*
X108875788Y-77078414D01*
X108898660Y-77153814D01*
X108935803Y-77223303D01*
X108985789Y-77284211D01*
X109046697Y-77334197D01*
X109116186Y-77371340D01*
X109191586Y-77394212D01*
X109270000Y-77401935D01*
X109350000Y-77400000D01*
X109450000Y-77300000D01*
X109450000Y-76850000D01*
X108970000Y-76850000D01*
X108870000Y-76950000D01*
X108868065Y-77000000D01*
X108533882Y-77000000D01*
X108876941Y-76656941D01*
X108970000Y-76750000D01*
G37*
X108970000Y-76750000D02*
X109450000Y-76750000D01*
X109450000Y-76730000D01*
X109508065Y-76730000D01*
X109508065Y-76900000D01*
X109517710Y-76997923D01*
X109546273Y-77092082D01*
X109550000Y-77099055D01*
X109550000Y-77300000D01*
X109650000Y-77400000D01*
X109730000Y-77401935D01*
X109808414Y-77394212D01*
X109863414Y-77377528D01*
X109912077Y-77392290D01*
X110010000Y-77401935D01*
X110118005Y-77401935D01*
X110109619Y-77408802D01*
X110109433Y-77409028D01*
X110109210Y-77409211D01*
X110074876Y-77451046D01*
X110040801Y-77492479D01*
X110040666Y-77492732D01*
X110040479Y-77492959D01*
X110014816Y-77540971D01*
X109989630Y-77587973D01*
X109989546Y-77588249D01*
X109989408Y-77588507D01*
X109988169Y-77592592D01*
X109945112Y-77635649D01*
X109873978Y-77742110D01*
X109824979Y-77860402D01*
X109800000Y-77985981D01*
X109800000Y-78114019D01*
X109824979Y-78239598D01*
X109873978Y-78357890D01*
X109945112Y-78464351D01*
X109988168Y-78507407D01*
X109989408Y-78511494D01*
X109989546Y-78511752D01*
X109989630Y-78512028D01*
X110014816Y-78559030D01*
X110040479Y-78607042D01*
X110040666Y-78607269D01*
X110040801Y-78607522D01*
X110074685Y-78648722D01*
X110109210Y-78690790D01*
X110109436Y-78690975D01*
X110109619Y-78691198D01*
X110150613Y-78724769D01*
X110192958Y-78759521D01*
X110193221Y-78759661D01*
X110193440Y-78759841D01*
X110240267Y-78784808D01*
X110288506Y-78810592D01*
X110288786Y-78810677D01*
X110289041Y-78810813D01*
X110340199Y-78826273D01*
X110392181Y-78842042D01*
X110392474Y-78842071D01*
X110392749Y-78842154D01*
X110445838Y-78847327D01*
X110472982Y-78850000D01*
X110473276Y-78850000D01*
X110500577Y-78852660D01*
X110527298Y-78850000D01*
X111177365Y-78850000D01*
X111177365Y-78952401D01*
X111185088Y-79030815D01*
X111190908Y-79050000D01*
X111185088Y-79069186D01*
X111177365Y-79147600D01*
X111177365Y-79249999D01*
X110467762Y-79249999D01*
X110442082Y-79236273D01*
X110347923Y-79207710D01*
X110250000Y-79198065D01*
X109990000Y-79198065D01*
X109892077Y-79207710D01*
X109843414Y-79222472D01*
X109788414Y-79205788D01*
X109710000Y-79198065D01*
X109630000Y-79200000D01*
X109530000Y-79300000D01*
X109530000Y-79500945D01*
X109526273Y-79507918D01*
X109497710Y-79602077D01*
X109488065Y-79700000D01*
X109488065Y-79775001D01*
X109410000Y-79775001D01*
X109410000Y-79750000D01*
X109430000Y-79750000D01*
X109430000Y-79300000D01*
X109330000Y-79200000D01*
X109250000Y-79198065D01*
X109171586Y-79205788D01*
X109096186Y-79228660D01*
X109026697Y-79265803D01*
X108965789Y-79315789D01*
X108915803Y-79376697D01*
X108879151Y-79445268D01*
X107483882Y-78050000D01*
X108533882Y-77000000D01*
X108868065Y-77000000D01*
X108875788Y-77078414D01*
X108898660Y-77153814D01*
X108935803Y-77223303D01*
X108985789Y-77284211D01*
X109046697Y-77334197D01*
X109116186Y-77371340D01*
X109191586Y-77394212D01*
X109270000Y-77401935D01*
X109350000Y-77400000D01*
X109450000Y-77300000D01*
X109450000Y-76850000D01*
X108970000Y-76850000D01*
X108870000Y-76950000D01*
X108868065Y-77000000D01*
X108533882Y-77000000D01*
X108876941Y-76656941D01*
X108970000Y-76750000D01*
G36*
X102874979Y-65739598D02*
G01*
X102923978Y-65857890D01*
X102995112Y-65964351D01*
X103085649Y-66054888D01*
X103192110Y-66126022D01*
X103310402Y-66175021D01*
X103435981Y-66200000D01*
X103564019Y-66200000D01*
X103638065Y-66185271D01*
X103638065Y-66910000D01*
X103645788Y-66988414D01*
X103668660Y-67063814D01*
X103705803Y-67133303D01*
X103755789Y-67194211D01*
X103816697Y-67244197D01*
X103821950Y-67247005D01*
X103774979Y-67360402D01*
X103750000Y-67485981D01*
X103750000Y-67614019D01*
X103774979Y-67739598D01*
X103785001Y-67763793D01*
X103785001Y-67881815D01*
X103755789Y-67905789D01*
X103705803Y-67966697D01*
X103668660Y-68036186D01*
X103645788Y-68111586D01*
X103638065Y-68190000D01*
X103638065Y-70980000D01*
X103645788Y-71058414D01*
X103668660Y-71133814D01*
X103705803Y-71203303D01*
X103755789Y-71264211D01*
X103816697Y-71314197D01*
X103886186Y-71351340D01*
X103961586Y-71374212D01*
X104040000Y-71381935D01*
X104780000Y-71381935D01*
X104858414Y-71374212D01*
X104933814Y-71351340D01*
X105003303Y-71314197D01*
X105045000Y-71279977D01*
X105086697Y-71314197D01*
X105156186Y-71351340D01*
X105231586Y-71374212D01*
X105310000Y-71381935D01*
X105530000Y-71380000D01*
X105630000Y-71280000D01*
X105630000Y-69635000D01*
X105730000Y-69635000D01*
X105730000Y-71280000D01*
X105830000Y-71380000D01*
X106050000Y-71381935D01*
X106128414Y-71374212D01*
X106203814Y-71351340D01*
X106273303Y-71314197D01*
X106315000Y-71279977D01*
X106356697Y-71314197D01*
X106426186Y-71351340D01*
X106501586Y-71374212D01*
X106580000Y-71381935D01*
X106800000Y-71380000D01*
X106900000Y-71280000D01*
X106900000Y-69635000D01*
X105730000Y-69635000D01*
X105630000Y-69635000D01*
X105610000Y-69635000D01*
X105610000Y-69535000D01*
X105630000Y-69535000D01*
X105630000Y-69515000D01*
X105730000Y-69515000D01*
X105730000Y-69535000D01*
X106900000Y-69535000D01*
X106900000Y-69515000D01*
X107000000Y-69515000D01*
X107000000Y-69535000D01*
X107020000Y-69535000D01*
X107020000Y-69635000D01*
X107000000Y-69635000D01*
X107000000Y-71280000D01*
X107100000Y-71380000D01*
X107320000Y-71381935D01*
X107398414Y-71374212D01*
X107473814Y-71351340D01*
X107543303Y-71314197D01*
X107585000Y-71279977D01*
X107626697Y-71314197D01*
X107696186Y-71351340D01*
X107771586Y-71374212D01*
X107850000Y-71381935D01*
X108590000Y-71381935D01*
X108668414Y-71374212D01*
X108743814Y-71351340D01*
X108813303Y-71314197D01*
X108855000Y-71279977D01*
X108896697Y-71314197D01*
X108966186Y-71351340D01*
X109041586Y-71374212D01*
X109120000Y-71381935D01*
X109340000Y-71380000D01*
X109440000Y-71280000D01*
X109440000Y-69635000D01*
X109420000Y-69635000D01*
X109420000Y-69535000D01*
X109440000Y-69535000D01*
X109440000Y-67890000D01*
X109340000Y-67790000D01*
X109120000Y-67788065D01*
X109041586Y-67795788D01*
X108966186Y-67818660D01*
X108896697Y-67855803D01*
X108855000Y-67890023D01*
X108813303Y-67855803D01*
X108743814Y-67818660D01*
X108668414Y-67795788D01*
X108590000Y-67788065D01*
X107850000Y-67788065D01*
X107771586Y-67795788D01*
X107696186Y-67818660D01*
X107626697Y-67855803D01*
X107585000Y-67890023D01*
X107543303Y-67855803D01*
X107473814Y-67818660D01*
X107398414Y-67795788D01*
X107320000Y-67788065D01*
X107100000Y-67790000D01*
X107000002Y-67889998D01*
X107000002Y-67799998D01*
X107025021Y-67739598D01*
X107050000Y-67614019D01*
X107050000Y-67485981D01*
X107025021Y-67360402D01*
X107004945Y-67311935D01*
X107320000Y-67311935D01*
X107398414Y-67304212D01*
X107473814Y-67281340D01*
X107543303Y-67244197D01*
X107585000Y-67209977D01*
X107626697Y-67244197D01*
X107696186Y-67281340D01*
X107771586Y-67304212D01*
X107850000Y-67311935D01*
X108590000Y-67311935D01*
X108668414Y-67304212D01*
X108743814Y-67281340D01*
X108813303Y-67244197D01*
X108855000Y-67209977D01*
X108896697Y-67244197D01*
X108966186Y-67281340D01*
X109041586Y-67304212D01*
X109120000Y-67311935D01*
X109775001Y-67311935D01*
X109775001Y-67788813D01*
X109640000Y-67790000D01*
X109540000Y-67890000D01*
X109540000Y-69535000D01*
X109560000Y-69535000D01*
X109560000Y-69635000D01*
X109540000Y-69635000D01*
X109540000Y-71280000D01*
X109640000Y-71380000D01*
X109860000Y-71381935D01*
X109938414Y-71374212D01*
X110013814Y-71351340D01*
X110083303Y-71314197D01*
X110144211Y-71264211D01*
X110194197Y-71203303D01*
X110231340Y-71133814D01*
X110254212Y-71058414D01*
X110261935Y-70980000D01*
X110260870Y-70294752D01*
X110716117Y-70750000D01*
X105164014Y-76302104D01*
X105134211Y-76265789D01*
X105073303Y-76215803D01*
X105003814Y-76178660D01*
X104928414Y-76155788D01*
X104850000Y-76148065D01*
X101375000Y-76148065D01*
X101375000Y-72430702D01*
X101378024Y-72400000D01*
X101375000Y-72369296D01*
X101365957Y-72277479D01*
X101330219Y-72159666D01*
X101283458Y-72072183D01*
X101272183Y-72051088D01*
X101213653Y-71979769D01*
X101213649Y-71979765D01*
X101194080Y-71955920D01*
X101170234Y-71936350D01*
X100966532Y-71732649D01*
X101003814Y-71721340D01*
X101073303Y-71684197D01*
X101134211Y-71634211D01*
X101184197Y-71573303D01*
X101221340Y-71503814D01*
X101244212Y-71428414D01*
X101251935Y-71350000D01*
X101251935Y-70350000D01*
X101244212Y-70271586D01*
X101221340Y-70196186D01*
X101184197Y-70126697D01*
X101134211Y-70065789D01*
X101073303Y-70015803D01*
X101003814Y-69978660D01*
X100928414Y-69955788D01*
X100850000Y-69948065D01*
X100735817Y-69948065D01*
X102270235Y-68413649D01*
X102294080Y-68394080D01*
X102313652Y-68370232D01*
X102372182Y-68298913D01*
X102430218Y-68190336D01*
X102431085Y-68187479D01*
X102465957Y-68072521D01*
X102475000Y-67980704D01*
X102475000Y-67980695D01*
X102478023Y-67950001D01*
X102475000Y-67919307D01*
X102475000Y-66001358D01*
X102852047Y-65624311D01*
X102874979Y-65739598D01*
G37*
X102874979Y-65739598D02*
X102923978Y-65857890D01*
X102995112Y-65964351D01*
X103085649Y-66054888D01*
X103192110Y-66126022D01*
X103310402Y-66175021D01*
X103435981Y-66200000D01*
X103564019Y-66200000D01*
X103638065Y-66185271D01*
X103638065Y-66910000D01*
X103645788Y-66988414D01*
X103668660Y-67063814D01*
X103705803Y-67133303D01*
X103755789Y-67194211D01*
X103816697Y-67244197D01*
X103821950Y-67247005D01*
X103774979Y-67360402D01*
X103750000Y-67485981D01*
X103750000Y-67614019D01*
X103774979Y-67739598D01*
X103785001Y-67763793D01*
X103785001Y-67881815D01*
X103755789Y-67905789D01*
X103705803Y-67966697D01*
X103668660Y-68036186D01*
X103645788Y-68111586D01*
X103638065Y-68190000D01*
X103638065Y-70980000D01*
X103645788Y-71058414D01*
X103668660Y-71133814D01*
X103705803Y-71203303D01*
X103755789Y-71264211D01*
X103816697Y-71314197D01*
X103886186Y-71351340D01*
X103961586Y-71374212D01*
X104040000Y-71381935D01*
X104780000Y-71381935D01*
X104858414Y-71374212D01*
X104933814Y-71351340D01*
X105003303Y-71314197D01*
X105045000Y-71279977D01*
X105086697Y-71314197D01*
X105156186Y-71351340D01*
X105231586Y-71374212D01*
X105310000Y-71381935D01*
X105530000Y-71380000D01*
X105630000Y-71280000D01*
X105630000Y-69635000D01*
X105730000Y-69635000D01*
X105730000Y-71280000D01*
X105830000Y-71380000D01*
X106050000Y-71381935D01*
X106128414Y-71374212D01*
X106203814Y-71351340D01*
X106273303Y-71314197D01*
X106315000Y-71279977D01*
X106356697Y-71314197D01*
X106426186Y-71351340D01*
X106501586Y-71374212D01*
X106580000Y-71381935D01*
X106800000Y-71380000D01*
X106900000Y-71280000D01*
X106900000Y-69635000D01*
X105730000Y-69635000D01*
X105630000Y-69635000D01*
X105610000Y-69635000D01*
X105610000Y-69535000D01*
X105630000Y-69535000D01*
X105630000Y-69515000D01*
X105730000Y-69515000D01*
X105730000Y-69535000D01*
X106900000Y-69535000D01*
X106900000Y-69515000D01*
X107000000Y-69515000D01*
X107000000Y-69535000D01*
X107020000Y-69535000D01*
X107020000Y-69635000D01*
X107000000Y-69635000D01*
X107000000Y-71280000D01*
X107100000Y-71380000D01*
X107320000Y-71381935D01*
X107398414Y-71374212D01*
X107473814Y-71351340D01*
X107543303Y-71314197D01*
X107585000Y-71279977D01*
X107626697Y-71314197D01*
X107696186Y-71351340D01*
X107771586Y-71374212D01*
X107850000Y-71381935D01*
X108590000Y-71381935D01*
X108668414Y-71374212D01*
X108743814Y-71351340D01*
X108813303Y-71314197D01*
X108855000Y-71279977D01*
X108896697Y-71314197D01*
X108966186Y-71351340D01*
X109041586Y-71374212D01*
X109120000Y-71381935D01*
X109340000Y-71380000D01*
X109440000Y-71280000D01*
X109440000Y-69635000D01*
X109420000Y-69635000D01*
X109420000Y-69535000D01*
X109440000Y-69535000D01*
X109440000Y-67890000D01*
X109340000Y-67790000D01*
X109120000Y-67788065D01*
X109041586Y-67795788D01*
X108966186Y-67818660D01*
X108896697Y-67855803D01*
X108855000Y-67890023D01*
X108813303Y-67855803D01*
X108743814Y-67818660D01*
X108668414Y-67795788D01*
X108590000Y-67788065D01*
X107850000Y-67788065D01*
X107771586Y-67795788D01*
X107696186Y-67818660D01*
X107626697Y-67855803D01*
X107585000Y-67890023D01*
X107543303Y-67855803D01*
X107473814Y-67818660D01*
X107398414Y-67795788D01*
X107320000Y-67788065D01*
X107100000Y-67790000D01*
X107000002Y-67889998D01*
X107000002Y-67799998D01*
X107025021Y-67739598D01*
X107050000Y-67614019D01*
X107050000Y-67485981D01*
X107025021Y-67360402D01*
X107004945Y-67311935D01*
X107320000Y-67311935D01*
X107398414Y-67304212D01*
X107473814Y-67281340D01*
X107543303Y-67244197D01*
X107585000Y-67209977D01*
X107626697Y-67244197D01*
X107696186Y-67281340D01*
X107771586Y-67304212D01*
X107850000Y-67311935D01*
X108590000Y-67311935D01*
X108668414Y-67304212D01*
X108743814Y-67281340D01*
X108813303Y-67244197D01*
X108855000Y-67209977D01*
X108896697Y-67244197D01*
X108966186Y-67281340D01*
X109041586Y-67304212D01*
X109120000Y-67311935D01*
X109775001Y-67311935D01*
X109775001Y-67788813D01*
X109640000Y-67790000D01*
X109540000Y-67890000D01*
X109540000Y-69535000D01*
X109560000Y-69535000D01*
X109560000Y-69635000D01*
X109540000Y-69635000D01*
X109540000Y-71280000D01*
X109640000Y-71380000D01*
X109860000Y-71381935D01*
X109938414Y-71374212D01*
X110013814Y-71351340D01*
X110083303Y-71314197D01*
X110144211Y-71264211D01*
X110194197Y-71203303D01*
X110231340Y-71133814D01*
X110254212Y-71058414D01*
X110261935Y-70980000D01*
X110260870Y-70294752D01*
X110716117Y-70750000D01*
X105164014Y-76302104D01*
X105134211Y-76265789D01*
X105073303Y-76215803D01*
X105003814Y-76178660D01*
X104928414Y-76155788D01*
X104850000Y-76148065D01*
X101375000Y-76148065D01*
X101375000Y-72430702D01*
X101378024Y-72400000D01*
X101375000Y-72369296D01*
X101365957Y-72277479D01*
X101330219Y-72159666D01*
X101283458Y-72072183D01*
X101272183Y-72051088D01*
X101213653Y-71979769D01*
X101213649Y-71979765D01*
X101194080Y-71955920D01*
X101170234Y-71936350D01*
X100966532Y-71732649D01*
X101003814Y-71721340D01*
X101073303Y-71684197D01*
X101134211Y-71634211D01*
X101184197Y-71573303D01*
X101221340Y-71503814D01*
X101244212Y-71428414D01*
X101251935Y-71350000D01*
X101251935Y-70350000D01*
X101244212Y-70271586D01*
X101221340Y-70196186D01*
X101184197Y-70126697D01*
X101134211Y-70065789D01*
X101073303Y-70015803D01*
X101003814Y-69978660D01*
X100928414Y-69955788D01*
X100850000Y-69948065D01*
X100735817Y-69948065D01*
X102270235Y-68413649D01*
X102294080Y-68394080D01*
X102313652Y-68370232D01*
X102372182Y-68298913D01*
X102430218Y-68190336D01*
X102431085Y-68187479D01*
X102465957Y-68072521D01*
X102475000Y-67980704D01*
X102475000Y-67980695D01*
X102478023Y-67950001D01*
X102475000Y-67919307D01*
X102475000Y-66001358D01*
X102852047Y-65624311D01*
X102874979Y-65739598D01*
G36*
X95650000Y-69211935D02*
G01*
X96450001Y-69211935D01*
X96450000Y-71272992D01*
X96447340Y-71300000D01*
X96450000Y-71327008D01*
X96450000Y-71327017D01*
X96457958Y-71407818D01*
X96489408Y-71511493D01*
X96540479Y-71607042D01*
X96609210Y-71690790D01*
X96630196Y-71708013D01*
X98470247Y-73548065D01*
X95650000Y-73548065D01*
X95625000Y-73550527D01*
X95625000Y-69209473D01*
X95650000Y-69211935D01*
G37*
X95650000Y-69211935D02*
X96450001Y-69211935D01*
X96450000Y-71272992D01*
X96447340Y-71300000D01*
X96450000Y-71327008D01*
X96450000Y-71327017D01*
X96457958Y-71407818D01*
X96489408Y-71511493D01*
X96540479Y-71607042D01*
X96609210Y-71690790D01*
X96630196Y-71708013D01*
X98470247Y-73548065D01*
X95650000Y-73548065D01*
X95625000Y-73550527D01*
X95625000Y-69209473D01*
X95650000Y-69211935D01*
G36*
X113356346Y-66190229D02*
G01*
X113375920Y-66214080D01*
X113471089Y-66292183D01*
X113579666Y-66350219D01*
X113697479Y-66385957D01*
X113789296Y-66395000D01*
X113789305Y-66395000D01*
X113819999Y-66398023D01*
X113850693Y-66395000D01*
X114225349Y-66395000D01*
X114225400Y-66395021D01*
X114350979Y-66420000D01*
X114479017Y-66420000D01*
X114604596Y-66395021D01*
X114604647Y-66395000D01*
X115160351Y-66395000D01*
X115160402Y-66395021D01*
X115285981Y-66420000D01*
X115414019Y-66420000D01*
X115539598Y-66395021D01*
X115539649Y-66395000D01*
X115969919Y-66395000D01*
X115978660Y-66423814D01*
X116015803Y-66493303D01*
X116065789Y-66554211D01*
X116126697Y-66604197D01*
X116196186Y-66641340D01*
X116271586Y-66664212D01*
X116350000Y-66671935D01*
X118250000Y-66671935D01*
X118275000Y-66669473D01*
X118275000Y-69950527D01*
X118250000Y-69948065D01*
X116350000Y-69948065D01*
X116271586Y-69955788D01*
X116196186Y-69978660D01*
X116126697Y-70015803D01*
X116065789Y-70065789D01*
X116015803Y-70126697D01*
X115978660Y-70196186D01*
X115969919Y-70225000D01*
X111958884Y-70225000D01*
X111025000Y-69291118D01*
X111025000Y-67618883D01*
X112136351Y-68730234D01*
X112155920Y-68754080D01*
X112179765Y-68773649D01*
X112179768Y-68773652D01*
X112251087Y-68832182D01*
X112308107Y-68862660D01*
X112359666Y-68890219D01*
X112477479Y-68925957D01*
X112569296Y-68935000D01*
X112569305Y-68935000D01*
X112599999Y-68938023D01*
X112630693Y-68935000D01*
X112669919Y-68935000D01*
X112678660Y-68963814D01*
X112715803Y-69033303D01*
X112765789Y-69094211D01*
X112826697Y-69144197D01*
X112896186Y-69181340D01*
X112971586Y-69204212D01*
X113050000Y-69211935D01*
X114950000Y-69211935D01*
X115028414Y-69204212D01*
X115103814Y-69181340D01*
X115173303Y-69144197D01*
X115234211Y-69094211D01*
X115284197Y-69033303D01*
X115321340Y-68963814D01*
X115344212Y-68888414D01*
X115351935Y-68810000D01*
X115351935Y-67810000D01*
X115344212Y-67731586D01*
X115321340Y-67656186D01*
X115284197Y-67586697D01*
X115234211Y-67525789D01*
X115173303Y-67475803D01*
X115103814Y-67438660D01*
X115028414Y-67415788D01*
X114950000Y-67408065D01*
X113050000Y-67408065D01*
X112971586Y-67415788D01*
X112896186Y-67438660D01*
X112826697Y-67475803D01*
X112765789Y-67525789D01*
X112735987Y-67562103D01*
X111724990Y-66551108D01*
X111724990Y-64558872D01*
X113356346Y-66190229D01*
G37*
X113356346Y-66190229D02*
X113375920Y-66214080D01*
X113471089Y-66292183D01*
X113579666Y-66350219D01*
X113697479Y-66385957D01*
X113789296Y-66395000D01*
X113789305Y-66395000D01*
X113819999Y-66398023D01*
X113850693Y-66395000D01*
X114225349Y-66395000D01*
X114225400Y-66395021D01*
X114350979Y-66420000D01*
X114479017Y-66420000D01*
X114604596Y-66395021D01*
X114604647Y-66395000D01*
X115160351Y-66395000D01*
X115160402Y-66395021D01*
X115285981Y-66420000D01*
X115414019Y-66420000D01*
X115539598Y-66395021D01*
X115539649Y-66395000D01*
X115969919Y-66395000D01*
X115978660Y-66423814D01*
X116015803Y-66493303D01*
X116065789Y-66554211D01*
X116126697Y-66604197D01*
X116196186Y-66641340D01*
X116271586Y-66664212D01*
X116350000Y-66671935D01*
X118250000Y-66671935D01*
X118275000Y-66669473D01*
X118275000Y-69950527D01*
X118250000Y-69948065D01*
X116350000Y-69948065D01*
X116271586Y-69955788D01*
X116196186Y-69978660D01*
X116126697Y-70015803D01*
X116065789Y-70065789D01*
X116015803Y-70126697D01*
X115978660Y-70196186D01*
X115969919Y-70225000D01*
X111958884Y-70225000D01*
X111025000Y-69291118D01*
X111025000Y-67618883D01*
X112136351Y-68730234D01*
X112155920Y-68754080D01*
X112179765Y-68773649D01*
X112179768Y-68773652D01*
X112251087Y-68832182D01*
X112308107Y-68862660D01*
X112359666Y-68890219D01*
X112477479Y-68925957D01*
X112569296Y-68935000D01*
X112569305Y-68935000D01*
X112599999Y-68938023D01*
X112630693Y-68935000D01*
X112669919Y-68935000D01*
X112678660Y-68963814D01*
X112715803Y-69033303D01*
X112765789Y-69094211D01*
X112826697Y-69144197D01*
X112896186Y-69181340D01*
X112971586Y-69204212D01*
X113050000Y-69211935D01*
X114950000Y-69211935D01*
X115028414Y-69204212D01*
X115103814Y-69181340D01*
X115173303Y-69144197D01*
X115234211Y-69094211D01*
X115284197Y-69033303D01*
X115321340Y-68963814D01*
X115344212Y-68888414D01*
X115351935Y-68810000D01*
X115351935Y-67810000D01*
X115344212Y-67731586D01*
X115321340Y-67656186D01*
X115284197Y-67586697D01*
X115234211Y-67525789D01*
X115173303Y-67475803D01*
X115103814Y-67438660D01*
X115028414Y-67415788D01*
X114950000Y-67408065D01*
X113050000Y-67408065D01*
X112971586Y-67415788D01*
X112896186Y-67438660D01*
X112826697Y-67475803D01*
X112765789Y-67525789D01*
X112735987Y-67562103D01*
X111724990Y-66551108D01*
X111724990Y-64558872D01*
X113356346Y-66190229D01*
G36*
X102150001Y-61922181D02*
G01*
X99530196Y-64541987D01*
X99509210Y-64559210D01*
X99440479Y-64642958D01*
X99389408Y-64738507D01*
X99357958Y-64842182D01*
X99355409Y-64868065D01*
X98950000Y-64868065D01*
X98871586Y-64875788D01*
X98796186Y-64898660D01*
X98726697Y-64935803D01*
X98665789Y-64985789D01*
X98615803Y-65046697D01*
X98578660Y-65116186D01*
X98555788Y-65191586D01*
X98554959Y-65200000D01*
X98427007Y-65200000D01*
X98399999Y-65197340D01*
X98372991Y-65200000D01*
X98372982Y-65200000D01*
X98292181Y-65207958D01*
X98188506Y-65239408D01*
X98092958Y-65290479D01*
X98092956Y-65290480D01*
X98092957Y-65290480D01*
X98030195Y-65341987D01*
X98030190Y-65341992D01*
X98009210Y-65359210D01*
X97991991Y-65380191D01*
X97856341Y-65515841D01*
X97810402Y-65524979D01*
X97692110Y-65573978D01*
X97585649Y-65645112D01*
X97495112Y-65735649D01*
X97423978Y-65842110D01*
X97374979Y-65960402D01*
X97350000Y-66085981D01*
X97350000Y-66214019D01*
X97374979Y-66339598D01*
X97423978Y-66457890D01*
X97495112Y-66564351D01*
X97585649Y-66654888D01*
X97692110Y-66726022D01*
X97810402Y-66775021D01*
X97935981Y-66800000D01*
X98064019Y-66800000D01*
X98189598Y-66775021D01*
X98307890Y-66726022D01*
X98414351Y-66654888D01*
X98504888Y-66564351D01*
X98576022Y-66457890D01*
X98585126Y-66435911D01*
X98615803Y-66493303D01*
X98665789Y-66554211D01*
X98726697Y-66604197D01*
X98796186Y-66641340D01*
X98871586Y-66664212D01*
X98950000Y-66671935D01*
X100700001Y-66671935D01*
X100700001Y-66772182D01*
X99712183Y-67760000D01*
X97947010Y-67760000D01*
X97944212Y-67731586D01*
X97921340Y-67656186D01*
X97884197Y-67586697D01*
X97834211Y-67525789D01*
X97773303Y-67475803D01*
X97703814Y-67438660D01*
X97628414Y-67415788D01*
X97550000Y-67408065D01*
X95650000Y-67408065D01*
X95625000Y-67410527D01*
X95625000Y-64129473D01*
X95650000Y-64131935D01*
X97550000Y-64131935D01*
X97628414Y-64124212D01*
X97703814Y-64101340D01*
X97773303Y-64064197D01*
X97834211Y-64014211D01*
X97884197Y-63953303D01*
X97921340Y-63883814D01*
X97944212Y-63808414D01*
X97947010Y-63780000D01*
X99592992Y-63780000D01*
X99620000Y-63782660D01*
X99647008Y-63780000D01*
X99647018Y-63780000D01*
X99727819Y-63772042D01*
X99831494Y-63740592D01*
X99927042Y-63689521D01*
X100010790Y-63620790D01*
X100028013Y-63599804D01*
X102150001Y-61477817D01*
X102150001Y-61922181D01*
G37*
X102150001Y-61922181D02*
X99530196Y-64541987D01*
X99509210Y-64559210D01*
X99440479Y-64642958D01*
X99389408Y-64738507D01*
X99357958Y-64842182D01*
X99355409Y-64868065D01*
X98950000Y-64868065D01*
X98871586Y-64875788D01*
X98796186Y-64898660D01*
X98726697Y-64935803D01*
X98665789Y-64985789D01*
X98615803Y-65046697D01*
X98578660Y-65116186D01*
X98555788Y-65191586D01*
X98554959Y-65200000D01*
X98427007Y-65200000D01*
X98399999Y-65197340D01*
X98372991Y-65200000D01*
X98372982Y-65200000D01*
X98292181Y-65207958D01*
X98188506Y-65239408D01*
X98092958Y-65290479D01*
X98092956Y-65290480D01*
X98092957Y-65290480D01*
X98030195Y-65341987D01*
X98030190Y-65341992D01*
X98009210Y-65359210D01*
X97991991Y-65380191D01*
X97856341Y-65515841D01*
X97810402Y-65524979D01*
X97692110Y-65573978D01*
X97585649Y-65645112D01*
X97495112Y-65735649D01*
X97423978Y-65842110D01*
X97374979Y-65960402D01*
X97350000Y-66085981D01*
X97350000Y-66214019D01*
X97374979Y-66339598D01*
X97423978Y-66457890D01*
X97495112Y-66564351D01*
X97585649Y-66654888D01*
X97692110Y-66726022D01*
X97810402Y-66775021D01*
X97935981Y-66800000D01*
X98064019Y-66800000D01*
X98189598Y-66775021D01*
X98307890Y-66726022D01*
X98414351Y-66654888D01*
X98504888Y-66564351D01*
X98576022Y-66457890D01*
X98585126Y-66435911D01*
X98615803Y-66493303D01*
X98665789Y-66554211D01*
X98726697Y-66604197D01*
X98796186Y-66641340D01*
X98871586Y-66664212D01*
X98950000Y-66671935D01*
X100700001Y-66671935D01*
X100700001Y-66772182D01*
X99712183Y-67760000D01*
X97947010Y-67760000D01*
X97944212Y-67731586D01*
X97921340Y-67656186D01*
X97884197Y-67586697D01*
X97834211Y-67525789D01*
X97773303Y-67475803D01*
X97703814Y-67438660D01*
X97628414Y-67415788D01*
X97550000Y-67408065D01*
X95650000Y-67408065D01*
X95625000Y-67410527D01*
X95625000Y-64129473D01*
X95650000Y-64131935D01*
X97550000Y-64131935D01*
X97628414Y-64124212D01*
X97703814Y-64101340D01*
X97773303Y-64064197D01*
X97834211Y-64014211D01*
X97884197Y-63953303D01*
X97921340Y-63883814D01*
X97944212Y-63808414D01*
X97947010Y-63780000D01*
X99592992Y-63780000D01*
X99620000Y-63782660D01*
X99647008Y-63780000D01*
X99647018Y-63780000D01*
X99727819Y-63772042D01*
X99831494Y-63740592D01*
X99927042Y-63689521D01*
X100010790Y-63620790D01*
X100028013Y-63599804D01*
X102150001Y-61477817D01*
X102150001Y-61922181D01*
G36*
X114141990Y-61059810D02*
G01*
X114159208Y-61080790D01*
X114180188Y-61098008D01*
X114180193Y-61098013D01*
X114196402Y-61111315D01*
X114242956Y-61149521D01*
X114338504Y-61200592D01*
X114442179Y-61232042D01*
X114522980Y-61240000D01*
X114522989Y-61240000D01*
X114549997Y-61242660D01*
X114577005Y-61240000D01*
X115952990Y-61240000D01*
X115955788Y-61268414D01*
X115978660Y-61343814D01*
X116015803Y-61413303D01*
X116065789Y-61474211D01*
X116126697Y-61524197D01*
X116196186Y-61561340D01*
X116271586Y-61584212D01*
X116350000Y-61591935D01*
X118250000Y-61591935D01*
X118275001Y-61589473D01*
X118275001Y-64870527D01*
X118250000Y-64868065D01*
X116350000Y-64868065D01*
X116271586Y-64875788D01*
X116196186Y-64898660D01*
X116126697Y-64935803D01*
X116065789Y-64985789D01*
X116015803Y-65046697D01*
X115978660Y-65116186D01*
X115969919Y-65145000D01*
X115539649Y-65145000D01*
X115539598Y-65144979D01*
X115414019Y-65120000D01*
X115285981Y-65120000D01*
X115160402Y-65144979D01*
X115160351Y-65145000D01*
X114604647Y-65145000D01*
X114604596Y-65144979D01*
X114479017Y-65120000D01*
X114350979Y-65120000D01*
X114225400Y-65144979D01*
X114225349Y-65145000D01*
X114078883Y-65145000D01*
X113065779Y-64131897D01*
X113850000Y-64130000D01*
X113950000Y-64030000D01*
X113950000Y-63280000D01*
X114050000Y-63280000D01*
X114050000Y-64030000D01*
X114150000Y-64130000D01*
X114950000Y-64131935D01*
X115028414Y-64124212D01*
X115103814Y-64101340D01*
X115173303Y-64064197D01*
X115234211Y-64014211D01*
X115284197Y-63953303D01*
X115321340Y-63883814D01*
X115344212Y-63808414D01*
X115351935Y-63730000D01*
X115350000Y-63380000D01*
X115250000Y-63280000D01*
X114050000Y-63280000D01*
X113950000Y-63280000D01*
X112750000Y-63280000D01*
X112650000Y-63380000D01*
X112648152Y-63714270D01*
X112375000Y-63441118D01*
X112375000Y-62730000D01*
X112648065Y-62730000D01*
X112650000Y-63080000D01*
X112750000Y-63180000D01*
X113950000Y-63180000D01*
X113950000Y-62430000D01*
X114050000Y-62430000D01*
X114050000Y-63180000D01*
X115250000Y-63180000D01*
X115350000Y-63080000D01*
X115351935Y-62730000D01*
X115344212Y-62651586D01*
X115321340Y-62576186D01*
X115284197Y-62506697D01*
X115234211Y-62445789D01*
X115173303Y-62395803D01*
X115103814Y-62358660D01*
X115028414Y-62335788D01*
X114950000Y-62328065D01*
X114150000Y-62330000D01*
X114050000Y-62430000D01*
X113950000Y-62430000D01*
X113850000Y-62330000D01*
X113050000Y-62328065D01*
X112971586Y-62335788D01*
X112896186Y-62358660D01*
X112826697Y-62395803D01*
X112765789Y-62445789D01*
X112715803Y-62506697D01*
X112678660Y-62576186D01*
X112655788Y-62651586D01*
X112648065Y-62730000D01*
X112375000Y-62730000D01*
X112375000Y-59292819D01*
X114141990Y-61059810D01*
G37*
X114141990Y-61059810D02*
X114159208Y-61080790D01*
X114180188Y-61098008D01*
X114180193Y-61098013D01*
X114196402Y-61111315D01*
X114242956Y-61149521D01*
X114338504Y-61200592D01*
X114442179Y-61232042D01*
X114522980Y-61240000D01*
X114522989Y-61240000D01*
X114549997Y-61242660D01*
X114577005Y-61240000D01*
X115952990Y-61240000D01*
X115955788Y-61268414D01*
X115978660Y-61343814D01*
X116015803Y-61413303D01*
X116065789Y-61474211D01*
X116126697Y-61524197D01*
X116196186Y-61561340D01*
X116271586Y-61584212D01*
X116350000Y-61591935D01*
X118250000Y-61591935D01*
X118275001Y-61589473D01*
X118275001Y-64870527D01*
X118250000Y-64868065D01*
X116350000Y-64868065D01*
X116271586Y-64875788D01*
X116196186Y-64898660D01*
X116126697Y-64935803D01*
X116065789Y-64985789D01*
X116015803Y-65046697D01*
X115978660Y-65116186D01*
X115969919Y-65145000D01*
X115539649Y-65145000D01*
X115539598Y-65144979D01*
X115414019Y-65120000D01*
X115285981Y-65120000D01*
X115160402Y-65144979D01*
X115160351Y-65145000D01*
X114604647Y-65145000D01*
X114604596Y-65144979D01*
X114479017Y-65120000D01*
X114350979Y-65120000D01*
X114225400Y-65144979D01*
X114225349Y-65145000D01*
X114078883Y-65145000D01*
X113065779Y-64131897D01*
X113850000Y-64130000D01*
X113950000Y-64030000D01*
X113950000Y-63280000D01*
X114050000Y-63280000D01*
X114050000Y-64030000D01*
X114150000Y-64130000D01*
X114950000Y-64131935D01*
X115028414Y-64124212D01*
X115103814Y-64101340D01*
X115173303Y-64064197D01*
X115234211Y-64014211D01*
X115284197Y-63953303D01*
X115321340Y-63883814D01*
X115344212Y-63808414D01*
X115351935Y-63730000D01*
X115350000Y-63380000D01*
X115250000Y-63280000D01*
X114050000Y-63280000D01*
X113950000Y-63280000D01*
X112750000Y-63280000D01*
X112650000Y-63380000D01*
X112648152Y-63714270D01*
X112375000Y-63441118D01*
X112375000Y-62730000D01*
X112648065Y-62730000D01*
X112650000Y-63080000D01*
X112750000Y-63180000D01*
X113950000Y-63180000D01*
X113950000Y-62430000D01*
X114050000Y-62430000D01*
X114050000Y-63180000D01*
X115250000Y-63180000D01*
X115350000Y-63080000D01*
X115351935Y-62730000D01*
X115344212Y-62651586D01*
X115321340Y-62576186D01*
X115284197Y-62506697D01*
X115234211Y-62445789D01*
X115173303Y-62395803D01*
X115103814Y-62358660D01*
X115028414Y-62335788D01*
X114950000Y-62328065D01*
X114150000Y-62330000D01*
X114050000Y-62430000D01*
X113950000Y-62430000D01*
X113850000Y-62330000D01*
X113050000Y-62328065D01*
X112971586Y-62335788D01*
X112896186Y-62358660D01*
X112826697Y-62395803D01*
X112765789Y-62445789D01*
X112715803Y-62506697D01*
X112678660Y-62576186D01*
X112655788Y-62651586D01*
X112648065Y-62730000D01*
X112375000Y-62730000D01*
X112375000Y-59292819D01*
X114141990Y-61059810D01*
G36*
X108215789Y-56555877D02*
G01*
X108276697Y-56605863D01*
X108346186Y-56643006D01*
X108421586Y-56665878D01*
X108500000Y-56673601D01*
X109550000Y-56673601D01*
X109628414Y-56665878D01*
X109703814Y-56643006D01*
X109773303Y-56605863D01*
X109775000Y-56604470D01*
X109775000Y-57438862D01*
X109773303Y-57437469D01*
X109703814Y-57400326D01*
X109628414Y-57377454D01*
X109550000Y-57369731D01*
X109175000Y-57371666D01*
X109075000Y-57471666D01*
X109075000Y-58046666D01*
X109095000Y-58046666D01*
X109095000Y-58146666D01*
X109075000Y-58146666D01*
X109075000Y-58721666D01*
X109175000Y-58821666D01*
X109550000Y-58823601D01*
X109628414Y-58815878D01*
X109703814Y-58793006D01*
X109773303Y-58755863D01*
X109775000Y-58754470D01*
X109775001Y-63718065D01*
X109120000Y-63718065D01*
X109041586Y-63725788D01*
X108966186Y-63748660D01*
X108896697Y-63785803D01*
X108855000Y-63820023D01*
X108813303Y-63785803D01*
X108743814Y-63748660D01*
X108668414Y-63725788D01*
X108590000Y-63718065D01*
X107850000Y-63718065D01*
X107771586Y-63725788D01*
X107696186Y-63748660D01*
X107626697Y-63785803D01*
X107585000Y-63820023D01*
X107543303Y-63785803D01*
X107473814Y-63748660D01*
X107398414Y-63725788D01*
X107320000Y-63718065D01*
X106580000Y-63718065D01*
X106501586Y-63725788D01*
X106426186Y-63748660D01*
X106356697Y-63785803D01*
X106315000Y-63820023D01*
X106273303Y-63785803D01*
X106203814Y-63748660D01*
X106128414Y-63725788D01*
X106050000Y-63718065D01*
X105310000Y-63718065D01*
X105231586Y-63725788D01*
X105156186Y-63748660D01*
X105086697Y-63785803D01*
X105045000Y-63820023D01*
X105003303Y-63785803D01*
X104933814Y-63748660D01*
X104858414Y-63725788D01*
X104780000Y-63718065D01*
X104375000Y-63718065D01*
X104375000Y-60882082D01*
X105343065Y-60882082D01*
X105343065Y-61394582D01*
X105354991Y-61515672D01*
X105390312Y-61632108D01*
X105447669Y-61739416D01*
X105524859Y-61833473D01*
X105618916Y-61910663D01*
X105632501Y-61917924D01*
X105632501Y-62225483D01*
X105629840Y-62252500D01*
X105632501Y-62279518D01*
X105640459Y-62360319D01*
X105669800Y-62457042D01*
X105671909Y-62463994D01*
X105722979Y-62559542D01*
X105774487Y-62622304D01*
X105774493Y-62622310D01*
X105791711Y-62643290D01*
X105812691Y-62660508D01*
X106028078Y-62875895D01*
X106032710Y-62922923D01*
X106061273Y-63017082D01*
X106107656Y-63103860D01*
X106170078Y-63179922D01*
X106246140Y-63242344D01*
X106332918Y-63288727D01*
X106427077Y-63317290D01*
X106525000Y-63326935D01*
X106785000Y-63326935D01*
X106882923Y-63317290D01*
X106975000Y-63289359D01*
X107067077Y-63317290D01*
X107165000Y-63326935D01*
X107425000Y-63326935D01*
X107522923Y-63317290D01*
X107617082Y-63288727D01*
X107642764Y-63275000D01*
X107897992Y-63275000D01*
X107925000Y-63277660D01*
X107952008Y-63275000D01*
X107952018Y-63275000D01*
X108032819Y-63267042D01*
X108136494Y-63235592D01*
X108232042Y-63184521D01*
X108315790Y-63115790D01*
X108333013Y-63094804D01*
X108458624Y-62969193D01*
X108479598Y-62965021D01*
X108597890Y-62916022D01*
X108704351Y-62844888D01*
X108794888Y-62754351D01*
X108866022Y-62647890D01*
X108915021Y-62529598D01*
X108940000Y-62404019D01*
X108940000Y-62275981D01*
X108915021Y-62150402D01*
X108866022Y-62032110D01*
X108794888Y-61925649D01*
X108704351Y-61835112D01*
X108597890Y-61763978D01*
X108570715Y-61752722D01*
X108589212Y-61691746D01*
X108596935Y-61613332D01*
X108595000Y-61288332D01*
X108495000Y-61188332D01*
X107807500Y-61188332D01*
X107807500Y-61208332D01*
X107707500Y-61208332D01*
X107707500Y-61188332D01*
X107687500Y-61188332D01*
X107687500Y-61088332D01*
X107707500Y-61088332D01*
X107707500Y-60363332D01*
X107807500Y-60363332D01*
X107807500Y-61088332D01*
X108495000Y-61088332D01*
X108595000Y-60988332D01*
X108596935Y-60663332D01*
X108589212Y-60584918D01*
X108566340Y-60509518D01*
X108529197Y-60440029D01*
X108479211Y-60379121D01*
X108418303Y-60329135D01*
X108348814Y-60291992D01*
X108273414Y-60269120D01*
X108195000Y-60261397D01*
X107907500Y-60263332D01*
X107807500Y-60363332D01*
X107707500Y-60363332D01*
X107607500Y-60263332D01*
X107320000Y-60261397D01*
X107241586Y-60269120D01*
X107166186Y-60291992D01*
X107096697Y-60329135D01*
X107035789Y-60379121D01*
X106985803Y-60440029D01*
X106948660Y-60509518D01*
X106931951Y-60564601D01*
X106917331Y-60537248D01*
X106840141Y-60443191D01*
X106746084Y-60366001D01*
X106638776Y-60308644D01*
X106522340Y-60273323D01*
X106401250Y-60261397D01*
X105963750Y-60261397D01*
X105842660Y-60273323D01*
X105726224Y-60308644D01*
X105618916Y-60366001D01*
X105524859Y-60443191D01*
X105447669Y-60537248D01*
X105390312Y-60644556D01*
X105354991Y-60760992D01*
X105343065Y-60882082D01*
X104375000Y-60882082D01*
X104375000Y-58823472D01*
X104725000Y-58821666D01*
X104825000Y-58721666D01*
X104825000Y-58146666D01*
X104925000Y-58146666D01*
X104925000Y-58721666D01*
X105025000Y-58821666D01*
X105400000Y-58823601D01*
X105478414Y-58815878D01*
X105553814Y-58793006D01*
X105623303Y-58755863D01*
X105684211Y-58705877D01*
X105734197Y-58644969D01*
X105771340Y-58575480D01*
X105794212Y-58500080D01*
X105801935Y-58421666D01*
X108098065Y-58421666D01*
X108105788Y-58500080D01*
X108128660Y-58575480D01*
X108165803Y-58644969D01*
X108215789Y-58705877D01*
X108276697Y-58755863D01*
X108346186Y-58793006D01*
X108421586Y-58815878D01*
X108500000Y-58823601D01*
X108875000Y-58821666D01*
X108975000Y-58721666D01*
X108975000Y-58146666D01*
X108200000Y-58146666D01*
X108100000Y-58246666D01*
X108098065Y-58421666D01*
X105801935Y-58421666D01*
X105800000Y-58246666D01*
X105700000Y-58146666D01*
X104925000Y-58146666D01*
X104825000Y-58146666D01*
X104805000Y-58146666D01*
X104805000Y-58046666D01*
X104825000Y-58046666D01*
X104825000Y-57471666D01*
X104925000Y-57471666D01*
X104925000Y-58046666D01*
X105700000Y-58046666D01*
X105800000Y-57946666D01*
X105801935Y-57771666D01*
X108098065Y-57771666D01*
X108100000Y-57946666D01*
X108200000Y-58046666D01*
X108975000Y-58046666D01*
X108975000Y-57471666D01*
X108875000Y-57371666D01*
X108500000Y-57369731D01*
X108421586Y-57377454D01*
X108346186Y-57400326D01*
X108276697Y-57437469D01*
X108215789Y-57487455D01*
X108165803Y-57548363D01*
X108128660Y-57617852D01*
X108105788Y-57693252D01*
X108098065Y-57771666D01*
X105801935Y-57771666D01*
X105794212Y-57693252D01*
X105771340Y-57617852D01*
X105734197Y-57548363D01*
X105684211Y-57487455D01*
X105623303Y-57437469D01*
X105553814Y-57400326D01*
X105478414Y-57377454D01*
X105400000Y-57369731D01*
X105025000Y-57371666D01*
X104925000Y-57471666D01*
X104825000Y-57471666D01*
X104725000Y-57371666D01*
X104375000Y-57369860D01*
X104375000Y-56673601D01*
X105400000Y-56673601D01*
X105478414Y-56665878D01*
X105553814Y-56643006D01*
X105623303Y-56605863D01*
X105684211Y-56555877D01*
X105732804Y-56496666D01*
X108167196Y-56496666D01*
X108215789Y-56555877D01*
G37*
X108215789Y-56555877D02*
X108276697Y-56605863D01*
X108346186Y-56643006D01*
X108421586Y-56665878D01*
X108500000Y-56673601D01*
X109550000Y-56673601D01*
X109628414Y-56665878D01*
X109703814Y-56643006D01*
X109773303Y-56605863D01*
X109775000Y-56604470D01*
X109775000Y-57438862D01*
X109773303Y-57437469D01*
X109703814Y-57400326D01*
X109628414Y-57377454D01*
X109550000Y-57369731D01*
X109175000Y-57371666D01*
X109075000Y-57471666D01*
X109075000Y-58046666D01*
X109095000Y-58046666D01*
X109095000Y-58146666D01*
X109075000Y-58146666D01*
X109075000Y-58721666D01*
X109175000Y-58821666D01*
X109550000Y-58823601D01*
X109628414Y-58815878D01*
X109703814Y-58793006D01*
X109773303Y-58755863D01*
X109775000Y-58754470D01*
X109775001Y-63718065D01*
X109120000Y-63718065D01*
X109041586Y-63725788D01*
X108966186Y-63748660D01*
X108896697Y-63785803D01*
X108855000Y-63820023D01*
X108813303Y-63785803D01*
X108743814Y-63748660D01*
X108668414Y-63725788D01*
X108590000Y-63718065D01*
X107850000Y-63718065D01*
X107771586Y-63725788D01*
X107696186Y-63748660D01*
X107626697Y-63785803D01*
X107585000Y-63820023D01*
X107543303Y-63785803D01*
X107473814Y-63748660D01*
X107398414Y-63725788D01*
X107320000Y-63718065D01*
X106580000Y-63718065D01*
X106501586Y-63725788D01*
X106426186Y-63748660D01*
X106356697Y-63785803D01*
X106315000Y-63820023D01*
X106273303Y-63785803D01*
X106203814Y-63748660D01*
X106128414Y-63725788D01*
X106050000Y-63718065D01*
X105310000Y-63718065D01*
X105231586Y-63725788D01*
X105156186Y-63748660D01*
X105086697Y-63785803D01*
X105045000Y-63820023D01*
X105003303Y-63785803D01*
X104933814Y-63748660D01*
X104858414Y-63725788D01*
X104780000Y-63718065D01*
X104375000Y-63718065D01*
X104375000Y-60882082D01*
X105343065Y-60882082D01*
X105343065Y-61394582D01*
X105354991Y-61515672D01*
X105390312Y-61632108D01*
X105447669Y-61739416D01*
X105524859Y-61833473D01*
X105618916Y-61910663D01*
X105632501Y-61917924D01*
X105632501Y-62225483D01*
X105629840Y-62252500D01*
X105632501Y-62279518D01*
X105640459Y-62360319D01*
X105669800Y-62457042D01*
X105671909Y-62463994D01*
X105722979Y-62559542D01*
X105774487Y-62622304D01*
X105774493Y-62622310D01*
X105791711Y-62643290D01*
X105812691Y-62660508D01*
X106028078Y-62875895D01*
X106032710Y-62922923D01*
X106061273Y-63017082D01*
X106107656Y-63103860D01*
X106170078Y-63179922D01*
X106246140Y-63242344D01*
X106332918Y-63288727D01*
X106427077Y-63317290D01*
X106525000Y-63326935D01*
X106785000Y-63326935D01*
X106882923Y-63317290D01*
X106975000Y-63289359D01*
X107067077Y-63317290D01*
X107165000Y-63326935D01*
X107425000Y-63326935D01*
X107522923Y-63317290D01*
X107617082Y-63288727D01*
X107642764Y-63275000D01*
X107897992Y-63275000D01*
X107925000Y-63277660D01*
X107952008Y-63275000D01*
X107952018Y-63275000D01*
X108032819Y-63267042D01*
X108136494Y-63235592D01*
X108232042Y-63184521D01*
X108315790Y-63115790D01*
X108333013Y-63094804D01*
X108458624Y-62969193D01*
X108479598Y-62965021D01*
X108597890Y-62916022D01*
X108704351Y-62844888D01*
X108794888Y-62754351D01*
X108866022Y-62647890D01*
X108915021Y-62529598D01*
X108940000Y-62404019D01*
X108940000Y-62275981D01*
X108915021Y-62150402D01*
X108866022Y-62032110D01*
X108794888Y-61925649D01*
X108704351Y-61835112D01*
X108597890Y-61763978D01*
X108570715Y-61752722D01*
X108589212Y-61691746D01*
X108596935Y-61613332D01*
X108595000Y-61288332D01*
X108495000Y-61188332D01*
X107807500Y-61188332D01*
X107807500Y-61208332D01*
X107707500Y-61208332D01*
X107707500Y-61188332D01*
X107687500Y-61188332D01*
X107687500Y-61088332D01*
X107707500Y-61088332D01*
X107707500Y-60363332D01*
X107807500Y-60363332D01*
X107807500Y-61088332D01*
X108495000Y-61088332D01*
X108595000Y-60988332D01*
X108596935Y-60663332D01*
X108589212Y-60584918D01*
X108566340Y-60509518D01*
X108529197Y-60440029D01*
X108479211Y-60379121D01*
X108418303Y-60329135D01*
X108348814Y-60291992D01*
X108273414Y-60269120D01*
X108195000Y-60261397D01*
X107907500Y-60263332D01*
X107807500Y-60363332D01*
X107707500Y-60363332D01*
X107607500Y-60263332D01*
X107320000Y-60261397D01*
X107241586Y-60269120D01*
X107166186Y-60291992D01*
X107096697Y-60329135D01*
X107035789Y-60379121D01*
X106985803Y-60440029D01*
X106948660Y-60509518D01*
X106931951Y-60564601D01*
X106917331Y-60537248D01*
X106840141Y-60443191D01*
X106746084Y-60366001D01*
X106638776Y-60308644D01*
X106522340Y-60273323D01*
X106401250Y-60261397D01*
X105963750Y-60261397D01*
X105842660Y-60273323D01*
X105726224Y-60308644D01*
X105618916Y-60366001D01*
X105524859Y-60443191D01*
X105447669Y-60537248D01*
X105390312Y-60644556D01*
X105354991Y-60760992D01*
X105343065Y-60882082D01*
X104375000Y-60882082D01*
X104375000Y-58823472D01*
X104725000Y-58821666D01*
X104825000Y-58721666D01*
X104825000Y-58146666D01*
X104925000Y-58146666D01*
X104925000Y-58721666D01*
X105025000Y-58821666D01*
X105400000Y-58823601D01*
X105478414Y-58815878D01*
X105553814Y-58793006D01*
X105623303Y-58755863D01*
X105684211Y-58705877D01*
X105734197Y-58644969D01*
X105771340Y-58575480D01*
X105794212Y-58500080D01*
X105801935Y-58421666D01*
X108098065Y-58421666D01*
X108105788Y-58500080D01*
X108128660Y-58575480D01*
X108165803Y-58644969D01*
X108215789Y-58705877D01*
X108276697Y-58755863D01*
X108346186Y-58793006D01*
X108421586Y-58815878D01*
X108500000Y-58823601D01*
X108875000Y-58821666D01*
X108975000Y-58721666D01*
X108975000Y-58146666D01*
X108200000Y-58146666D01*
X108100000Y-58246666D01*
X108098065Y-58421666D01*
X105801935Y-58421666D01*
X105800000Y-58246666D01*
X105700000Y-58146666D01*
X104925000Y-58146666D01*
X104825000Y-58146666D01*
X104805000Y-58146666D01*
X104805000Y-58046666D01*
X104825000Y-58046666D01*
X104825000Y-57471666D01*
X104925000Y-57471666D01*
X104925000Y-58046666D01*
X105700000Y-58046666D01*
X105800000Y-57946666D01*
X105801935Y-57771666D01*
X108098065Y-57771666D01*
X108100000Y-57946666D01*
X108200000Y-58046666D01*
X108975000Y-58046666D01*
X108975000Y-57471666D01*
X108875000Y-57371666D01*
X108500000Y-57369731D01*
X108421586Y-57377454D01*
X108346186Y-57400326D01*
X108276697Y-57437469D01*
X108215789Y-57487455D01*
X108165803Y-57548363D01*
X108128660Y-57617852D01*
X108105788Y-57693252D01*
X108098065Y-57771666D01*
X105801935Y-57771666D01*
X105794212Y-57693252D01*
X105771340Y-57617852D01*
X105734197Y-57548363D01*
X105684211Y-57487455D01*
X105623303Y-57437469D01*
X105553814Y-57400326D01*
X105478414Y-57377454D01*
X105400000Y-57369731D01*
X105025000Y-57371666D01*
X104925000Y-57471666D01*
X104825000Y-57471666D01*
X104725000Y-57371666D01*
X104375000Y-57369860D01*
X104375000Y-56673601D01*
X105400000Y-56673601D01*
X105478414Y-56665878D01*
X105553814Y-56643006D01*
X105623303Y-56605863D01*
X105684211Y-56555877D01*
X105732804Y-56496666D01*
X108167196Y-56496666D01*
X108215789Y-56555877D01*
G36*
X101150001Y-59122181D02*
G01*
X100484118Y-59788065D01*
X98950000Y-59788065D01*
X98871586Y-59795788D01*
X98796186Y-59818660D01*
X98726697Y-59855803D01*
X98665789Y-59905789D01*
X98615803Y-59966697D01*
X98578660Y-60036186D01*
X98555788Y-60111586D01*
X98548065Y-60190000D01*
X98548065Y-61190000D01*
X98555788Y-61268414D01*
X98578660Y-61343814D01*
X98615803Y-61413303D01*
X98665789Y-61474211D01*
X98726697Y-61524197D01*
X98796186Y-61561340D01*
X98871586Y-61584212D01*
X98950000Y-61591935D01*
X100480248Y-61591935D01*
X99392183Y-62680000D01*
X97947010Y-62680000D01*
X97944212Y-62651586D01*
X97921340Y-62576186D01*
X97884197Y-62506697D01*
X97834211Y-62445789D01*
X97773303Y-62395803D01*
X97703814Y-62358660D01*
X97628414Y-62335788D01*
X97550000Y-62328065D01*
X95650000Y-62328065D01*
X95625000Y-62330527D01*
X95625000Y-59049473D01*
X95650000Y-59051935D01*
X97550000Y-59051935D01*
X97628414Y-59044212D01*
X97703814Y-59021340D01*
X97773303Y-58984197D01*
X97834211Y-58934211D01*
X97884197Y-58873303D01*
X97921340Y-58803814D01*
X97944212Y-58728414D01*
X97947010Y-58700000D01*
X99572992Y-58700000D01*
X99600000Y-58702660D01*
X99627008Y-58700000D01*
X99627018Y-58700000D01*
X99707819Y-58692042D01*
X99811494Y-58660592D01*
X99907042Y-58609521D01*
X99990790Y-58540790D01*
X100008013Y-58519804D01*
X101150001Y-57377816D01*
X101150001Y-59122181D01*
G37*
X101150001Y-59122181D02*
X100484118Y-59788065D01*
X98950000Y-59788065D01*
X98871586Y-59795788D01*
X98796186Y-59818660D01*
X98726697Y-59855803D01*
X98665789Y-59905789D01*
X98615803Y-59966697D01*
X98578660Y-60036186D01*
X98555788Y-60111586D01*
X98548065Y-60190000D01*
X98548065Y-61190000D01*
X98555788Y-61268414D01*
X98578660Y-61343814D01*
X98615803Y-61413303D01*
X98665789Y-61474211D01*
X98726697Y-61524197D01*
X98796186Y-61561340D01*
X98871586Y-61584212D01*
X98950000Y-61591935D01*
X100480248Y-61591935D01*
X99392183Y-62680000D01*
X97947010Y-62680000D01*
X97944212Y-62651586D01*
X97921340Y-62576186D01*
X97884197Y-62506697D01*
X97834211Y-62445789D01*
X97773303Y-62395803D01*
X97703814Y-62358660D01*
X97628414Y-62335788D01*
X97550000Y-62328065D01*
X95650000Y-62328065D01*
X95625000Y-62330527D01*
X95625000Y-59049473D01*
X95650000Y-59051935D01*
X97550000Y-59051935D01*
X97628414Y-59044212D01*
X97703814Y-59021340D01*
X97773303Y-58984197D01*
X97834211Y-58934211D01*
X97884197Y-58873303D01*
X97921340Y-58803814D01*
X97944212Y-58728414D01*
X97947010Y-58700000D01*
X99572992Y-58700000D01*
X99600000Y-58702660D01*
X99627008Y-58700000D01*
X99627018Y-58700000D01*
X99707819Y-58692042D01*
X99811494Y-58660592D01*
X99907042Y-58609521D01*
X99990790Y-58540790D01*
X100008013Y-58519804D01*
X101150001Y-57377816D01*
X101150001Y-59122181D01*
G36*
X115185649Y-51145112D02*
G01*
X115095112Y-51235649D01*
X115023978Y-51342110D01*
X114974979Y-51460402D01*
X114950000Y-51585981D01*
X114950000Y-51714019D01*
X114974979Y-51839598D01*
X115023978Y-51957890D01*
X115095112Y-52064351D01*
X115185649Y-52154888D01*
X115292110Y-52226022D01*
X115410402Y-52275021D01*
X115535981Y-52300000D01*
X115664019Y-52300000D01*
X115789598Y-52275021D01*
X115907890Y-52226022D01*
X116014351Y-52154888D01*
X116104888Y-52064351D01*
X116176022Y-51957890D01*
X116225021Y-51839598D01*
X116250000Y-51714019D01*
X116250000Y-51585981D01*
X116225021Y-51460402D01*
X116201184Y-51402856D01*
X116271586Y-51424212D01*
X116350000Y-51431935D01*
X117074114Y-51431935D01*
X117295841Y-51653662D01*
X117304979Y-51699602D01*
X117353978Y-51817894D01*
X117425112Y-51924355D01*
X117515649Y-52014892D01*
X117622110Y-52086026D01*
X117740402Y-52135025D01*
X117865981Y-52160004D01*
X117994019Y-52160004D01*
X118119598Y-52135025D01*
X118237890Y-52086026D01*
X118275001Y-52061230D01*
X118275001Y-54710527D01*
X118250000Y-54708065D01*
X116350000Y-54708065D01*
X116271586Y-54715788D01*
X116196186Y-54738660D01*
X116126697Y-54775803D01*
X116065789Y-54825789D01*
X116015803Y-54886697D01*
X115978660Y-54956186D01*
X115969919Y-54985002D01*
X115939649Y-54985002D01*
X115939598Y-54984981D01*
X115814019Y-54960002D01*
X115685981Y-54960002D01*
X115560402Y-54984981D01*
X115442110Y-55033980D01*
X115335649Y-55105114D01*
X115245112Y-55195651D01*
X115173978Y-55302112D01*
X115124979Y-55420404D01*
X115100000Y-55545983D01*
X115100000Y-55674021D01*
X115124979Y-55799600D01*
X115173978Y-55917892D01*
X115245112Y-56024353D01*
X115335649Y-56114890D01*
X115442110Y-56186024D01*
X115560402Y-56235023D01*
X115685981Y-56260002D01*
X115814019Y-56260002D01*
X115939598Y-56235023D01*
X115939649Y-56235002D01*
X115969920Y-56235002D01*
X115978660Y-56263814D01*
X116015803Y-56333303D01*
X116065789Y-56394211D01*
X116126697Y-56444197D01*
X116196186Y-56481340D01*
X116271586Y-56504212D01*
X116350000Y-56511935D01*
X118250000Y-56511935D01*
X118275001Y-56509473D01*
X118275001Y-59790527D01*
X118250000Y-59788065D01*
X116350000Y-59788065D01*
X116271586Y-59795788D01*
X116196186Y-59818660D01*
X116126697Y-59855803D01*
X116065789Y-59905789D01*
X116015803Y-59966697D01*
X115978660Y-60036186D01*
X115955788Y-60111586D01*
X115952990Y-60140000D01*
X114777816Y-60140000D01*
X113689750Y-59051935D01*
X114950000Y-59051935D01*
X115028414Y-59044212D01*
X115103814Y-59021340D01*
X115173303Y-58984197D01*
X115234211Y-58934211D01*
X115284197Y-58873303D01*
X115321340Y-58803814D01*
X115344212Y-58728414D01*
X115351935Y-58650000D01*
X115351935Y-57650000D01*
X115344212Y-57571586D01*
X115321340Y-57496186D01*
X115284197Y-57426697D01*
X115234211Y-57365789D01*
X115173303Y-57315803D01*
X115103814Y-57278660D01*
X115028414Y-57255788D01*
X114950000Y-57248065D01*
X113425882Y-57248065D01*
X113300000Y-57122183D01*
X113300000Y-53971935D01*
X113362739Y-53971935D01*
X113350000Y-54035981D01*
X113350000Y-54164019D01*
X113374979Y-54289598D01*
X113423978Y-54407890D01*
X113495112Y-54514351D01*
X113585649Y-54604888D01*
X113692110Y-54676022D01*
X113810402Y-54725021D01*
X113935981Y-54750000D01*
X114064019Y-54750000D01*
X114189598Y-54725021D01*
X114307890Y-54676022D01*
X114414351Y-54604888D01*
X114504888Y-54514351D01*
X114576022Y-54407890D01*
X114625021Y-54289598D01*
X114650000Y-54164019D01*
X114650000Y-54035981D01*
X114637261Y-53971935D01*
X114950000Y-53971935D01*
X115028414Y-53964212D01*
X115103814Y-53941340D01*
X115173303Y-53904197D01*
X115234211Y-53854211D01*
X115284197Y-53793303D01*
X115321340Y-53723814D01*
X115344212Y-53648414D01*
X115351935Y-53570000D01*
X115351935Y-52570000D01*
X115344212Y-52491586D01*
X115321340Y-52416186D01*
X115284197Y-52346697D01*
X115234211Y-52285789D01*
X115173303Y-52235803D01*
X115103814Y-52198660D01*
X115028414Y-52175788D01*
X114950000Y-52168065D01*
X114850000Y-52168065D01*
X114850000Y-51080000D01*
X115283097Y-51080000D01*
X115185649Y-51145112D01*
G37*
X115185649Y-51145112D02*
X115095112Y-51235649D01*
X115023978Y-51342110D01*
X114974979Y-51460402D01*
X114950000Y-51585981D01*
X114950000Y-51714019D01*
X114974979Y-51839598D01*
X115023978Y-51957890D01*
X115095112Y-52064351D01*
X115185649Y-52154888D01*
X115292110Y-52226022D01*
X115410402Y-52275021D01*
X115535981Y-52300000D01*
X115664019Y-52300000D01*
X115789598Y-52275021D01*
X115907890Y-52226022D01*
X116014351Y-52154888D01*
X116104888Y-52064351D01*
X116176022Y-51957890D01*
X116225021Y-51839598D01*
X116250000Y-51714019D01*
X116250000Y-51585981D01*
X116225021Y-51460402D01*
X116201184Y-51402856D01*
X116271586Y-51424212D01*
X116350000Y-51431935D01*
X117074114Y-51431935D01*
X117295841Y-51653662D01*
X117304979Y-51699602D01*
X117353978Y-51817894D01*
X117425112Y-51924355D01*
X117515649Y-52014892D01*
X117622110Y-52086026D01*
X117740402Y-52135025D01*
X117865981Y-52160004D01*
X117994019Y-52160004D01*
X118119598Y-52135025D01*
X118237890Y-52086026D01*
X118275001Y-52061230D01*
X118275001Y-54710527D01*
X118250000Y-54708065D01*
X116350000Y-54708065D01*
X116271586Y-54715788D01*
X116196186Y-54738660D01*
X116126697Y-54775803D01*
X116065789Y-54825789D01*
X116015803Y-54886697D01*
X115978660Y-54956186D01*
X115969919Y-54985002D01*
X115939649Y-54985002D01*
X115939598Y-54984981D01*
X115814019Y-54960002D01*
X115685981Y-54960002D01*
X115560402Y-54984981D01*
X115442110Y-55033980D01*
X115335649Y-55105114D01*
X115245112Y-55195651D01*
X115173978Y-55302112D01*
X115124979Y-55420404D01*
X115100000Y-55545983D01*
X115100000Y-55674021D01*
X115124979Y-55799600D01*
X115173978Y-55917892D01*
X115245112Y-56024353D01*
X115335649Y-56114890D01*
X115442110Y-56186024D01*
X115560402Y-56235023D01*
X115685981Y-56260002D01*
X115814019Y-56260002D01*
X115939598Y-56235023D01*
X115939649Y-56235002D01*
X115969920Y-56235002D01*
X115978660Y-56263814D01*
X116015803Y-56333303D01*
X116065789Y-56394211D01*
X116126697Y-56444197D01*
X116196186Y-56481340D01*
X116271586Y-56504212D01*
X116350000Y-56511935D01*
X118250000Y-56511935D01*
X118275001Y-56509473D01*
X118275001Y-59790527D01*
X118250000Y-59788065D01*
X116350000Y-59788065D01*
X116271586Y-59795788D01*
X116196186Y-59818660D01*
X116126697Y-59855803D01*
X116065789Y-59905789D01*
X116015803Y-59966697D01*
X115978660Y-60036186D01*
X115955788Y-60111586D01*
X115952990Y-60140000D01*
X114777816Y-60140000D01*
X113689750Y-59051935D01*
X114950000Y-59051935D01*
X115028414Y-59044212D01*
X115103814Y-59021340D01*
X115173303Y-58984197D01*
X115234211Y-58934211D01*
X115284197Y-58873303D01*
X115321340Y-58803814D01*
X115344212Y-58728414D01*
X115351935Y-58650000D01*
X115351935Y-57650000D01*
X115344212Y-57571586D01*
X115321340Y-57496186D01*
X115284197Y-57426697D01*
X115234211Y-57365789D01*
X115173303Y-57315803D01*
X115103814Y-57278660D01*
X115028414Y-57255788D01*
X114950000Y-57248065D01*
X113425882Y-57248065D01*
X113300000Y-57122183D01*
X113300000Y-53971935D01*
X113362739Y-53971935D01*
X113350000Y-54035981D01*
X113350000Y-54164019D01*
X113374979Y-54289598D01*
X113423978Y-54407890D01*
X113495112Y-54514351D01*
X113585649Y-54604888D01*
X113692110Y-54676022D01*
X113810402Y-54725021D01*
X113935981Y-54750000D01*
X114064019Y-54750000D01*
X114189598Y-54725021D01*
X114307890Y-54676022D01*
X114414351Y-54604888D01*
X114504888Y-54514351D01*
X114576022Y-54407890D01*
X114625021Y-54289598D01*
X114650000Y-54164019D01*
X114650000Y-54035981D01*
X114637261Y-53971935D01*
X114950000Y-53971935D01*
X115028414Y-53964212D01*
X115103814Y-53941340D01*
X115173303Y-53904197D01*
X115234211Y-53854211D01*
X115284197Y-53793303D01*
X115321340Y-53723814D01*
X115344212Y-53648414D01*
X115351935Y-53570000D01*
X115351935Y-52570000D01*
X115344212Y-52491586D01*
X115321340Y-52416186D01*
X115284197Y-52346697D01*
X115234211Y-52285789D01*
X115173303Y-52235803D01*
X115103814Y-52198660D01*
X115028414Y-52175788D01*
X114950000Y-52168065D01*
X114850000Y-52168065D01*
X114850000Y-51080000D01*
X115283097Y-51080000D01*
X115185649Y-51145112D01*
G36*
X97650001Y-54332982D02*
G01*
X97647340Y-54360000D01*
X97650001Y-54387018D01*
X97657959Y-54467819D01*
X97684463Y-54555188D01*
X97689409Y-54571494D01*
X97740479Y-54667042D01*
X97791987Y-54729804D01*
X97791993Y-54729810D01*
X97809211Y-54750790D01*
X97830191Y-54768008D01*
X98548065Y-55485883D01*
X98548065Y-56110000D01*
X98555788Y-56188414D01*
X98578660Y-56263814D01*
X98615803Y-56333303D01*
X98665789Y-56394211D01*
X98726697Y-56444197D01*
X98796186Y-56481340D01*
X98871586Y-56504212D01*
X98950000Y-56511935D01*
X100460248Y-56511935D01*
X99372183Y-57600000D01*
X97947010Y-57600000D01*
X97944212Y-57571586D01*
X97921340Y-57496186D01*
X97884197Y-57426697D01*
X97834211Y-57365789D01*
X97773303Y-57315803D01*
X97703814Y-57278660D01*
X97628414Y-57255788D01*
X97550000Y-57248065D01*
X95650000Y-57248065D01*
X95625000Y-57250527D01*
X95625000Y-53969473D01*
X95650000Y-53971935D01*
X97550000Y-53971935D01*
X97628414Y-53964212D01*
X97650001Y-53957664D01*
X97650001Y-54332982D01*
G37*
X97650001Y-54332982D02*
X97647340Y-54360000D01*
X97650001Y-54387018D01*
X97657959Y-54467819D01*
X97684463Y-54555188D01*
X97689409Y-54571494D01*
X97740479Y-54667042D01*
X97791987Y-54729804D01*
X97791993Y-54729810D01*
X97809211Y-54750790D01*
X97830191Y-54768008D01*
X98548065Y-55485883D01*
X98548065Y-56110000D01*
X98555788Y-56188414D01*
X98578660Y-56263814D01*
X98615803Y-56333303D01*
X98665789Y-56394211D01*
X98726697Y-56444197D01*
X98796186Y-56481340D01*
X98871586Y-56504212D01*
X98950000Y-56511935D01*
X100460248Y-56511935D01*
X99372183Y-57600000D01*
X97947010Y-57600000D01*
X97944212Y-57571586D01*
X97921340Y-57496186D01*
X97884197Y-57426697D01*
X97834211Y-57365789D01*
X97773303Y-57315803D01*
X97703814Y-57278660D01*
X97628414Y-57255788D01*
X97550000Y-57248065D01*
X95650000Y-57248065D01*
X95625000Y-57250527D01*
X95625000Y-53969473D01*
X95650000Y-53971935D01*
X97550000Y-53971935D01*
X97628414Y-53964212D01*
X97650001Y-53957664D01*
X97650001Y-54332982D01*
G36*
X98796186Y-51401340D02*
G01*
X98871586Y-51424212D01*
X98950000Y-51431935D01*
X99400000Y-51431935D01*
X99400000Y-51553164D01*
X99373978Y-51592110D01*
X99324979Y-51710402D01*
X99300000Y-51835981D01*
X99300000Y-51964019D01*
X99324979Y-52089598D01*
X99373978Y-52207890D01*
X99445112Y-52314351D01*
X99535649Y-52404888D01*
X99642110Y-52476022D01*
X99760402Y-52525021D01*
X99885981Y-52550000D01*
X100014019Y-52550000D01*
X100139598Y-52525021D01*
X100257890Y-52476022D01*
X100364351Y-52404888D01*
X100454888Y-52314351D01*
X100500000Y-52246835D01*
X100545112Y-52314351D01*
X100635649Y-52404888D01*
X100650000Y-52414477D01*
X100650001Y-54708065D01*
X99325883Y-54708065D01*
X98750000Y-54132183D01*
X98750000Y-51376653D01*
X98796186Y-51401340D01*
G37*
X98796186Y-51401340D02*
X98871586Y-51424212D01*
X98950000Y-51431935D01*
X99400000Y-51431935D01*
X99400000Y-51553164D01*
X99373978Y-51592110D01*
X99324979Y-51710402D01*
X99300000Y-51835981D01*
X99300000Y-51964019D01*
X99324979Y-52089598D01*
X99373978Y-52207890D01*
X99445112Y-52314351D01*
X99535649Y-52404888D01*
X99642110Y-52476022D01*
X99760402Y-52525021D01*
X99885981Y-52550000D01*
X100014019Y-52550000D01*
X100139598Y-52525021D01*
X100257890Y-52476022D01*
X100364351Y-52404888D01*
X100454888Y-52314351D01*
X100500000Y-52246835D01*
X100545112Y-52314351D01*
X100635649Y-52404888D01*
X100650000Y-52414477D01*
X100650001Y-54708065D01*
X99325883Y-54708065D01*
X98750000Y-54132183D01*
X98750000Y-51376653D01*
X98796186Y-51401340D01*
G36*
X97650000Y-50022983D02*
G01*
X97650000Y-50022992D01*
X97647340Y-50050000D01*
X97650000Y-50077008D01*
X97650000Y-52182336D01*
X97628414Y-52175788D01*
X97550000Y-52168065D01*
X97150000Y-52168065D01*
X97150000Y-50477817D01*
X97654934Y-49972883D01*
X97650000Y-50022983D01*
G37*
X97650000Y-50022983D02*
X97650000Y-50022992D01*
X97647340Y-50050000D01*
X97650000Y-50077008D01*
X97650000Y-52182336D01*
X97628414Y-52175788D01*
X97550000Y-52168065D01*
X97150000Y-52168065D01*
X97150000Y-50477817D01*
X97654934Y-49972883D01*
X97650000Y-50022983D01*
G36*
X96963621Y-46350000D02*
G01*
X97436379Y-46350000D01*
X97687748Y-46300000D01*
X103165369Y-46300000D01*
X103155788Y-46331586D01*
X103148065Y-46410000D01*
X103150000Y-46500000D01*
X103250000Y-46600000D01*
X104000000Y-46600000D01*
X104000000Y-46580000D01*
X104100000Y-46580000D01*
X104100000Y-46600000D01*
X104120000Y-46600000D01*
X104120000Y-46700000D01*
X104100000Y-46700000D01*
X104100000Y-46708065D01*
X104000000Y-46708065D01*
X104000000Y-46700000D01*
X103250000Y-46700000D01*
X103150000Y-46800000D01*
X102447885Y-46800000D01*
X102404888Y-46735649D01*
X102314351Y-46645112D01*
X102207890Y-46573978D01*
X102089598Y-46524979D01*
X101964019Y-46500000D01*
X101835981Y-46500000D01*
X101710402Y-46524979D01*
X101592110Y-46573978D01*
X101485649Y-46645112D01*
X101395112Y-46735649D01*
X101323978Y-46842110D01*
X101274979Y-46960402D01*
X101250000Y-47085981D01*
X101250000Y-47214019D01*
X101274979Y-47339598D01*
X101323978Y-47457890D01*
X101352115Y-47500000D01*
X98827011Y-47500000D01*
X98800000Y-47497340D01*
X98772989Y-47500000D01*
X98772982Y-47500000D01*
X98692181Y-47507958D01*
X98588505Y-47539408D01*
X98492958Y-47590479D01*
X98430195Y-47641987D01*
X98430190Y-47641992D01*
X98409210Y-47659210D01*
X98391992Y-47680190D01*
X97941091Y-48131091D01*
X97850000Y-48040000D01*
X96650000Y-48040000D01*
X96650000Y-48790000D01*
X96750000Y-48890000D01*
X97181140Y-48891043D01*
X96230196Y-49841987D01*
X96209210Y-49859210D01*
X96191987Y-49880196D01*
X96161500Y-49917344D01*
X96140479Y-49942958D01*
X96089408Y-50038507D01*
X96057958Y-50142182D01*
X96050000Y-50222983D01*
X96050000Y-50222992D01*
X96047340Y-50250000D01*
X96050000Y-50277008D01*
X96050001Y-52168065D01*
X95650000Y-52168065D01*
X95625000Y-52170527D01*
X95625000Y-48889473D01*
X95650000Y-48891935D01*
X96450000Y-48890000D01*
X96550000Y-48790000D01*
X96550000Y-48040000D01*
X96530000Y-48040000D01*
X96530000Y-47940000D01*
X96550000Y-47940000D01*
X96550000Y-47190000D01*
X96650000Y-47190000D01*
X96650000Y-47940000D01*
X97850000Y-47940000D01*
X97950000Y-47840000D01*
X97951935Y-47490000D01*
X97944212Y-47411586D01*
X97921340Y-47336186D01*
X97884197Y-47266697D01*
X97834211Y-47205789D01*
X97773303Y-47155803D01*
X97703814Y-47118660D01*
X97628414Y-47095788D01*
X97550000Y-47088065D01*
X96750000Y-47090000D01*
X96650000Y-47190000D01*
X96550000Y-47190000D01*
X96450000Y-47090000D01*
X95650000Y-47088065D01*
X95625000Y-47090527D01*
X95625000Y-46300000D01*
X96712252Y-46300000D01*
X96963621Y-46350000D01*
G37*
X96963621Y-46350000D02*
X97436379Y-46350000D01*
X97687748Y-46300000D01*
X103165369Y-46300000D01*
X103155788Y-46331586D01*
X103148065Y-46410000D01*
X103150000Y-46500000D01*
X103250000Y-46600000D01*
X104000000Y-46600000D01*
X104000000Y-46580000D01*
X104100000Y-46580000D01*
X104100000Y-46600000D01*
X104120000Y-46600000D01*
X104120000Y-46700000D01*
X104100000Y-46700000D01*
X104100000Y-46708065D01*
X104000000Y-46708065D01*
X104000000Y-46700000D01*
X103250000Y-46700000D01*
X103150000Y-46800000D01*
X102447885Y-46800000D01*
X102404888Y-46735649D01*
X102314351Y-46645112D01*
X102207890Y-46573978D01*
X102089598Y-46524979D01*
X101964019Y-46500000D01*
X101835981Y-46500000D01*
X101710402Y-46524979D01*
X101592110Y-46573978D01*
X101485649Y-46645112D01*
X101395112Y-46735649D01*
X101323978Y-46842110D01*
X101274979Y-46960402D01*
X101250000Y-47085981D01*
X101250000Y-47214019D01*
X101274979Y-47339598D01*
X101323978Y-47457890D01*
X101352115Y-47500000D01*
X98827011Y-47500000D01*
X98800000Y-47497340D01*
X98772989Y-47500000D01*
X98772982Y-47500000D01*
X98692181Y-47507958D01*
X98588505Y-47539408D01*
X98492958Y-47590479D01*
X98430195Y-47641987D01*
X98430190Y-47641992D01*
X98409210Y-47659210D01*
X98391992Y-47680190D01*
X97941091Y-48131091D01*
X97850000Y-48040000D01*
X96650000Y-48040000D01*
X96650000Y-48790000D01*
X96750000Y-48890000D01*
X97181140Y-48891043D01*
X96230196Y-49841987D01*
X96209210Y-49859210D01*
X96191987Y-49880196D01*
X96161500Y-49917344D01*
X96140479Y-49942958D01*
X96089408Y-50038507D01*
X96057958Y-50142182D01*
X96050000Y-50222983D01*
X96050000Y-50222992D01*
X96047340Y-50250000D01*
X96050000Y-50277008D01*
X96050001Y-52168065D01*
X95650000Y-52168065D01*
X95625000Y-52170527D01*
X95625000Y-48889473D01*
X95650000Y-48891935D01*
X96450000Y-48890000D01*
X96550000Y-48790000D01*
X96550000Y-48040000D01*
X96530000Y-48040000D01*
X96530000Y-47940000D01*
X96550000Y-47940000D01*
X96550000Y-47190000D01*
X96650000Y-47190000D01*
X96650000Y-47940000D01*
X97850000Y-47940000D01*
X97950000Y-47840000D01*
X97951935Y-47490000D01*
X97944212Y-47411586D01*
X97921340Y-47336186D01*
X97884197Y-47266697D01*
X97834211Y-47205789D01*
X97773303Y-47155803D01*
X97703814Y-47118660D01*
X97628414Y-47095788D01*
X97550000Y-47088065D01*
X96750000Y-47090000D01*
X96650000Y-47190000D01*
X96550000Y-47190000D01*
X96450000Y-47090000D01*
X95650000Y-47088065D01*
X95625000Y-47090527D01*
X95625000Y-46300000D01*
X96712252Y-46300000D01*
X96963621Y-46350000D01*
G36*
X111749991Y-51627809D02*
G01*
X111749991Y-51766108D01*
X111113658Y-51129776D01*
X111094080Y-51105920D01*
X110998911Y-51027817D01*
X110890334Y-50969781D01*
X110772521Y-50934043D01*
X110680704Y-50925000D01*
X110680694Y-50925000D01*
X110674378Y-50924378D01*
X110650000Y-50900000D01*
X109900000Y-50900000D01*
X109900000Y-50908065D01*
X109800000Y-50908065D01*
X109800000Y-50900000D01*
X109780000Y-50900000D01*
X109780000Y-50800000D01*
X109800000Y-50800000D01*
X109800000Y-50791935D01*
X109900000Y-50791935D01*
X109900000Y-50800000D01*
X110650000Y-50800000D01*
X110750000Y-50700000D01*
X110822183Y-50700000D01*
X111749991Y-51627809D01*
G37*
X111749991Y-51627809D02*
X111749991Y-51766108D01*
X111113658Y-51129776D01*
X111094080Y-51105920D01*
X110998911Y-51027817D01*
X110890334Y-50969781D01*
X110772521Y-50934043D01*
X110680704Y-50925000D01*
X110680694Y-50925000D01*
X110674378Y-50924378D01*
X110650000Y-50900000D01*
X109900000Y-50900000D01*
X109900000Y-50908065D01*
X109800000Y-50908065D01*
X109800000Y-50900000D01*
X109780000Y-50900000D01*
X109780000Y-50800000D01*
X109800000Y-50800000D01*
X109800000Y-50791935D01*
X109900000Y-50791935D01*
X109900000Y-50800000D01*
X110650000Y-50800000D01*
X110750000Y-50700000D01*
X110822183Y-50700000D01*
X111749991Y-51627809D01*
G36*
X116463621Y-46350000D02*
G01*
X116936379Y-46350000D01*
X117187748Y-46300000D01*
X118275001Y-46300000D01*
X118275001Y-49630527D01*
X118250000Y-49628065D01*
X116350000Y-49628065D01*
X116271586Y-49635788D01*
X116196186Y-49658660D01*
X116126697Y-49695803D01*
X116065789Y-49745789D01*
X116015803Y-49806697D01*
X115978660Y-49876186D01*
X115955788Y-49951586D01*
X115952990Y-49980000D01*
X114857818Y-49980000D01*
X113768016Y-48890198D01*
X113850000Y-48890000D01*
X113950000Y-48790000D01*
X113950000Y-48040000D01*
X114050000Y-48040000D01*
X114050000Y-48790000D01*
X114150000Y-48890000D01*
X114950000Y-48891935D01*
X115028414Y-48884212D01*
X115103814Y-48861340D01*
X115173303Y-48824197D01*
X115234211Y-48774211D01*
X115284197Y-48713303D01*
X115321340Y-48643814D01*
X115344212Y-48568414D01*
X115351935Y-48490000D01*
X115350000Y-48140000D01*
X115250000Y-48040000D01*
X114050000Y-48040000D01*
X113950000Y-48040000D01*
X113930000Y-48040000D01*
X113930000Y-47940000D01*
X113950000Y-47940000D01*
X113950000Y-47920000D01*
X114050000Y-47920000D01*
X114050000Y-47940000D01*
X115250000Y-47940000D01*
X115350000Y-47840000D01*
X115351935Y-47490000D01*
X115344212Y-47411586D01*
X115321340Y-47336186D01*
X115284197Y-47266697D01*
X115234211Y-47205789D01*
X115173303Y-47155803D01*
X115103814Y-47118660D01*
X115028414Y-47095788D01*
X114950000Y-47088065D01*
X114150000Y-47090000D01*
X114050002Y-47189998D01*
X114050002Y-47102080D01*
X114160238Y-46991844D01*
X114253260Y-46852626D01*
X114317335Y-46697936D01*
X114350000Y-46533718D01*
X114350000Y-46366282D01*
X114336816Y-46300000D01*
X116212252Y-46300000D01*
X116463621Y-46350000D01*
G37*
X116463621Y-46350000D02*
X116936379Y-46350000D01*
X117187748Y-46300000D01*
X118275001Y-46300000D01*
X118275001Y-49630527D01*
X118250000Y-49628065D01*
X116350000Y-49628065D01*
X116271586Y-49635788D01*
X116196186Y-49658660D01*
X116126697Y-49695803D01*
X116065789Y-49745789D01*
X116015803Y-49806697D01*
X115978660Y-49876186D01*
X115955788Y-49951586D01*
X115952990Y-49980000D01*
X114857818Y-49980000D01*
X113768016Y-48890198D01*
X113850000Y-48890000D01*
X113950000Y-48790000D01*
X113950000Y-48040000D01*
X114050000Y-48040000D01*
X114050000Y-48790000D01*
X114150000Y-48890000D01*
X114950000Y-48891935D01*
X115028414Y-48884212D01*
X115103814Y-48861340D01*
X115173303Y-48824197D01*
X115234211Y-48774211D01*
X115284197Y-48713303D01*
X115321340Y-48643814D01*
X115344212Y-48568414D01*
X115351935Y-48490000D01*
X115350000Y-48140000D01*
X115250000Y-48040000D01*
X114050000Y-48040000D01*
X113950000Y-48040000D01*
X113930000Y-48040000D01*
X113930000Y-47940000D01*
X113950000Y-47940000D01*
X113950000Y-47920000D01*
X114050000Y-47920000D01*
X114050000Y-47940000D01*
X115250000Y-47940000D01*
X115350000Y-47840000D01*
X115351935Y-47490000D01*
X115344212Y-47411586D01*
X115321340Y-47336186D01*
X115284197Y-47266697D01*
X115234211Y-47205789D01*
X115173303Y-47155803D01*
X115103814Y-47118660D01*
X115028414Y-47095788D01*
X114950000Y-47088065D01*
X114150000Y-47090000D01*
X114050002Y-47189998D01*
X114050002Y-47102080D01*
X114160238Y-46991844D01*
X114253260Y-46852626D01*
X114317335Y-46697936D01*
X114350000Y-46533718D01*
X114350000Y-46366282D01*
X114336816Y-46300000D01*
X116212252Y-46300000D01*
X116463621Y-46350000D01*
G36*
X112650000Y-46366282D02*
G01*
X112650000Y-46533718D01*
X112682665Y-46697936D01*
X112746740Y-46852626D01*
X112839762Y-46991844D01*
X112950195Y-47102277D01*
X112896186Y-47118660D01*
X112826697Y-47155803D01*
X112765789Y-47205789D01*
X112715803Y-47266697D01*
X112678660Y-47336186D01*
X112655788Y-47411586D01*
X112648065Y-47490000D01*
X112649623Y-47771806D01*
X111858013Y-46980196D01*
X111840790Y-46959210D01*
X111757042Y-46890479D01*
X111661494Y-46839408D01*
X111557819Y-46807958D01*
X111477018Y-46800000D01*
X111477008Y-46800000D01*
X111450000Y-46797340D01*
X111422992Y-46800000D01*
X110750000Y-46800000D01*
X110650000Y-46700000D01*
X109900000Y-46700000D01*
X109900000Y-46708065D01*
X109800000Y-46708065D01*
X109800000Y-46700000D01*
X109780000Y-46700000D01*
X109780000Y-46600000D01*
X109800000Y-46600000D01*
X109800000Y-46580000D01*
X109900000Y-46580000D01*
X109900000Y-46600000D01*
X110650000Y-46600000D01*
X110750000Y-46500000D01*
X110751935Y-46410000D01*
X110744212Y-46331586D01*
X110734631Y-46300000D01*
X112663184Y-46300000D01*
X112650000Y-46366282D01*
G37*
X112650000Y-46366282D02*
X112650000Y-46533718D01*
X112682665Y-46697936D01*
X112746740Y-46852626D01*
X112839762Y-46991844D01*
X112950195Y-47102277D01*
X112896186Y-47118660D01*
X112826697Y-47155803D01*
X112765789Y-47205789D01*
X112715803Y-47266697D01*
X112678660Y-47336186D01*
X112655788Y-47411586D01*
X112648065Y-47490000D01*
X112649623Y-47771806D01*
X111858013Y-46980196D01*
X111840790Y-46959210D01*
X111757042Y-46890479D01*
X111661494Y-46839408D01*
X111557819Y-46807958D01*
X111477018Y-46800000D01*
X111477008Y-46800000D01*
X111450000Y-46797340D01*
X111422992Y-46800000D01*
X110750000Y-46800000D01*
X110650000Y-46700000D01*
X109900000Y-46700000D01*
X109900000Y-46708065D01*
X109800000Y-46708065D01*
X109800000Y-46700000D01*
X109780000Y-46700000D01*
X109780000Y-46600000D01*
X109800000Y-46600000D01*
X109800000Y-46580000D01*
X109900000Y-46580000D01*
X109900000Y-46600000D01*
X110650000Y-46600000D01*
X110750000Y-46500000D01*
X110751935Y-46410000D01*
X110744212Y-46331586D01*
X110734631Y-46300000D01*
X112663184Y-46300000D01*
X112650000Y-46366282D01*
M02*
