G04 #@! TF.GenerationSoftware,KiCad,Pcbnew,(5.1.5-0-10_14)*
G04 #@! TF.CreationDate,2020-09-25T15:56:19+02:00*
G04 #@! TF.ProjectId,s1-popout-board,73312d70-6f70-46f7-9574-2d626f617264,2*
G04 #@! TF.SameCoordinates,Original*
G04 #@! TF.FileFunction,Paste,Top*
G04 #@! TF.FilePolarity,Positive*
%FSLAX46Y46*%
G04 Gerber Fmt 4.6, Leading zero omitted, Abs format (unit mm)*
G04 Created by KiCad (PCBNEW (5.1.5-0-10_14)) date 2020-09-25 15:56:19*
%MOMM*%
%LPD*%
G04 APERTURE LIST*
%ADD10R,2.006600X0.990600*%
%ADD11R,1.092200X0.558800*%
%ADD12R,1.041400X0.304800*%
%ADD13R,1.050000X0.650000*%
%ADD14C,0.100000*%
%ADD15R,0.600000X1.550000*%
%ADD16R,1.200000X1.800000*%
%ADD17R,0.740000X2.790000*%
%ADD18R,3.400000X1.500000*%
%ADD19R,3.500000X1.000000*%
%ADD20R,1.900000X1.000000*%
%ADD21R,1.000000X0.500000*%
G04 APERTURE END LIST*
D10*
X116596000Y-76650001D03*
X116596000Y-79450000D03*
D11*
X112100000Y-74950001D03*
X112100000Y-75700000D03*
D12*
X112100000Y-76300001D03*
X112100000Y-76800000D03*
X112100000Y-77299999D03*
X112100000Y-77800001D03*
X112100000Y-78300000D03*
X112100000Y-78800001D03*
X112100000Y-79300000D03*
X112100000Y-79799999D03*
D11*
X112100000Y-80400001D03*
X112100000Y-81150000D03*
D13*
X104875000Y-58096666D03*
X104875000Y-55946666D03*
X109025000Y-55946666D03*
X109025000Y-58096666D03*
D14*
G36*
X101692292Y-49220383D02*
G01*
X101700010Y-49221528D01*
X101707578Y-49223423D01*
X101714923Y-49226052D01*
X101721976Y-49229387D01*
X101728668Y-49233398D01*
X101734934Y-49238046D01*
X101740715Y-49243285D01*
X101745954Y-49249066D01*
X101750602Y-49255332D01*
X101754613Y-49262024D01*
X101757948Y-49269077D01*
X101760577Y-49276422D01*
X101762472Y-49283990D01*
X101763617Y-49291708D01*
X101764000Y-49299500D01*
X101764000Y-49500500D01*
X101763617Y-49508292D01*
X101762472Y-49516010D01*
X101760577Y-49523578D01*
X101757948Y-49530923D01*
X101754613Y-49537976D01*
X101750602Y-49544668D01*
X101745954Y-49550934D01*
X101740715Y-49556715D01*
X101734934Y-49561954D01*
X101728668Y-49566602D01*
X101721976Y-49570613D01*
X101714923Y-49573948D01*
X101707578Y-49576577D01*
X101700010Y-49578472D01*
X101692292Y-49579617D01*
X101684500Y-49580000D01*
X101525500Y-49580000D01*
X101517708Y-49579617D01*
X101509990Y-49578472D01*
X101502422Y-49576577D01*
X101495077Y-49573948D01*
X101488024Y-49570613D01*
X101481332Y-49566602D01*
X101475066Y-49561954D01*
X101469285Y-49556715D01*
X101464046Y-49550934D01*
X101459398Y-49544668D01*
X101455387Y-49537976D01*
X101452052Y-49530923D01*
X101449423Y-49523578D01*
X101447528Y-49516010D01*
X101446383Y-49508292D01*
X101446000Y-49500500D01*
X101446000Y-49299500D01*
X101446383Y-49291708D01*
X101447528Y-49283990D01*
X101449423Y-49276422D01*
X101452052Y-49269077D01*
X101455387Y-49262024D01*
X101459398Y-49255332D01*
X101464046Y-49249066D01*
X101469285Y-49243285D01*
X101475066Y-49238046D01*
X101481332Y-49233398D01*
X101488024Y-49229387D01*
X101495077Y-49226052D01*
X101502422Y-49223423D01*
X101509990Y-49221528D01*
X101517708Y-49220383D01*
X101525500Y-49220000D01*
X101684500Y-49220000D01*
X101692292Y-49220383D01*
G37*
G36*
X102382292Y-49220383D02*
G01*
X102390010Y-49221528D01*
X102397578Y-49223423D01*
X102404923Y-49226052D01*
X102411976Y-49229387D01*
X102418668Y-49233398D01*
X102424934Y-49238046D01*
X102430715Y-49243285D01*
X102435954Y-49249066D01*
X102440602Y-49255332D01*
X102444613Y-49262024D01*
X102447948Y-49269077D01*
X102450577Y-49276422D01*
X102452472Y-49283990D01*
X102453617Y-49291708D01*
X102454000Y-49299500D01*
X102454000Y-49500500D01*
X102453617Y-49508292D01*
X102452472Y-49516010D01*
X102450577Y-49523578D01*
X102447948Y-49530923D01*
X102444613Y-49537976D01*
X102440602Y-49544668D01*
X102435954Y-49550934D01*
X102430715Y-49556715D01*
X102424934Y-49561954D01*
X102418668Y-49566602D01*
X102411976Y-49570613D01*
X102404923Y-49573948D01*
X102397578Y-49576577D01*
X102390010Y-49578472D01*
X102382292Y-49579617D01*
X102374500Y-49580000D01*
X102215500Y-49580000D01*
X102207708Y-49579617D01*
X102199990Y-49578472D01*
X102192422Y-49576577D01*
X102185077Y-49573948D01*
X102178024Y-49570613D01*
X102171332Y-49566602D01*
X102165066Y-49561954D01*
X102159285Y-49556715D01*
X102154046Y-49550934D01*
X102149398Y-49544668D01*
X102145387Y-49537976D01*
X102142052Y-49530923D01*
X102139423Y-49523578D01*
X102137528Y-49516010D01*
X102136383Y-49508292D01*
X102136000Y-49500500D01*
X102136000Y-49299500D01*
X102136383Y-49291708D01*
X102137528Y-49283990D01*
X102139423Y-49276422D01*
X102142052Y-49269077D01*
X102145387Y-49262024D01*
X102149398Y-49255332D01*
X102154046Y-49249066D01*
X102159285Y-49243285D01*
X102165066Y-49238046D01*
X102171332Y-49233398D01*
X102178024Y-49229387D01*
X102185077Y-49226052D01*
X102192422Y-49223423D01*
X102199990Y-49221528D01*
X102207708Y-49220383D01*
X102215500Y-49220000D01*
X102374500Y-49220000D01*
X102382292Y-49220383D01*
G37*
G36*
X106717292Y-62545383D02*
G01*
X106725010Y-62546528D01*
X106732578Y-62548423D01*
X106739923Y-62551052D01*
X106746976Y-62554387D01*
X106753668Y-62558398D01*
X106759934Y-62563046D01*
X106765715Y-62568285D01*
X106770954Y-62574066D01*
X106775602Y-62580332D01*
X106779613Y-62587024D01*
X106782948Y-62594077D01*
X106785577Y-62601422D01*
X106787472Y-62608990D01*
X106788617Y-62616708D01*
X106789000Y-62624500D01*
X106789000Y-62825500D01*
X106788617Y-62833292D01*
X106787472Y-62841010D01*
X106785577Y-62848578D01*
X106782948Y-62855923D01*
X106779613Y-62862976D01*
X106775602Y-62869668D01*
X106770954Y-62875934D01*
X106765715Y-62881715D01*
X106759934Y-62886954D01*
X106753668Y-62891602D01*
X106746976Y-62895613D01*
X106739923Y-62898948D01*
X106732578Y-62901577D01*
X106725010Y-62903472D01*
X106717292Y-62904617D01*
X106709500Y-62905000D01*
X106550500Y-62905000D01*
X106542708Y-62904617D01*
X106534990Y-62903472D01*
X106527422Y-62901577D01*
X106520077Y-62898948D01*
X106513024Y-62895613D01*
X106506332Y-62891602D01*
X106500066Y-62886954D01*
X106494285Y-62881715D01*
X106489046Y-62875934D01*
X106484398Y-62869668D01*
X106480387Y-62862976D01*
X106477052Y-62855923D01*
X106474423Y-62848578D01*
X106472528Y-62841010D01*
X106471383Y-62833292D01*
X106471000Y-62825500D01*
X106471000Y-62624500D01*
X106471383Y-62616708D01*
X106472528Y-62608990D01*
X106474423Y-62601422D01*
X106477052Y-62594077D01*
X106480387Y-62587024D01*
X106484398Y-62580332D01*
X106489046Y-62574066D01*
X106494285Y-62568285D01*
X106500066Y-62563046D01*
X106506332Y-62558398D01*
X106513024Y-62554387D01*
X106520077Y-62551052D01*
X106527422Y-62548423D01*
X106534990Y-62546528D01*
X106542708Y-62545383D01*
X106550500Y-62545000D01*
X106709500Y-62545000D01*
X106717292Y-62545383D01*
G37*
G36*
X107407292Y-62545383D02*
G01*
X107415010Y-62546528D01*
X107422578Y-62548423D01*
X107429923Y-62551052D01*
X107436976Y-62554387D01*
X107443668Y-62558398D01*
X107449934Y-62563046D01*
X107455715Y-62568285D01*
X107460954Y-62574066D01*
X107465602Y-62580332D01*
X107469613Y-62587024D01*
X107472948Y-62594077D01*
X107475577Y-62601422D01*
X107477472Y-62608990D01*
X107478617Y-62616708D01*
X107479000Y-62624500D01*
X107479000Y-62825500D01*
X107478617Y-62833292D01*
X107477472Y-62841010D01*
X107475577Y-62848578D01*
X107472948Y-62855923D01*
X107469613Y-62862976D01*
X107465602Y-62869668D01*
X107460954Y-62875934D01*
X107455715Y-62881715D01*
X107449934Y-62886954D01*
X107443668Y-62891602D01*
X107436976Y-62895613D01*
X107429923Y-62898948D01*
X107422578Y-62901577D01*
X107415010Y-62903472D01*
X107407292Y-62904617D01*
X107399500Y-62905000D01*
X107240500Y-62905000D01*
X107232708Y-62904617D01*
X107224990Y-62903472D01*
X107217422Y-62901577D01*
X107210077Y-62898948D01*
X107203024Y-62895613D01*
X107196332Y-62891602D01*
X107190066Y-62886954D01*
X107184285Y-62881715D01*
X107179046Y-62875934D01*
X107174398Y-62869668D01*
X107170387Y-62862976D01*
X107167052Y-62855923D01*
X107164423Y-62848578D01*
X107162528Y-62841010D01*
X107161383Y-62833292D01*
X107161000Y-62825500D01*
X107161000Y-62624500D01*
X107161383Y-62616708D01*
X107162528Y-62608990D01*
X107164423Y-62601422D01*
X107167052Y-62594077D01*
X107170387Y-62587024D01*
X107174398Y-62580332D01*
X107179046Y-62574066D01*
X107184285Y-62568285D01*
X107190066Y-62563046D01*
X107196332Y-62558398D01*
X107203024Y-62554387D01*
X107210077Y-62551052D01*
X107217422Y-62548423D01*
X107224990Y-62546528D01*
X107232708Y-62545383D01*
X107240500Y-62545000D01*
X107399500Y-62545000D01*
X107407292Y-62545383D01*
G37*
G36*
X109542292Y-79620383D02*
G01*
X109550010Y-79621528D01*
X109557578Y-79623423D01*
X109564923Y-79626052D01*
X109571976Y-79629387D01*
X109578668Y-79633398D01*
X109584934Y-79638046D01*
X109590715Y-79643285D01*
X109595954Y-79649066D01*
X109600602Y-79655332D01*
X109604613Y-79662024D01*
X109607948Y-79669077D01*
X109610577Y-79676422D01*
X109612472Y-79683990D01*
X109613617Y-79691708D01*
X109614000Y-79699500D01*
X109614000Y-79900500D01*
X109613617Y-79908292D01*
X109612472Y-79916010D01*
X109610577Y-79923578D01*
X109607948Y-79930923D01*
X109604613Y-79937976D01*
X109600602Y-79944668D01*
X109595954Y-79950934D01*
X109590715Y-79956715D01*
X109584934Y-79961954D01*
X109578668Y-79966602D01*
X109571976Y-79970613D01*
X109564923Y-79973948D01*
X109557578Y-79976577D01*
X109550010Y-79978472D01*
X109542292Y-79979617D01*
X109534500Y-79980000D01*
X109375500Y-79980000D01*
X109367708Y-79979617D01*
X109359990Y-79978472D01*
X109352422Y-79976577D01*
X109345077Y-79973948D01*
X109338024Y-79970613D01*
X109331332Y-79966602D01*
X109325066Y-79961954D01*
X109319285Y-79956715D01*
X109314046Y-79950934D01*
X109309398Y-79944668D01*
X109305387Y-79937976D01*
X109302052Y-79930923D01*
X109299423Y-79923578D01*
X109297528Y-79916010D01*
X109296383Y-79908292D01*
X109296000Y-79900500D01*
X109296000Y-79699500D01*
X109296383Y-79691708D01*
X109297528Y-79683990D01*
X109299423Y-79676422D01*
X109302052Y-79669077D01*
X109305387Y-79662024D01*
X109309398Y-79655332D01*
X109314046Y-79649066D01*
X109319285Y-79643285D01*
X109325066Y-79638046D01*
X109331332Y-79633398D01*
X109338024Y-79629387D01*
X109345077Y-79626052D01*
X109352422Y-79623423D01*
X109359990Y-79621528D01*
X109367708Y-79620383D01*
X109375500Y-79620000D01*
X109534500Y-79620000D01*
X109542292Y-79620383D01*
G37*
G36*
X110232292Y-79620383D02*
G01*
X110240010Y-79621528D01*
X110247578Y-79623423D01*
X110254923Y-79626052D01*
X110261976Y-79629387D01*
X110268668Y-79633398D01*
X110274934Y-79638046D01*
X110280715Y-79643285D01*
X110285954Y-79649066D01*
X110290602Y-79655332D01*
X110294613Y-79662024D01*
X110297948Y-79669077D01*
X110300577Y-79676422D01*
X110302472Y-79683990D01*
X110303617Y-79691708D01*
X110304000Y-79699500D01*
X110304000Y-79900500D01*
X110303617Y-79908292D01*
X110302472Y-79916010D01*
X110300577Y-79923578D01*
X110297948Y-79930923D01*
X110294613Y-79937976D01*
X110290602Y-79944668D01*
X110285954Y-79950934D01*
X110280715Y-79956715D01*
X110274934Y-79961954D01*
X110268668Y-79966602D01*
X110261976Y-79970613D01*
X110254923Y-79973948D01*
X110247578Y-79976577D01*
X110240010Y-79978472D01*
X110232292Y-79979617D01*
X110224500Y-79980000D01*
X110065500Y-79980000D01*
X110057708Y-79979617D01*
X110049990Y-79978472D01*
X110042422Y-79976577D01*
X110035077Y-79973948D01*
X110028024Y-79970613D01*
X110021332Y-79966602D01*
X110015066Y-79961954D01*
X110009285Y-79956715D01*
X110004046Y-79950934D01*
X109999398Y-79944668D01*
X109995387Y-79937976D01*
X109992052Y-79930923D01*
X109989423Y-79923578D01*
X109987528Y-79916010D01*
X109986383Y-79908292D01*
X109986000Y-79900500D01*
X109986000Y-79699500D01*
X109986383Y-79691708D01*
X109987528Y-79683990D01*
X109989423Y-79676422D01*
X109992052Y-79669077D01*
X109995387Y-79662024D01*
X109999398Y-79655332D01*
X110004046Y-79649066D01*
X110009285Y-79643285D01*
X110015066Y-79638046D01*
X110021332Y-79633398D01*
X110028024Y-79629387D01*
X110035077Y-79626052D01*
X110042422Y-79623423D01*
X110049990Y-79621528D01*
X110057708Y-79620383D01*
X110065500Y-79620000D01*
X110224500Y-79620000D01*
X110232292Y-79620383D01*
G37*
G36*
X109562292Y-76620383D02*
G01*
X109570010Y-76621528D01*
X109577578Y-76623423D01*
X109584923Y-76626052D01*
X109591976Y-76629387D01*
X109598668Y-76633398D01*
X109604934Y-76638046D01*
X109610715Y-76643285D01*
X109615954Y-76649066D01*
X109620602Y-76655332D01*
X109624613Y-76662024D01*
X109627948Y-76669077D01*
X109630577Y-76676422D01*
X109632472Y-76683990D01*
X109633617Y-76691708D01*
X109634000Y-76699500D01*
X109634000Y-76900500D01*
X109633617Y-76908292D01*
X109632472Y-76916010D01*
X109630577Y-76923578D01*
X109627948Y-76930923D01*
X109624613Y-76937976D01*
X109620602Y-76944668D01*
X109615954Y-76950934D01*
X109610715Y-76956715D01*
X109604934Y-76961954D01*
X109598668Y-76966602D01*
X109591976Y-76970613D01*
X109584923Y-76973948D01*
X109577578Y-76976577D01*
X109570010Y-76978472D01*
X109562292Y-76979617D01*
X109554500Y-76980000D01*
X109395500Y-76980000D01*
X109387708Y-76979617D01*
X109379990Y-76978472D01*
X109372422Y-76976577D01*
X109365077Y-76973948D01*
X109358024Y-76970613D01*
X109351332Y-76966602D01*
X109345066Y-76961954D01*
X109339285Y-76956715D01*
X109334046Y-76950934D01*
X109329398Y-76944668D01*
X109325387Y-76937976D01*
X109322052Y-76930923D01*
X109319423Y-76923578D01*
X109317528Y-76916010D01*
X109316383Y-76908292D01*
X109316000Y-76900500D01*
X109316000Y-76699500D01*
X109316383Y-76691708D01*
X109317528Y-76683990D01*
X109319423Y-76676422D01*
X109322052Y-76669077D01*
X109325387Y-76662024D01*
X109329398Y-76655332D01*
X109334046Y-76649066D01*
X109339285Y-76643285D01*
X109345066Y-76638046D01*
X109351332Y-76633398D01*
X109358024Y-76629387D01*
X109365077Y-76626052D01*
X109372422Y-76623423D01*
X109379990Y-76621528D01*
X109387708Y-76620383D01*
X109395500Y-76620000D01*
X109554500Y-76620000D01*
X109562292Y-76620383D01*
G37*
G36*
X110252292Y-76620383D02*
G01*
X110260010Y-76621528D01*
X110267578Y-76623423D01*
X110274923Y-76626052D01*
X110281976Y-76629387D01*
X110288668Y-76633398D01*
X110294934Y-76638046D01*
X110300715Y-76643285D01*
X110305954Y-76649066D01*
X110310602Y-76655332D01*
X110314613Y-76662024D01*
X110317948Y-76669077D01*
X110320577Y-76676422D01*
X110322472Y-76683990D01*
X110323617Y-76691708D01*
X110324000Y-76699500D01*
X110324000Y-76900500D01*
X110323617Y-76908292D01*
X110322472Y-76916010D01*
X110320577Y-76923578D01*
X110317948Y-76930923D01*
X110314613Y-76937976D01*
X110310602Y-76944668D01*
X110305954Y-76950934D01*
X110300715Y-76956715D01*
X110294934Y-76961954D01*
X110288668Y-76966602D01*
X110281976Y-76970613D01*
X110274923Y-76973948D01*
X110267578Y-76976577D01*
X110260010Y-76978472D01*
X110252292Y-76979617D01*
X110244500Y-76980000D01*
X110085500Y-76980000D01*
X110077708Y-76979617D01*
X110069990Y-76978472D01*
X110062422Y-76976577D01*
X110055077Y-76973948D01*
X110048024Y-76970613D01*
X110041332Y-76966602D01*
X110035066Y-76961954D01*
X110029285Y-76956715D01*
X110024046Y-76950934D01*
X110019398Y-76944668D01*
X110015387Y-76937976D01*
X110012052Y-76930923D01*
X110009423Y-76923578D01*
X110007528Y-76916010D01*
X110006383Y-76908292D01*
X110006000Y-76900500D01*
X110006000Y-76699500D01*
X110006383Y-76691708D01*
X110007528Y-76683990D01*
X110009423Y-76676422D01*
X110012052Y-76669077D01*
X110015387Y-76662024D01*
X110019398Y-76655332D01*
X110024046Y-76649066D01*
X110029285Y-76643285D01*
X110035066Y-76638046D01*
X110041332Y-76633398D01*
X110048024Y-76629387D01*
X110055077Y-76626052D01*
X110062422Y-76623423D01*
X110069990Y-76621528D01*
X110077708Y-76620383D01*
X110085500Y-76620000D01*
X110244500Y-76620000D01*
X110252292Y-76620383D01*
G37*
D15*
X109000000Y-82875000D03*
X108000000Y-82875000D03*
X107000000Y-82875000D03*
X106000000Y-82875000D03*
D16*
X104700000Y-86750000D03*
X110300000Y-86750000D03*
D17*
X108220000Y-69585000D03*
X109490000Y-65515000D03*
X109490000Y-69585000D03*
X108220000Y-65515000D03*
X106950000Y-65515000D03*
X106950000Y-69585000D03*
X105680000Y-65515000D03*
X105680000Y-69585000D03*
X104410000Y-65515000D03*
X104410000Y-69585000D03*
D18*
X97350000Y-74700000D03*
X97350000Y-81400000D03*
D19*
X103100000Y-77050000D03*
X103100000Y-79050000D03*
D20*
X117300000Y-70850000D03*
X117300000Y-65770000D03*
X117300000Y-60690000D03*
X117300000Y-55610000D03*
X117300000Y-50530000D03*
X114000000Y-68310000D03*
X114000000Y-63230000D03*
X114000000Y-58150000D03*
X114000000Y-53070000D03*
X114000000Y-47990000D03*
D21*
X109850000Y-46650000D03*
X104050000Y-47350000D03*
X104050000Y-46650000D03*
X104050000Y-48050000D03*
X104050000Y-48750000D03*
X104050000Y-49450000D03*
X104050000Y-50150000D03*
X104050000Y-50850000D03*
X104050000Y-51550000D03*
X104050000Y-52250000D03*
X104050000Y-52950000D03*
X109850000Y-52950000D03*
X109850000Y-52250000D03*
X109850000Y-51550000D03*
X109850000Y-50850000D03*
X109850000Y-50150000D03*
X109850000Y-49450000D03*
X109850000Y-48750000D03*
X109850000Y-48050000D03*
X109850000Y-47350000D03*
D20*
X99900000Y-70850000D03*
X99900000Y-65770000D03*
X99900000Y-60690000D03*
X99900000Y-55610000D03*
X99900000Y-50530000D03*
X96600000Y-68310000D03*
X96600000Y-63230000D03*
X96600000Y-58150000D03*
X96600000Y-53070000D03*
X96600000Y-47990000D03*
D14*
G36*
X106422691Y-60664385D02*
G01*
X106443926Y-60667535D01*
X106464750Y-60672751D01*
X106484962Y-60679983D01*
X106504368Y-60689162D01*
X106522781Y-60700198D01*
X106540024Y-60712986D01*
X106555930Y-60727402D01*
X106570346Y-60743308D01*
X106583134Y-60760551D01*
X106594170Y-60778964D01*
X106603349Y-60798370D01*
X106610581Y-60818582D01*
X106615797Y-60839406D01*
X106618947Y-60860641D01*
X106620000Y-60882082D01*
X106620000Y-61394582D01*
X106618947Y-61416023D01*
X106615797Y-61437258D01*
X106610581Y-61458082D01*
X106603349Y-61478294D01*
X106594170Y-61497700D01*
X106583134Y-61516113D01*
X106570346Y-61533356D01*
X106555930Y-61549262D01*
X106540024Y-61563678D01*
X106522781Y-61576466D01*
X106504368Y-61587502D01*
X106484962Y-61596681D01*
X106464750Y-61603913D01*
X106443926Y-61609129D01*
X106422691Y-61612279D01*
X106401250Y-61613332D01*
X105963750Y-61613332D01*
X105942309Y-61612279D01*
X105921074Y-61609129D01*
X105900250Y-61603913D01*
X105880038Y-61596681D01*
X105860632Y-61587502D01*
X105842219Y-61576466D01*
X105824976Y-61563678D01*
X105809070Y-61549262D01*
X105794654Y-61533356D01*
X105781866Y-61516113D01*
X105770830Y-61497700D01*
X105761651Y-61478294D01*
X105754419Y-61458082D01*
X105749203Y-61437258D01*
X105746053Y-61416023D01*
X105745000Y-61394582D01*
X105745000Y-60882082D01*
X105746053Y-60860641D01*
X105749203Y-60839406D01*
X105754419Y-60818582D01*
X105761651Y-60798370D01*
X105770830Y-60778964D01*
X105781866Y-60760551D01*
X105794654Y-60743308D01*
X105809070Y-60727402D01*
X105824976Y-60712986D01*
X105842219Y-60700198D01*
X105860632Y-60689162D01*
X105880038Y-60679983D01*
X105900250Y-60672751D01*
X105921074Y-60667535D01*
X105942309Y-60664385D01*
X105963750Y-60663332D01*
X106401250Y-60663332D01*
X106422691Y-60664385D01*
G37*
G36*
X107997691Y-60664385D02*
G01*
X108018926Y-60667535D01*
X108039750Y-60672751D01*
X108059962Y-60679983D01*
X108079368Y-60689162D01*
X108097781Y-60700198D01*
X108115024Y-60712986D01*
X108130930Y-60727402D01*
X108145346Y-60743308D01*
X108158134Y-60760551D01*
X108169170Y-60778964D01*
X108178349Y-60798370D01*
X108185581Y-60818582D01*
X108190797Y-60839406D01*
X108193947Y-60860641D01*
X108195000Y-60882082D01*
X108195000Y-61394582D01*
X108193947Y-61416023D01*
X108190797Y-61437258D01*
X108185581Y-61458082D01*
X108178349Y-61478294D01*
X108169170Y-61497700D01*
X108158134Y-61516113D01*
X108145346Y-61533356D01*
X108130930Y-61549262D01*
X108115024Y-61563678D01*
X108097781Y-61576466D01*
X108079368Y-61587502D01*
X108059962Y-61596681D01*
X108039750Y-61603913D01*
X108018926Y-61609129D01*
X107997691Y-61612279D01*
X107976250Y-61613332D01*
X107538750Y-61613332D01*
X107517309Y-61612279D01*
X107496074Y-61609129D01*
X107475250Y-61603913D01*
X107455038Y-61596681D01*
X107435632Y-61587502D01*
X107417219Y-61576466D01*
X107399976Y-61563678D01*
X107384070Y-61549262D01*
X107369654Y-61533356D01*
X107356866Y-61516113D01*
X107345830Y-61497700D01*
X107336651Y-61478294D01*
X107329419Y-61458082D01*
X107324203Y-61437258D01*
X107321053Y-61416023D01*
X107320000Y-61394582D01*
X107320000Y-60882082D01*
X107321053Y-60860641D01*
X107324203Y-60839406D01*
X107329419Y-60818582D01*
X107336651Y-60798370D01*
X107345830Y-60778964D01*
X107356866Y-60760551D01*
X107369654Y-60743308D01*
X107384070Y-60727402D01*
X107399976Y-60712986D01*
X107417219Y-60700198D01*
X107435632Y-60689162D01*
X107455038Y-60679983D01*
X107475250Y-60672751D01*
X107496074Y-60667535D01*
X107517309Y-60664385D01*
X107538750Y-60663332D01*
X107976250Y-60663332D01*
X107997691Y-60664385D01*
G37*
M02*
