M48
; DRILL file {KiCad (5.1.5-0-10_14)} date 2020 September 25, Friday 15:56:17
; FORMAT={-:-/ absolute / metric / decimal}
; #@! TF.CreationDate,2020-09-25T15:56:17+02:00
; #@! TF.GenerationSoftware,Kicad,Pcbnew,(5.1.5-0-10_14)
; #@! TF.FileFunction,Plated,1,2,PTH
FMAT,2
METRIC
T1C0.200
T2C0.600
T3C2.500
%
G90
G05
T1
X96.2Y-83.1
X96.25Y-46.7
X96.58Y-65.87
X96.7Y-72.8
X96.95Y-60.7
X97.0Y-55.6
X97.35Y-76.8
X97.35Y-79.2
X97.4Y-51.25
X98.0Y-66.15
X98.0Y-69.85
X99.12Y-52.3
X99.55Y-46.7
X99.95Y-51.9
X100.8Y-79.1
X101.05Y-51.9
X101.55Y-86.95
X101.65Y-50.1
X101.67Y-82.9
X101.9Y-47.15
X102.2Y-73.25
X102.2Y-75.15
X102.35Y-48.05
X102.8Y-46.7
X103.5Y-65.55
X104.28Y-82.99
X104.3Y-75.15
X104.4Y-67.55
X104.9Y-54.9
X104.95Y-61.55
X104.95Y-63.25
X105.53Y-79.31
X106.06Y-71.88
X106.4Y-67.55
X106.76Y-59.36
X106.95Y-57.25
X107.0Y-84.6
X107.4Y-86.85
X108.05Y-78.3
X108.07Y-71.88
X108.29Y-62.34
X108.8Y-79.05
X108.85Y-67.55
X109.32Y-60.6
X110.16Y-74.39
X110.45Y-78.05
X110.5Y-81.6
X110.9Y-50.85
X112.2Y-46.6
X112.3Y-72.1
X112.4Y-66.4
X112.8Y-69.75
X113.5Y-78.05
X113.55Y-76.45
X113.55Y-79.75
X113.55Y-86.75
X113.62Y-61.68
X113.7Y-51.15
X114.0Y-54.1
X114.415Y-65.77
X114.9Y-46.6
X115.35Y-65.77
X115.6Y-51.65
X115.75Y-55.61
X115.79Y-59.78
X117.05Y-75.25
X117.05Y-78.05
X117.15Y-62.4
X117.15Y-64.05
X117.15Y-80.9
X117.2Y-67.6
X117.2Y-69.35
X117.26Y-53.29
X117.4Y-46.9
X117.75Y-49.1
X117.93Y-51.51
T3
X97.2Y-43.95
X97.2Y-85.925
X116.7Y-43.95
X116.7Y-85.925
T2
G00X113.271Y-73.73
M15
G01X112.271Y-73.73
M16
G05
G00X113.271Y-82.37
M15
G01X112.271Y-82.37
M16
G05
G00X117.246Y-73.73
M15
G01X115.946Y-73.73
M16
G05
G00X117.246Y-82.37
M15
G01X115.946Y-82.37
M16
G05
T0
M30
