G04 #@! TF.GenerationSoftware,KiCad,Pcbnew,(5.1.5-0-10_14)*
G04 #@! TF.CreationDate,2020-09-25T15:56:19+02:00*
G04 #@! TF.ProjectId,s1-popout-board,73312d70-6f70-46f7-9574-2d626f617264,2*
G04 #@! TF.SameCoordinates,Original*
G04 #@! TF.FileFunction,Legend,Top*
G04 #@! TF.FilePolarity,Positive*
%FSLAX46Y46*%
G04 Gerber Fmt 4.6, Leading zero omitted, Abs format (unit mm)*
G04 Created by KiCad (PCBNEW (5.1.5-0-10_14)) date 2020-09-25 15:56:19*
%MOMM*%
%LPD*%
G04 APERTURE LIST*
%ADD10C,0.120000*%
%ADD11C,0.150000*%
%ADD12C,0.127000*%
%ADD13C,0.300000*%
%ADD14C,0.050000*%
G04 APERTURE END LIST*
D10*
X102676133Y-43173867D02*
G75*
G02X102676133Y-43726133I-276133J-276133D01*
G01*
X102849999Y-43000001D02*
G75*
G02X102849999Y-43899999I-449999J-449999D01*
G01*
X102123867Y-43726133D02*
G75*
G02X102123867Y-43173867I276133J276133D01*
G01*
X102511803Y-43450000D02*
G75*
G03X102511803Y-43450000I-111803J0D01*
G01*
X102400000Y-44050000D02*
X102400000Y-45000000D01*
X101950001Y-43899999D02*
G75*
G02X101950001Y-43000001I449999J449999D01*
G01*
X102400000Y-44100000D02*
X102400000Y-43450000D01*
D11*
X104292857Y-74485714D02*
X105207142Y-74485714D01*
X104750000Y-74942857D02*
X104750000Y-74028571D01*
X104172142Y-54759285D02*
X104172142Y-54009285D01*
X104172142Y-54295000D02*
X104243571Y-54259285D01*
X104386428Y-54259285D01*
X104457857Y-54295000D01*
X104493571Y-54330714D01*
X104529285Y-54402142D01*
X104529285Y-54616428D01*
X104493571Y-54687857D01*
X104457857Y-54723571D01*
X104386428Y-54759285D01*
X104243571Y-54759285D01*
X104172142Y-54723571D01*
X105172142Y-54259285D02*
X105172142Y-54759285D01*
X104850714Y-54259285D02*
X104850714Y-54652142D01*
X104886428Y-54723571D01*
X104957857Y-54759285D01*
X105065000Y-54759285D01*
X105136428Y-54723571D01*
X105172142Y-54687857D01*
X105422142Y-54259285D02*
X105707857Y-54259285D01*
X105529285Y-54009285D02*
X105529285Y-54652142D01*
X105565000Y-54723571D01*
X105636428Y-54759285D01*
X105707857Y-54759285D01*
X105850714Y-54259285D02*
X106136428Y-54259285D01*
X105957857Y-54009285D02*
X105957857Y-54652142D01*
X105993571Y-54723571D01*
X106065000Y-54759285D01*
X106136428Y-54759285D01*
X106493571Y-54759285D02*
X106422142Y-54723571D01*
X106386428Y-54687857D01*
X106350714Y-54616428D01*
X106350714Y-54402142D01*
X106386428Y-54330714D01*
X106422142Y-54295000D01*
X106493571Y-54259285D01*
X106600714Y-54259285D01*
X106672142Y-54295000D01*
X106707857Y-54330714D01*
X106743571Y-54402142D01*
X106743571Y-54616428D01*
X106707857Y-54687857D01*
X106672142Y-54723571D01*
X106600714Y-54759285D01*
X106493571Y-54759285D01*
X107065000Y-54259285D02*
X107065000Y-54759285D01*
X107065000Y-54330714D02*
X107100714Y-54295000D01*
X107172142Y-54259285D01*
X107279285Y-54259285D01*
X107350714Y-54295000D01*
X107386428Y-54366428D01*
X107386428Y-54759285D01*
X107743571Y-54473571D02*
X108315000Y-54473571D01*
X108993571Y-54759285D02*
X108993571Y-54009285D01*
X108993571Y-54723571D02*
X108922142Y-54759285D01*
X108779285Y-54759285D01*
X108707857Y-54723571D01*
X108672142Y-54687857D01*
X108636428Y-54616428D01*
X108636428Y-54402142D01*
X108672142Y-54330714D01*
X108707857Y-54295000D01*
X108779285Y-54259285D01*
X108922142Y-54259285D01*
X108993571Y-54295000D01*
X109672142Y-54259285D02*
X109672142Y-54759285D01*
X109493571Y-53973571D02*
X109315000Y-54509285D01*
X109779285Y-54509285D01*
X105267857Y-59889285D02*
X105196428Y-59853571D01*
X105160714Y-59782142D01*
X105160714Y-59139285D01*
X105839285Y-59853571D02*
X105767857Y-59889285D01*
X105625000Y-59889285D01*
X105553571Y-59853571D01*
X105517857Y-59782142D01*
X105517857Y-59496428D01*
X105553571Y-59425000D01*
X105625000Y-59389285D01*
X105767857Y-59389285D01*
X105839285Y-59425000D01*
X105875000Y-59496428D01*
X105875000Y-59567857D01*
X105517857Y-59639285D01*
X106517857Y-59889285D02*
X106517857Y-59139285D01*
X106517857Y-59853571D02*
X106446428Y-59889285D01*
X106303571Y-59889285D01*
X106232142Y-59853571D01*
X106196428Y-59817857D01*
X106160714Y-59746428D01*
X106160714Y-59532142D01*
X106196428Y-59460714D01*
X106232142Y-59425000D01*
X106303571Y-59389285D01*
X106446428Y-59389285D01*
X106517857Y-59425000D01*
X106875000Y-59603571D02*
X107446428Y-59603571D01*
X108125000Y-59889285D02*
X108125000Y-59139285D01*
X108125000Y-59853571D02*
X108053571Y-59889285D01*
X107910714Y-59889285D01*
X107839285Y-59853571D01*
X107803571Y-59817857D01*
X107767857Y-59746428D01*
X107767857Y-59532142D01*
X107803571Y-59460714D01*
X107839285Y-59425000D01*
X107910714Y-59389285D01*
X108053571Y-59389285D01*
X108125000Y-59425000D01*
X108410714Y-59139285D02*
X108875000Y-59139285D01*
X108625000Y-59425000D01*
X108732142Y-59425000D01*
X108803571Y-59460714D01*
X108839285Y-59496428D01*
X108875000Y-59567857D01*
X108875000Y-59746428D01*
X108839285Y-59817857D01*
X108803571Y-59853571D01*
X108732142Y-59889285D01*
X108517857Y-59889285D01*
X108446428Y-59853571D01*
X108410714Y-59817857D01*
X105771428Y-72589285D02*
X105771428Y-71839285D01*
X105771428Y-72553571D02*
X105700000Y-72589285D01*
X105557142Y-72589285D01*
X105485714Y-72553571D01*
X105450000Y-72517857D01*
X105414285Y-72446428D01*
X105414285Y-72232142D01*
X105450000Y-72160714D01*
X105485714Y-72125000D01*
X105557142Y-72089285D01*
X105700000Y-72089285D01*
X105771428Y-72125000D01*
X106414285Y-72553571D02*
X106342857Y-72589285D01*
X106200000Y-72589285D01*
X106128571Y-72553571D01*
X106092857Y-72482142D01*
X106092857Y-72196428D01*
X106128571Y-72125000D01*
X106200000Y-72089285D01*
X106342857Y-72089285D01*
X106414285Y-72125000D01*
X106450000Y-72196428D01*
X106450000Y-72267857D01*
X106092857Y-72339285D01*
X106771428Y-72589285D02*
X106771428Y-71839285D01*
X106771428Y-72125000D02*
X106842857Y-72089285D01*
X106985714Y-72089285D01*
X107057142Y-72125000D01*
X107092857Y-72160714D01*
X107128571Y-72232142D01*
X107128571Y-72446428D01*
X107092857Y-72517857D01*
X107057142Y-72553571D01*
X106985714Y-72589285D01*
X106842857Y-72589285D01*
X106771428Y-72553571D01*
X107771428Y-72089285D02*
X107771428Y-72589285D01*
X107450000Y-72089285D02*
X107450000Y-72482142D01*
X107485714Y-72553571D01*
X107557142Y-72589285D01*
X107664285Y-72589285D01*
X107735714Y-72553571D01*
X107771428Y-72517857D01*
X108450000Y-72089285D02*
X108450000Y-72696428D01*
X108414285Y-72767857D01*
X108378571Y-72803571D01*
X108307142Y-72839285D01*
X108200000Y-72839285D01*
X108128571Y-72803571D01*
X108450000Y-72553571D02*
X108378571Y-72589285D01*
X108235714Y-72589285D01*
X108164285Y-72553571D01*
X108128571Y-72517857D01*
X108092857Y-72446428D01*
X108092857Y-72232142D01*
X108128571Y-72160714D01*
X108164285Y-72125000D01*
X108235714Y-72089285D01*
X108378571Y-72089285D01*
X108450000Y-72125000D01*
X110350714Y-77837857D02*
X109850714Y-77837857D01*
X110350714Y-77516428D02*
X109957857Y-77516428D01*
X109886428Y-77552142D01*
X109850714Y-77623571D01*
X109850714Y-77730714D01*
X109886428Y-77802142D01*
X109922142Y-77837857D01*
X109886428Y-78159285D02*
X109850714Y-78230714D01*
X109850714Y-78373571D01*
X109886428Y-78445000D01*
X109957857Y-78480714D01*
X109993571Y-78480714D01*
X110065000Y-78445000D01*
X110100714Y-78373571D01*
X110100714Y-78266428D01*
X110136428Y-78195000D01*
X110207857Y-78159285D01*
X110243571Y-78159285D01*
X110315000Y-78195000D01*
X110350714Y-78266428D01*
X110350714Y-78373571D01*
X110315000Y-78445000D01*
X109850714Y-78802142D02*
X110600714Y-78802142D01*
X110315000Y-78802142D02*
X110350714Y-78873571D01*
X110350714Y-79016428D01*
X110315000Y-79087857D01*
X110279285Y-79123571D01*
X110207857Y-79159285D01*
X109993571Y-79159285D01*
X109922142Y-79123571D01*
X109886428Y-79087857D01*
X109850714Y-79016428D01*
X109850714Y-78873571D01*
X109886428Y-78802142D01*
X106767857Y-81389285D02*
X106767857Y-80639285D01*
X107089285Y-80710714D02*
X107125000Y-80675000D01*
X107196428Y-80639285D01*
X107375000Y-80639285D01*
X107446428Y-80675000D01*
X107482142Y-80710714D01*
X107517857Y-80782142D01*
X107517857Y-80853571D01*
X107482142Y-80960714D01*
X107053571Y-81389285D01*
X107517857Y-81389285D01*
X108267857Y-81317857D02*
X108232142Y-81353571D01*
X108125000Y-81389285D01*
X108053571Y-81389285D01*
X107946428Y-81353571D01*
X107875000Y-81282142D01*
X107839285Y-81210714D01*
X107803571Y-81067857D01*
X107803571Y-80960714D01*
X107839285Y-80817857D01*
X107875000Y-80746428D01*
X107946428Y-80675000D01*
X108053571Y-80639285D01*
X108125000Y-80639285D01*
X108232142Y-80675000D01*
X108267857Y-80710714D01*
X106339285Y-79817857D02*
X105589285Y-79817857D01*
X105875000Y-79817857D02*
X105839285Y-79746428D01*
X105839285Y-79603571D01*
X105875000Y-79532142D01*
X105910714Y-79496428D01*
X105982142Y-79460714D01*
X106196428Y-79460714D01*
X106267857Y-79496428D01*
X106303571Y-79532142D01*
X106339285Y-79603571D01*
X106339285Y-79746428D01*
X106303571Y-79817857D01*
X106339285Y-78817857D02*
X105946428Y-78817857D01*
X105875000Y-78853571D01*
X105839285Y-78925000D01*
X105839285Y-79067857D01*
X105875000Y-79139285D01*
X106303571Y-78817857D02*
X106339285Y-78889285D01*
X106339285Y-79067857D01*
X106303571Y-79139285D01*
X106232142Y-79175000D01*
X106160714Y-79175000D01*
X106089285Y-79139285D01*
X106053571Y-79067857D01*
X106053571Y-78889285D01*
X106017857Y-78817857D01*
X105839285Y-78567857D02*
X105839285Y-78282142D01*
X105589285Y-78460714D02*
X106232142Y-78460714D01*
X106303571Y-78425000D01*
X106339285Y-78353571D01*
X106339285Y-78282142D01*
X105839285Y-78139285D02*
X105839285Y-77853571D01*
X105589285Y-78032142D02*
X106232142Y-78032142D01*
X106303571Y-77996428D01*
X106339285Y-77925000D01*
X106339285Y-77853571D01*
X106303571Y-77317857D02*
X106339285Y-77389285D01*
X106339285Y-77532142D01*
X106303571Y-77603571D01*
X106232142Y-77639285D01*
X105946428Y-77639285D01*
X105875000Y-77603571D01*
X105839285Y-77532142D01*
X105839285Y-77389285D01*
X105875000Y-77317857D01*
X105946428Y-77282142D01*
X106017857Y-77282142D01*
X106089285Y-77639285D01*
X106339285Y-76960714D02*
X105839285Y-76960714D01*
X105982142Y-76960714D02*
X105910714Y-76925000D01*
X105875000Y-76889285D01*
X105839285Y-76817857D01*
X105839285Y-76746428D01*
X105839285Y-76567857D02*
X106339285Y-76389285D01*
X105839285Y-76210714D02*
X106339285Y-76389285D01*
X106517857Y-76460714D01*
X106553571Y-76496428D01*
X106589285Y-76567857D01*
X100289285Y-48517857D02*
X100896428Y-48517857D01*
X100967857Y-48553571D01*
X101003571Y-48589285D01*
X101039285Y-48660714D01*
X101039285Y-48767857D01*
X101003571Y-48839285D01*
X100753571Y-48517857D02*
X100789285Y-48589285D01*
X100789285Y-48732142D01*
X100753571Y-48803571D01*
X100717857Y-48839285D01*
X100646428Y-48875000D01*
X100432142Y-48875000D01*
X100360714Y-48839285D01*
X100325000Y-48803571D01*
X100289285Y-48732142D01*
X100289285Y-48589285D01*
X100325000Y-48517857D01*
X100289285Y-48160714D02*
X100789285Y-48160714D01*
X100360714Y-48160714D02*
X100325000Y-48125000D01*
X100289285Y-48053571D01*
X100289285Y-47946428D01*
X100325000Y-47875000D01*
X100396428Y-47839285D01*
X100789285Y-47839285D01*
X100789285Y-47160714D02*
X100039285Y-47160714D01*
X100753571Y-47160714D02*
X100789285Y-47232142D01*
X100789285Y-47375000D01*
X100753571Y-47446428D01*
X100717857Y-47482142D01*
X100646428Y-47517857D01*
X100432142Y-47517857D01*
X100360714Y-47482142D01*
X100325000Y-47446428D01*
X100289285Y-47375000D01*
X100289285Y-47232142D01*
X100325000Y-47160714D01*
X96260714Y-49192857D02*
X95760714Y-49192857D01*
X96260714Y-48871428D02*
X95867857Y-48871428D01*
X95796428Y-48907142D01*
X95760714Y-48978571D01*
X95760714Y-49085714D01*
X95796428Y-49157142D01*
X95832142Y-49192857D01*
X95796428Y-49514285D02*
X95760714Y-49585714D01*
X95760714Y-49728571D01*
X95796428Y-49800000D01*
X95867857Y-49835714D01*
X95903571Y-49835714D01*
X95975000Y-49800000D01*
X96010714Y-49728571D01*
X96010714Y-49621428D01*
X96046428Y-49550000D01*
X96117857Y-49514285D01*
X96153571Y-49514285D01*
X96225000Y-49550000D01*
X96260714Y-49621428D01*
X96260714Y-49728571D01*
X96225000Y-49800000D01*
X95760714Y-50157142D02*
X96510714Y-50157142D01*
X96225000Y-50157142D02*
X96260714Y-50228571D01*
X96260714Y-50371428D01*
X96225000Y-50442857D01*
X96189285Y-50478571D01*
X96117857Y-50514285D01*
X95903571Y-50514285D01*
X95832142Y-50478571D01*
X95796428Y-50442857D01*
X95760714Y-50371428D01*
X95760714Y-50228571D01*
X95796428Y-50157142D01*
X95832142Y-50835714D02*
X95796428Y-50871428D01*
X95760714Y-50835714D01*
X95796428Y-50800000D01*
X95832142Y-50835714D01*
X95760714Y-50835714D01*
X95760714Y-51514285D02*
X96510714Y-51514285D01*
X95796428Y-51514285D02*
X95760714Y-51442857D01*
X95760714Y-51300000D01*
X95796428Y-51228571D01*
X95832142Y-51192857D01*
X95903571Y-51157142D01*
X96117857Y-51157142D01*
X96189285Y-51192857D01*
X96225000Y-51228571D01*
X96260714Y-51300000D01*
X96260714Y-51442857D01*
X96225000Y-51514285D01*
X96439285Y-51835714D02*
X96475000Y-51871428D01*
X96510714Y-51942857D01*
X96510714Y-52121428D01*
X96475000Y-52192857D01*
X96439285Y-52228571D01*
X96367857Y-52264285D01*
X96296428Y-52264285D01*
X96189285Y-52228571D01*
X95760714Y-51800000D01*
X95760714Y-52264285D01*
X100789285Y-53246428D02*
X100039285Y-53246428D01*
X100753571Y-53246428D02*
X100789285Y-53317857D01*
X100789285Y-53460714D01*
X100753571Y-53532142D01*
X100717857Y-53567857D01*
X100646428Y-53603571D01*
X100432142Y-53603571D01*
X100360714Y-53567857D01*
X100325000Y-53532142D01*
X100289285Y-53460714D01*
X100289285Y-53317857D01*
X100325000Y-53246428D01*
X100039285Y-52960714D02*
X100039285Y-52496428D01*
X100325000Y-52746428D01*
X100325000Y-52639285D01*
X100360714Y-52567857D01*
X100396428Y-52532142D01*
X100467857Y-52496428D01*
X100646428Y-52496428D01*
X100717857Y-52532142D01*
X100753571Y-52567857D01*
X100789285Y-52639285D01*
X100789285Y-52853571D01*
X100753571Y-52925000D01*
X100717857Y-52960714D01*
X95760714Y-55403571D02*
X96510714Y-55403571D01*
X95796428Y-55403571D02*
X95760714Y-55332142D01*
X95760714Y-55189285D01*
X95796428Y-55117857D01*
X95832142Y-55082142D01*
X95903571Y-55046428D01*
X96117857Y-55046428D01*
X96189285Y-55082142D01*
X96225000Y-55117857D01*
X96260714Y-55189285D01*
X96260714Y-55332142D01*
X96225000Y-55403571D01*
X96260714Y-56082142D02*
X95760714Y-56082142D01*
X96546428Y-55903571D02*
X96010714Y-55725000D01*
X96010714Y-56189285D01*
X100289285Y-59507142D02*
X100789285Y-59507142D01*
X100289285Y-59828571D02*
X100682142Y-59828571D01*
X100753571Y-59792857D01*
X100789285Y-59721428D01*
X100789285Y-59614285D01*
X100753571Y-59542857D01*
X100717857Y-59507142D01*
X100753571Y-59185714D02*
X100789285Y-59114285D01*
X100789285Y-58971428D01*
X100753571Y-58900000D01*
X100682142Y-58864285D01*
X100646428Y-58864285D01*
X100575000Y-58900000D01*
X100539285Y-58971428D01*
X100539285Y-59078571D01*
X100503571Y-59150000D01*
X100432142Y-59185714D01*
X100396428Y-59185714D01*
X100325000Y-59150000D01*
X100289285Y-59078571D01*
X100289285Y-58971428D01*
X100325000Y-58900000D01*
X100789285Y-58542857D02*
X100039285Y-58542857D01*
X100325000Y-58542857D02*
X100289285Y-58471428D01*
X100289285Y-58328571D01*
X100325000Y-58257142D01*
X100360714Y-58221428D01*
X100432142Y-58185714D01*
X100646428Y-58185714D01*
X100717857Y-58221428D01*
X100753571Y-58257142D01*
X100789285Y-58328571D01*
X100789285Y-58471428D01*
X100753571Y-58542857D01*
X100717857Y-57864285D02*
X100753571Y-57828571D01*
X100789285Y-57864285D01*
X100753571Y-57900000D01*
X100717857Y-57864285D01*
X100789285Y-57864285D01*
X100789285Y-57185714D02*
X100039285Y-57185714D01*
X100753571Y-57185714D02*
X100789285Y-57257142D01*
X100789285Y-57400000D01*
X100753571Y-57471428D01*
X100717857Y-57507142D01*
X100646428Y-57542857D01*
X100432142Y-57542857D01*
X100360714Y-57507142D01*
X100325000Y-57471428D01*
X100289285Y-57400000D01*
X100289285Y-57257142D01*
X100325000Y-57185714D01*
X100789285Y-56435714D02*
X100789285Y-56864285D01*
X100789285Y-56650000D02*
X100039285Y-56650000D01*
X100146428Y-56721428D01*
X100217857Y-56792857D01*
X100253571Y-56864285D01*
X95760714Y-60503571D02*
X96510714Y-60503571D01*
X95796428Y-60503571D02*
X95760714Y-60432142D01*
X95760714Y-60289285D01*
X95796428Y-60217857D01*
X95832142Y-60182142D01*
X95903571Y-60146428D01*
X96117857Y-60146428D01*
X96189285Y-60182142D01*
X96225000Y-60217857D01*
X96260714Y-60289285D01*
X96260714Y-60432142D01*
X96225000Y-60503571D01*
X96510714Y-60789285D02*
X96510714Y-61289285D01*
X95760714Y-60967857D01*
X100789285Y-63446428D02*
X100039285Y-63446428D01*
X100753571Y-63446428D02*
X100789285Y-63517857D01*
X100789285Y-63660714D01*
X100753571Y-63732142D01*
X100717857Y-63767857D01*
X100646428Y-63803571D01*
X100432142Y-63803571D01*
X100360714Y-63767857D01*
X100325000Y-63732142D01*
X100289285Y-63660714D01*
X100289285Y-63517857D01*
X100325000Y-63446428D01*
X100360714Y-62982142D02*
X100325000Y-63053571D01*
X100289285Y-63089285D01*
X100217857Y-63125000D01*
X100182142Y-63125000D01*
X100110714Y-63089285D01*
X100075000Y-63053571D01*
X100039285Y-62982142D01*
X100039285Y-62839285D01*
X100075000Y-62767857D01*
X100110714Y-62732142D01*
X100182142Y-62696428D01*
X100217857Y-62696428D01*
X100289285Y-62732142D01*
X100325000Y-62767857D01*
X100360714Y-62839285D01*
X100360714Y-62982142D01*
X100396428Y-63053571D01*
X100432142Y-63089285D01*
X100503571Y-63125000D01*
X100646428Y-63125000D01*
X100717857Y-63089285D01*
X100753571Y-63053571D01*
X100789285Y-62982142D01*
X100789285Y-62839285D01*
X100753571Y-62767857D01*
X100717857Y-62732142D01*
X100646428Y-62696428D01*
X100503571Y-62696428D01*
X100432142Y-62732142D01*
X100396428Y-62767857D01*
X100360714Y-62839285D01*
X95796428Y-64196428D02*
X95760714Y-64267857D01*
X95760714Y-64410714D01*
X95796428Y-64482142D01*
X95867857Y-64517857D01*
X95903571Y-64517857D01*
X95975000Y-64482142D01*
X96010714Y-64410714D01*
X96010714Y-64303571D01*
X96046428Y-64232142D01*
X96117857Y-64196428D01*
X96153571Y-64196428D01*
X96225000Y-64232142D01*
X96260714Y-64303571D01*
X96260714Y-64410714D01*
X96225000Y-64482142D01*
X95796428Y-65160714D02*
X95760714Y-65089285D01*
X95760714Y-64946428D01*
X95796428Y-64875000D01*
X95832142Y-64839285D01*
X95903571Y-64803571D01*
X96117857Y-64803571D01*
X96189285Y-64839285D01*
X96225000Y-64875000D01*
X96260714Y-64946428D01*
X96260714Y-65089285D01*
X96225000Y-65160714D01*
X95760714Y-65589285D02*
X95796428Y-65517857D01*
X95867857Y-65482142D01*
X96510714Y-65482142D01*
X95832142Y-65875000D02*
X95796428Y-65910714D01*
X95760714Y-65875000D01*
X95796428Y-65839285D01*
X95832142Y-65875000D01*
X95760714Y-65875000D01*
X95760714Y-66553571D02*
X96510714Y-66553571D01*
X95796428Y-66553571D02*
X95760714Y-66482142D01*
X95760714Y-66339285D01*
X95796428Y-66267857D01*
X95832142Y-66232142D01*
X95903571Y-66196428D01*
X96117857Y-66196428D01*
X96189285Y-66232142D01*
X96225000Y-66267857D01*
X96260714Y-66339285D01*
X96260714Y-66482142D01*
X96225000Y-66553571D01*
X96510714Y-67232142D02*
X96510714Y-67089285D01*
X96475000Y-67017857D01*
X96439285Y-66982142D01*
X96332142Y-66910714D01*
X96189285Y-66875000D01*
X95903571Y-66875000D01*
X95832142Y-66910714D01*
X95796428Y-66946428D01*
X95760714Y-67017857D01*
X95760714Y-67160714D01*
X95796428Y-67232142D01*
X95832142Y-67267857D01*
X95903571Y-67303571D01*
X96082142Y-67303571D01*
X96153571Y-67267857D01*
X96189285Y-67232142D01*
X96225000Y-67160714D01*
X96225000Y-67017857D01*
X96189285Y-66946428D01*
X96153571Y-66910714D01*
X96082142Y-66875000D01*
X100753571Y-70014285D02*
X100789285Y-69942857D01*
X100789285Y-69800000D01*
X100753571Y-69728571D01*
X100682142Y-69692857D01*
X100646428Y-69692857D01*
X100575000Y-69728571D01*
X100539285Y-69800000D01*
X100539285Y-69907142D01*
X100503571Y-69978571D01*
X100432142Y-70014285D01*
X100396428Y-70014285D01*
X100325000Y-69978571D01*
X100289285Y-69907142D01*
X100289285Y-69800000D01*
X100325000Y-69728571D01*
X100789285Y-69050000D02*
X100039285Y-69050000D01*
X100753571Y-69050000D02*
X100789285Y-69121428D01*
X100789285Y-69264285D01*
X100753571Y-69335714D01*
X100717857Y-69371428D01*
X100646428Y-69407142D01*
X100432142Y-69407142D01*
X100360714Y-69371428D01*
X100325000Y-69335714D01*
X100289285Y-69264285D01*
X100289285Y-69121428D01*
X100325000Y-69050000D01*
X100789285Y-68371428D02*
X100396428Y-68371428D01*
X100325000Y-68407142D01*
X100289285Y-68478571D01*
X100289285Y-68621428D01*
X100325000Y-68692857D01*
X100753571Y-68371428D02*
X100789285Y-68442857D01*
X100789285Y-68621428D01*
X100753571Y-68692857D01*
X100682142Y-68728571D01*
X100610714Y-68728571D01*
X100539285Y-68692857D01*
X100503571Y-68621428D01*
X100503571Y-68442857D01*
X100467857Y-68371428D01*
X100717857Y-68014285D02*
X100753571Y-67978571D01*
X100789285Y-68014285D01*
X100753571Y-68050000D01*
X100717857Y-68014285D01*
X100789285Y-68014285D01*
X100789285Y-67335714D02*
X100039285Y-67335714D01*
X100753571Y-67335714D02*
X100789285Y-67407142D01*
X100789285Y-67550000D01*
X100753571Y-67621428D01*
X100717857Y-67657142D01*
X100646428Y-67692857D01*
X100432142Y-67692857D01*
X100360714Y-67657142D01*
X100325000Y-67621428D01*
X100289285Y-67550000D01*
X100289285Y-67407142D01*
X100325000Y-67335714D01*
X100039285Y-66621428D02*
X100039285Y-66978571D01*
X100396428Y-67014285D01*
X100360714Y-66978571D01*
X100325000Y-66907142D01*
X100325000Y-66728571D01*
X100360714Y-66657142D01*
X100396428Y-66621428D01*
X100467857Y-66585714D01*
X100646428Y-66585714D01*
X100717857Y-66621428D01*
X100753571Y-66657142D01*
X100789285Y-66728571D01*
X100789285Y-66907142D01*
X100753571Y-66978571D01*
X100717857Y-67014285D01*
X96510714Y-69617857D02*
X95760714Y-69867857D01*
X96510714Y-70117857D01*
X96260714Y-70689285D02*
X95760714Y-70689285D01*
X96260714Y-70367857D02*
X95867857Y-70367857D01*
X95796428Y-70403571D01*
X95760714Y-70475000D01*
X95760714Y-70582142D01*
X95796428Y-70653571D01*
X95832142Y-70689285D01*
X95796428Y-71010714D02*
X95760714Y-71082142D01*
X95760714Y-71225000D01*
X95796428Y-71296428D01*
X95867857Y-71332142D01*
X95903571Y-71332142D01*
X95975000Y-71296428D01*
X96010714Y-71225000D01*
X96010714Y-71117857D01*
X96046428Y-71046428D01*
X96117857Y-71010714D01*
X96153571Y-71010714D01*
X96225000Y-71046428D01*
X96260714Y-71117857D01*
X96260714Y-71225000D01*
X96225000Y-71296428D01*
X95760714Y-71653571D02*
X96510714Y-71653571D01*
X96225000Y-71653571D02*
X96260714Y-71725000D01*
X96260714Y-71867857D01*
X96225000Y-71939285D01*
X96189285Y-71975000D01*
X96117857Y-72010714D01*
X95903571Y-72010714D01*
X95832142Y-71975000D01*
X95796428Y-71939285D01*
X95760714Y-71867857D01*
X95760714Y-71725000D01*
X95796428Y-71653571D01*
X113860714Y-69492857D02*
X113110714Y-69742857D01*
X113860714Y-69992857D01*
X113110714Y-70242857D02*
X113860714Y-70242857D01*
X113575000Y-70242857D02*
X113610714Y-70314285D01*
X113610714Y-70457142D01*
X113575000Y-70528571D01*
X113539285Y-70564285D01*
X113467857Y-70600000D01*
X113253571Y-70600000D01*
X113182142Y-70564285D01*
X113146428Y-70528571D01*
X113110714Y-70457142D01*
X113110714Y-70314285D01*
X113146428Y-70242857D01*
X113110714Y-71242857D02*
X113503571Y-71242857D01*
X113575000Y-71207142D01*
X113610714Y-71135714D01*
X113610714Y-70992857D01*
X113575000Y-70921428D01*
X113146428Y-71242857D02*
X113110714Y-71171428D01*
X113110714Y-70992857D01*
X113146428Y-70921428D01*
X113217857Y-70885714D01*
X113289285Y-70885714D01*
X113360714Y-70921428D01*
X113396428Y-70992857D01*
X113396428Y-71171428D01*
X113432142Y-71242857D01*
X113610714Y-71492857D02*
X113610714Y-71778571D01*
X113860714Y-71600000D02*
X113217857Y-71600000D01*
X113146428Y-71635714D01*
X113110714Y-71707142D01*
X113110714Y-71778571D01*
X113610714Y-71921428D02*
X113610714Y-72207142D01*
X113860714Y-72028571D02*
X113217857Y-72028571D01*
X113146428Y-72064285D01*
X113110714Y-72135714D01*
X113110714Y-72207142D01*
X117439285Y-69532142D02*
X118189285Y-69282142D01*
X117439285Y-69032142D01*
X118189285Y-68460714D02*
X117796428Y-68460714D01*
X117725000Y-68496428D01*
X117689285Y-68567857D01*
X117689285Y-68710714D01*
X117725000Y-68782142D01*
X118153571Y-68460714D02*
X118189285Y-68532142D01*
X118189285Y-68710714D01*
X118153571Y-68782142D01*
X118082142Y-68817857D01*
X118010714Y-68817857D01*
X117939285Y-68782142D01*
X117903571Y-68710714D01*
X117903571Y-68532142D01*
X117867857Y-68460714D01*
X117689285Y-67782142D02*
X118189285Y-67782142D01*
X117689285Y-68103571D02*
X118082142Y-68103571D01*
X118153571Y-68067857D01*
X118189285Y-67996428D01*
X118189285Y-67889285D01*
X118153571Y-67817857D01*
X118117857Y-67782142D01*
X118189285Y-67496428D02*
X117689285Y-67103571D01*
X117689285Y-67496428D02*
X118189285Y-67103571D01*
X113860714Y-65032142D02*
X113110714Y-65282142D01*
X113860714Y-65532142D01*
X113110714Y-65782142D02*
X113610714Y-65782142D01*
X113860714Y-65782142D02*
X113825000Y-65746428D01*
X113789285Y-65782142D01*
X113825000Y-65817857D01*
X113860714Y-65782142D01*
X113789285Y-65782142D01*
X113110714Y-66246428D02*
X113146428Y-66175000D01*
X113182142Y-66139285D01*
X113253571Y-66103571D01*
X113467857Y-66103571D01*
X113539285Y-66139285D01*
X113575000Y-66175000D01*
X113610714Y-66246428D01*
X113610714Y-66353571D01*
X113575000Y-66425000D01*
X113539285Y-66460714D01*
X113467857Y-66496428D01*
X113253571Y-66496428D01*
X113182142Y-66460714D01*
X113146428Y-66425000D01*
X113110714Y-66353571D01*
X113110714Y-66246428D01*
X117689285Y-63767857D02*
X118296428Y-63767857D01*
X118367857Y-63803571D01*
X118403571Y-63839285D01*
X118439285Y-63910714D01*
X118439285Y-64017857D01*
X118403571Y-64089285D01*
X118153571Y-63767857D02*
X118189285Y-63839285D01*
X118189285Y-63982142D01*
X118153571Y-64053571D01*
X118117857Y-64089285D01*
X118046428Y-64125000D01*
X117832142Y-64125000D01*
X117760714Y-64089285D01*
X117725000Y-64053571D01*
X117689285Y-63982142D01*
X117689285Y-63839285D01*
X117725000Y-63767857D01*
X117689285Y-63410714D02*
X118189285Y-63410714D01*
X117760714Y-63410714D02*
X117725000Y-63375000D01*
X117689285Y-63303571D01*
X117689285Y-63196428D01*
X117725000Y-63125000D01*
X117796428Y-63089285D01*
X118189285Y-63089285D01*
X118189285Y-62410714D02*
X117439285Y-62410714D01*
X118153571Y-62410714D02*
X118189285Y-62482142D01*
X118189285Y-62625000D01*
X118153571Y-62696428D01*
X118117857Y-62732142D01*
X118046428Y-62767857D01*
X117832142Y-62767857D01*
X117760714Y-62732142D01*
X117725000Y-62696428D01*
X117689285Y-62625000D01*
X117689285Y-62482142D01*
X117725000Y-62410714D01*
X113110714Y-59842857D02*
X113503571Y-59842857D01*
X113575000Y-59807142D01*
X113610714Y-59735714D01*
X113610714Y-59592857D01*
X113575000Y-59521428D01*
X113146428Y-59842857D02*
X113110714Y-59771428D01*
X113110714Y-59592857D01*
X113146428Y-59521428D01*
X113217857Y-59485714D01*
X113289285Y-59485714D01*
X113360714Y-59521428D01*
X113396428Y-59592857D01*
X113396428Y-59771428D01*
X113432142Y-59842857D01*
X113110714Y-60521428D02*
X113860714Y-60521428D01*
X113146428Y-60521428D02*
X113110714Y-60450000D01*
X113110714Y-60307142D01*
X113146428Y-60235714D01*
X113182142Y-60200000D01*
X113253571Y-60164285D01*
X113467857Y-60164285D01*
X113539285Y-60200000D01*
X113575000Y-60235714D01*
X113610714Y-60307142D01*
X113610714Y-60450000D01*
X113575000Y-60521428D01*
X113146428Y-61200000D02*
X113110714Y-61128571D01*
X113110714Y-60985714D01*
X113146428Y-60914285D01*
X113182142Y-60878571D01*
X113253571Y-60842857D01*
X113467857Y-60842857D01*
X113539285Y-60878571D01*
X113575000Y-60914285D01*
X113610714Y-60985714D01*
X113610714Y-61128571D01*
X113575000Y-61200000D01*
X113789285Y-61485714D02*
X113825000Y-61521428D01*
X113860714Y-61592857D01*
X113860714Y-61771428D01*
X113825000Y-61842857D01*
X113789285Y-61878571D01*
X113717857Y-61914285D01*
X113646428Y-61914285D01*
X113539285Y-61878571D01*
X113110714Y-61450000D01*
X113110714Y-61914285D01*
X118189285Y-59007142D02*
X117796428Y-59007142D01*
X117725000Y-59042857D01*
X117689285Y-59114285D01*
X117689285Y-59257142D01*
X117725000Y-59328571D01*
X118153571Y-59007142D02*
X118189285Y-59078571D01*
X118189285Y-59257142D01*
X118153571Y-59328571D01*
X118082142Y-59364285D01*
X118010714Y-59364285D01*
X117939285Y-59328571D01*
X117903571Y-59257142D01*
X117903571Y-59078571D01*
X117867857Y-59007142D01*
X118189285Y-58328571D02*
X117439285Y-58328571D01*
X118153571Y-58328571D02*
X118189285Y-58400000D01*
X118189285Y-58542857D01*
X118153571Y-58614285D01*
X118117857Y-58650000D01*
X118046428Y-58685714D01*
X117832142Y-58685714D01*
X117760714Y-58650000D01*
X117725000Y-58614285D01*
X117689285Y-58542857D01*
X117689285Y-58400000D01*
X117725000Y-58328571D01*
X118153571Y-57650000D02*
X118189285Y-57721428D01*
X118189285Y-57864285D01*
X118153571Y-57935714D01*
X118117857Y-57971428D01*
X118046428Y-58007142D01*
X117832142Y-58007142D01*
X117760714Y-57971428D01*
X117725000Y-57935714D01*
X117689285Y-57864285D01*
X117689285Y-57721428D01*
X117725000Y-57650000D01*
X118189285Y-56935714D02*
X118189285Y-57364285D01*
X118189285Y-57150000D02*
X117439285Y-57150000D01*
X117546428Y-57221428D01*
X117617857Y-57292857D01*
X117653571Y-57364285D01*
X113860714Y-54350000D02*
X113110714Y-54600000D01*
X113860714Y-54850000D01*
X113110714Y-55421428D02*
X113503571Y-55421428D01*
X113575000Y-55385714D01*
X113610714Y-55314285D01*
X113610714Y-55171428D01*
X113575000Y-55100000D01*
X113146428Y-55421428D02*
X113110714Y-55350000D01*
X113110714Y-55171428D01*
X113146428Y-55100000D01*
X113217857Y-55064285D01*
X113289285Y-55064285D01*
X113360714Y-55100000D01*
X113396428Y-55171428D01*
X113396428Y-55350000D01*
X113432142Y-55421428D01*
X113110714Y-56100000D02*
X113860714Y-56100000D01*
X113146428Y-56100000D02*
X113110714Y-56028571D01*
X113110714Y-55885714D01*
X113146428Y-55814285D01*
X113182142Y-55778571D01*
X113253571Y-55742857D01*
X113467857Y-55742857D01*
X113539285Y-55778571D01*
X113575000Y-55814285D01*
X113610714Y-55885714D01*
X113610714Y-56028571D01*
X113575000Y-56100000D01*
X113146428Y-56778571D02*
X113110714Y-56707142D01*
X113110714Y-56564285D01*
X113146428Y-56492857D01*
X113182142Y-56457142D01*
X113253571Y-56421428D01*
X113467857Y-56421428D01*
X113539285Y-56457142D01*
X113575000Y-56492857D01*
X113610714Y-56564285D01*
X113610714Y-56707142D01*
X113575000Y-56778571D01*
X118153571Y-54171428D02*
X118189285Y-54100000D01*
X118189285Y-53957142D01*
X118153571Y-53885714D01*
X118082142Y-53850000D01*
X118046428Y-53850000D01*
X117975000Y-53885714D01*
X117939285Y-53957142D01*
X117939285Y-54064285D01*
X117903571Y-54135714D01*
X117832142Y-54171428D01*
X117796428Y-54171428D01*
X117725000Y-54135714D01*
X117689285Y-54064285D01*
X117689285Y-53957142D01*
X117725000Y-53885714D01*
X117689285Y-53600000D02*
X118189285Y-53457142D01*
X117832142Y-53314285D01*
X118189285Y-53171428D01*
X117689285Y-53028571D01*
X118189285Y-52742857D02*
X117689285Y-52742857D01*
X117439285Y-52742857D02*
X117475000Y-52778571D01*
X117510714Y-52742857D01*
X117475000Y-52707142D01*
X117439285Y-52742857D01*
X117510714Y-52742857D01*
X118189285Y-52278571D02*
X118153571Y-52350000D01*
X118117857Y-52385714D01*
X118046428Y-52421428D01*
X117832142Y-52421428D01*
X117760714Y-52385714D01*
X117725000Y-52350000D01*
X117689285Y-52278571D01*
X117689285Y-52171428D01*
X117725000Y-52100000D01*
X117760714Y-52064285D01*
X117832142Y-52028571D01*
X118046428Y-52028571D01*
X118117857Y-52064285D01*
X118153571Y-52100000D01*
X118189285Y-52171428D01*
X118189285Y-52278571D01*
X113146428Y-49255000D02*
X113110714Y-49326428D01*
X113110714Y-49469285D01*
X113146428Y-49540714D01*
X113217857Y-49576428D01*
X113253571Y-49576428D01*
X113325000Y-49540714D01*
X113360714Y-49469285D01*
X113360714Y-49362142D01*
X113396428Y-49290714D01*
X113467857Y-49255000D01*
X113503571Y-49255000D01*
X113575000Y-49290714D01*
X113610714Y-49362142D01*
X113610714Y-49469285D01*
X113575000Y-49540714D01*
X113610714Y-49826428D02*
X113110714Y-49969285D01*
X113467857Y-50112142D01*
X113110714Y-50255000D01*
X113610714Y-50397857D01*
X113146428Y-51005000D02*
X113110714Y-50933571D01*
X113110714Y-50790714D01*
X113146428Y-50719285D01*
X113182142Y-50683571D01*
X113253571Y-50647857D01*
X113467857Y-50647857D01*
X113539285Y-50683571D01*
X113575000Y-50719285D01*
X113610714Y-50790714D01*
X113610714Y-50933571D01*
X113575000Y-51005000D01*
X113110714Y-51433571D02*
X113146428Y-51362142D01*
X113217857Y-51326428D01*
X113860714Y-51326428D01*
X113110714Y-51719285D02*
X113860714Y-51719285D01*
X113396428Y-51790714D02*
X113110714Y-52005000D01*
X113610714Y-52005000D02*
X113325000Y-51719285D01*
X117689285Y-48517857D02*
X118296428Y-48517857D01*
X118367857Y-48553571D01*
X118403571Y-48589285D01*
X118439285Y-48660714D01*
X118439285Y-48767857D01*
X118403571Y-48839285D01*
X118153571Y-48517857D02*
X118189285Y-48589285D01*
X118189285Y-48732142D01*
X118153571Y-48803571D01*
X118117857Y-48839285D01*
X118046428Y-48875000D01*
X117832142Y-48875000D01*
X117760714Y-48839285D01*
X117725000Y-48803571D01*
X117689285Y-48732142D01*
X117689285Y-48589285D01*
X117725000Y-48517857D01*
X117689285Y-48160714D02*
X118189285Y-48160714D01*
X117760714Y-48160714D02*
X117725000Y-48125000D01*
X117689285Y-48053571D01*
X117689285Y-47946428D01*
X117725000Y-47875000D01*
X117796428Y-47839285D01*
X118189285Y-47839285D01*
X118189285Y-47160714D02*
X117439285Y-47160714D01*
X118153571Y-47160714D02*
X118189285Y-47232142D01*
X118189285Y-47375000D01*
X118153571Y-47446428D01*
X118117857Y-47482142D01*
X118046428Y-47517857D01*
X117832142Y-47517857D01*
X117760714Y-47482142D01*
X117725000Y-47446428D01*
X117689285Y-47375000D01*
X117689285Y-47232142D01*
X117725000Y-47160714D01*
D12*
X105700000Y-87450000D02*
X109300000Y-87450000D01*
X110500000Y-83200000D02*
X110500000Y-85475000D01*
X109700000Y-83200000D02*
X110500000Y-83200000D01*
X104500000Y-83200000D02*
X104500000Y-85475000D01*
X105300000Y-83200000D02*
X104500000Y-83200000D01*
D13*
X105150000Y-82490000D02*
G75*
G03X105150000Y-82490000I-100000J0D01*
G01*
D10*
X110250000Y-69800000D02*
X110250000Y-65550000D01*
X103650000Y-69800000D02*
X103650000Y-65550000D01*
X103400000Y-70050000D02*
X103400000Y-70550000D01*
X103900000Y-70300000D02*
X103400000Y-70550000D01*
X103900000Y-70300000D02*
X103400000Y-70050000D01*
D12*
X99450000Y-82000000D02*
X103450000Y-82000000D01*
X95850000Y-75850000D02*
X95850000Y-80250000D01*
D13*
X104550000Y-75900000D02*
G75*
G03X104550000Y-75900000I-100000J0D01*
G01*
D12*
X103450000Y-74100000D02*
X99450000Y-74100000D01*
X103450000Y-76150000D02*
X103450000Y-74100000D01*
X103450000Y-82000000D02*
X103450000Y-79950000D01*
D10*
X113110000Y-47230000D02*
X114320000Y-47230000D01*
X114320000Y-69070000D02*
X114320000Y-72280000D01*
X114320000Y-63990000D02*
X114320000Y-67550000D01*
X114320000Y-58910000D02*
X114320000Y-62470000D01*
X114320000Y-53830000D02*
X114320000Y-57390000D01*
X114320000Y-48750000D02*
X114320000Y-52310000D01*
X114320000Y-46560000D02*
X114320000Y-47230000D01*
X114320000Y-72280000D02*
X116980000Y-72280000D01*
X116980000Y-71610000D02*
X116980000Y-72280000D01*
X116980000Y-66530000D02*
X116980000Y-70090000D01*
X116980000Y-61450000D02*
X116980000Y-65010000D01*
X116980000Y-56370000D02*
X116980000Y-59930000D01*
X116980000Y-51290000D02*
X116980000Y-54850000D01*
X116980000Y-46560000D02*
X116980000Y-49770000D01*
X114320000Y-46560000D02*
X116980000Y-46560000D01*
D14*
X104900000Y-46175000D02*
X103950000Y-46175000D01*
X109000000Y-46175000D02*
X109950000Y-46175000D01*
X109000000Y-53300000D02*
X109000000Y-46175000D01*
X104900000Y-53300000D02*
X104900000Y-46175000D01*
X104900000Y-53300000D02*
X109000000Y-53300000D01*
D10*
X95710000Y-47230000D02*
X96920000Y-47230000D01*
X96920000Y-69070000D02*
X96920000Y-72280000D01*
X96920000Y-63990000D02*
X96920000Y-67550000D01*
X96920000Y-58910000D02*
X96920000Y-62470000D01*
X96920000Y-53830000D02*
X96920000Y-57390000D01*
X96920000Y-48750000D02*
X96920000Y-52310000D01*
X96920000Y-46560000D02*
X96920000Y-47230000D01*
X96920000Y-72280000D02*
X99580000Y-72280000D01*
X99580000Y-71610000D02*
X99580000Y-72280000D01*
X99580000Y-66530000D02*
X99580000Y-70090000D01*
X99580000Y-61450000D02*
X99580000Y-65010000D01*
X99580000Y-56370000D02*
X99580000Y-59930000D01*
X99580000Y-51290000D02*
X99580000Y-54850000D01*
X99580000Y-46560000D02*
X99580000Y-49770000D01*
X96920000Y-46560000D02*
X99580000Y-46560000D01*
X108455000Y-60403332D02*
X106170000Y-60403332D01*
X108455000Y-61873332D02*
X108455000Y-60403332D01*
X106170000Y-61873332D02*
X108455000Y-61873332D01*
M02*
